<?xml version="1.0" encoding="utf-8" ?>
<svg xmlns="http://www.w3.org/2000/svg" xmlns:xlink="http://www.w3.org/1999/xlink" width="1024" height="1024">
	<path fill="#FEFEFE" d="M0 0L1024 0L1024 1024L0 1024L0 0Z"/>
	<path fill="#EF9F53" d="M149.481 767.864C150.553 766.719 151.463 765.44 153.051 765.064C156.912 767.969 160.268 772.101 163.725 775.499C170.907 782.556 178.317 789.504 185.129 796.926C181.946 800.095 177.774 805.433 173.94 807.585C169.725 812.096 156.666 826.411 152.056 828.745C151.216 828.316 150.582 827.904 149.877 827.276C140.747 818.46 131.863 809.355 122.826 800.439C122.02 799.653 121.412 798.797 120.752 797.891C120.842 796.341 121.26 796.157 122.253 795.015C132.032 786.933 140.026 776.448 149.481 767.864Z"/>
	<path fill="#FEFEFE" d="M151.621 768.986L152.761 768.788C161.972 776.38 173.739 787.881 181.182 797.14L175.893 802.911C170.463 808.112 156.86 822.403 151.665 825.629C147.306 821.389 142.922 817.18 138.719 812.785C134.039 807.891 129.454 802.611 124.22 798.305L124.15 796.813C133.588 787.895 142.383 778.141 151.621 768.986Z"/>
	<path fill="#EF9F53" d="M445.136 149.411L446.176 148.978C450.2 151.032 474.563 176.563 478.734 180.899C476.91 182.774 475.067 184.995 473.084 186.676C464.276 195.825 455.539 205.381 446.131 213.905C439.959 207.936 418.616 187.155 415.202 181.2C415.449 179.528 416.694 178.648 417.856 177.541C426.838 168.053 436.162 158.9 445.136 149.411Z"/>
	<path fill="#FEFEFE" d="M418.738 180.08C427.667 170.775 436.455 160.353 446.171 151.924C455.574 161.746 466.488 170.695 475.078 181.193L471.91 184.646L446.318 210.092C441.552 205.863 420.481 185.652 418.312 181.337L418.738 180.08Z"/>
	<path fill="#F9E6AD" d="M149.095 398.416C159.006 410.111 171.046 419.864 180.952 431.598C177.307 435.99 173.451 439.918 169.109 443.62C162.282 450.42 155.415 457.145 149.159 464.483C141.822 457.024 134.823 449.218 127.334 441.915Q121.843 436.73 116.558 431.335C123.264 422.278 140.433 405.657 149.095 398.416Z"/>
	<path fill="#FEFEFE" d="M148.33 401.709C159.347 410.175 168.234 421.834 178.273 431.453C174.724 435.428 170.978 439.199 167.237 442.99C160.809 448.757 154.924 454.953 149.066 461.29C142.01 454.477 134.806 447.64 128.151 440.437L118.712 430.694C128.82 421.335 137.971 410.759 148.33 401.709Z"/>
	<path fill="#F9E6AD" d="M446.631 250.874C449.473 251.292 477.147 279.511 480.791 283.608C469.584 294.398 458.824 305.688 447.764 316.636L446.771 317.044C443.111 314.564 439.364 309.466 436.235 306.247C428.93 298.731 421.42 291.424 414.13 283.894L446.631 250.874Z"/>
	<path fill="#FEFEFE" d="M447.117 251.876C451.233 253.827 470.96 277.681 478.961 283.565C468.607 294.571 457.318 304.644 446.972 315.683C445.752 315.218 440.586 309.052 439.328 307.714C431.625 299.518 423.888 291.556 415.663 283.872C425.79 272.85 436.486 262.405 447.117 251.876Z"/>
	<path fill="#FCF290" d="M476.23 412.413C476.266 412.642 476.306 412.87 476.337 413.1C476.813 416.659 474.813 425.13 474.619 429.556C473.642 451.83 478.587 475.876 496.823 490.536C507.673 499.259 521.341 501.99 534.98 500.395C552.252 498.375 570.134 487.971 581.674 475.137C582.33 484.909 582.373 556.735 584.394 558.696L584.906 558.731L584.007 559.282L583.711 561.281C585.126 570.048 584.456 579.373 584.726 588.246L586.483 638.171L590.198 748.442C590.676 762.32 591.944 776.148 592.137 790.04C584.818 789.999 576.154 789.115 568.959 790.304L566.117 790.113C557.112 789.045 547.517 790.527 538.636 788.479C535.904 787.849 533.106 786.623 531.712 784.027C529.32 779.572 532.714 771.836 533.788 767.203C534.807 762.813 534.747 756.73 532.157 752.851C530.094 749.76 526.448 748.609 522.96 747.992C515.534 746.678 506.169 747.2 499.93 751.735C493.034 756.748 491.541 765.313 490.448 773.16C489.202 774.84 488.056 776.086 486.022 776.751C481.325 778.286 475.775 777.55 470.957 777.06C447.102 774.637 426.878 765.425 405.653 754.976C419.639 747.676 429.48 737.567 435.619 722.981C441.949 707.942 443.966 692.055 446.042 676.034C449.424 649.924 450.862 624.02 452.065 597.753L454.519 550.149C456.218 518.351 458.756 485.96 464.393 454.614C466.318 443.914 468.838 436.302 471.789 426.065C473.04 421.727 473.79 416.208 476.23 412.413Z"/>
	<path fill="#EF9F53" d="M694.736 122.931C705.555 122.155 716.503 122.514 727.345 122.581L778.606 122.897C821.156 123.037 863.75 122.234 906.3 122.97C906.936 166.867 906.292 210.845 906.17 254.75Q906.587 322.711 906.102 390.671L906.217 503.901C906.412 508.348 906.921 515.135 905.4 519.291Q899.224 519.109 893.046 519.073Q845.969 519.534 798.893 519.05L689.03 519.098C688.724 510.03 688.902 500.9 688.866 491.825C687.902 488.837 688.449 483.912 688.438 480.694C687.362 475.192 689.562 466.754 687.111 462.009C686.711 453.231 688.377 441.985 689.921 433.305C690.356 424.837 692.482 416.403 693.13 407.924C693.583 402.005 692.979 396.196 692.275 390.327C691.883 388.529 691.35 386.803 690.797 385.048L689.68 381.619C691.404 375.452 690.211 338.504 690.159 328.677L690.159 237.696L690.111 235.77L689.975 122.605L694.736 122.931Z"/>
	<path fill="#FEFEFE" d="M795.334 125.389C799.516 125.298 809.87 123.941 812.887 126.467C814.915 131.084 819.492 135.777 822.631 139.778Q834.694 155.185 847.135 170.29L886.144 218.887C890.481 224.22 894.65 230.862 899.569 235.579C900.833 237.56 902.115 239.404 903.601 241.227C903.654 245.444 904.668 258.527 903.337 261.911C902.676 261.176 902.016 260.448 901.391 259.681C889.761 243.195 876.627 227.881 864.004 212.179L804.045 137C801.022 133.235 798.216 129.265 795.334 125.389Z"/>
	<path fill="#FEFEFE" d="M824.846 125.376C851.167 125.808 877.535 125.493 903.864 125.598L903.905 203.48C903.892 210.874 904.706 229.408 903.287 235.572L902.751 235.77L902.135 235.442C899.226 228.613 883.469 211.688 877.775 204.598L814.82 125.446L824.846 125.376Z"/>
	<path fill="#EF9F53" d="M869.466 149.506C870.374 151.457 872.454 152.412 872.598 154.502C871.435 155.844 870.493 157.178 869.556 158.686C868.192 156.838 866.668 155.541 864.906 154.096C866.712 152.676 868.127 151.38 869.466 149.506Z"/>
	<path fill="#FEFEFE" d="M692.275 390.327L692.911 389.683L744.392 451.911C748.566 457.051 762.53 476.041 766.537 479.154C771.784 486.036 777.496 492.75 783.26 499.207C785.604 502.384 789.074 507.8 792.186 510.108C793.667 512.253 795.208 514.293 796.841 516.321L690.948 516.479C690.375 509.409 690.576 502.253 690.588 495.162Q690.703 480.985 690.399 466.81C690.512 461.418 691.07 437.112 689.921 433.305C690.356 424.837 692.482 416.403 693.13 407.924C693.583 402.005 692.979 396.196 692.275 390.327Z"/>
	<path fill="#EF9F53" d="M719.839 461.263C721.23 462.139 722.573 462.978 723.386 464.447C723.116 466.322 722.144 466.677 720.746 467.894C720.446 467.828 720.138 467.793 719.847 467.696C718.471 467.241 718.258 466.796 717.547 465.624C717.814 463.424 718.469 462.951 719.839 461.263Z"/>
	<path fill="#FEFEFE" d="M695.903 125.475Q705.651 125.23 715.4 125.098C721.08 133.846 728.703 141.743 735.114 150.009L776.433 203.58C804.724 240.056 832.345 277.042 860.916 313.3C864.996 318.478 872.602 330.525 877.535 334.036L878.155 333.78C877.512 330.458 728.786 138.524 717.739 125.392C742.415 125.507 767.31 124.609 791.958 125.436Q797.207 132.048 802.346 138.745L874.511 229.132Q883.119 240.031 891.607 251.024C893.911 254.005 896.376 258.251 899.195 260.65C900.688 262.608 902.165 264.544 903.827 266.365L903.575 350.969C903.578 363.151 902.636 377.294 904.008 389.167C903.998 390.951 903.96 392.733 904.093 394.513C899.426 389.751 895.28 384.105 890.964 378.989C876.525 361.873 862.978 344.184 849.394 326.388L774.722 228.902L719.705 157.07C711.841 146.718 702.711 136.53 695.903 125.475Z"/>
	<path fill="#EF9F53" d="M869.901 265.856C871.296 266.803 872.604 268.29 873.855 269.444L870.257 272.268C870.221 272.28 870.187 272.303 870.149 272.303C868.696 272.304 867.184 270.346 866.106 269.332L869.901 265.856Z"/>
	<path fill="#EF9F53" d="M831.007 218.423C832.272 219.467 833.567 220.304 834.348 221.786C834.091 223.547 832.585 224.602 831.365 225.778L830.902 225.743C829.719 224.353 828.598 222.93 827.492 221.478Q829.27 219.975 831.007 218.423Z"/>
	<path fill="#EF9F53" d="M776.628 151.078C777.78 152.399 779.214 153.454 780.574 154.552L776.725 158.529C775.167 156.898 773.611 156.193 771.59 155.287C773.417 153.983 775.04 152.665 776.628 151.078Z"/>
	<path fill="#FEFEFE" d="M693.571 124.958L695.903 125.475C702.711 136.53 711.841 146.718 719.705 157.07L774.722 228.902L849.394 326.388C862.978 344.184 876.525 361.873 890.964 378.989C895.28 384.105 899.426 389.751 904.093 394.513C904.49 395.924 904.334 396.479 903.918 397.824L903.658 458.438C903.57 472.103 902.839 486.232 903.942 499.854C899.509 494.944 895.509 489.396 891.399 484.205L862.061 446.813C823.881 399.03 786.449 350.605 747.381 303.552C739.879 294.517 732.832 285.035 725.582 275.794C722.162 271.434 718.804 266.747 714.941 262.781C713.305 260.264 693.427 233.594 692.405 232.854C693.044 224.38 692.504 215.465 692.523 206.948L692.529 153.291C692.506 146.704 691.375 130.852 693.226 125.649L693.571 124.958Z"/>
	<path fill="#EF9F53" d="M797.733 328.831C799.019 329.689 800.204 330.37 801.035 331.72C800.733 333.479 799.853 333.98 798.624 335.235C797.34 334.425 796.031 333.798 795.314 332.399C795.672 330.711 796.577 330.084 797.733 328.831Z"/>
	<path fill="#EF9F53" d="M870.153 398.907C871.336 399.526 872.185 400.647 872.803 401.799C872.601 403.522 871.313 404.573 870.192 405.793L866.338 402.399L870.153 398.907Z"/>
	<path fill="#EF9F53" d="M721.732 220.493C722.691 221.825 723.781 223.062 724.835 224.319C724.006 225.233 722.431 227.471 721.288 227.549C719.975 226.184 718.372 225.182 716.819 224.112C718.482 222.943 720.099 221.702 721.732 220.493Z"/>
	<path fill="#EF9F53" d="M756.397 264.002C757.12 264.958 757.894 265.858 758.67 266.771C758.802 268.801 757.402 270.283 756.359 272.011L751.831 267.553C753.527 266.502 754.92 265.34 756.397 264.002Z"/>
	<path fill="#344B8A" d="M693.571 124.958L695.903 125.475C702.711 136.53 711.841 146.718 719.705 157.07L774.722 228.902L849.394 326.388C862.978 344.184 876.525 361.873 890.964 378.989C895.28 384.105 899.426 389.751 904.093 394.513C904.49 395.924 904.334 396.479 903.918 397.824C894.935 389.128 887.29 377.995 879.474 368.196C860.686 344.639 842.575 320.639 824.213 296.758L722.908 164.54C713.091 151.527 702.722 138.898 693.226 125.649L693.571 124.958Z"/>
	<path fill="#FEFEFE" d="M692.305 384.314C693.702 377.837 692.735 360.5 692.772 353.038L692.761 270.003C692.79 259.088 691.921 247.853 692.721 236.99C698.49 245.07 704.303 254.795 711.263 261.856C715.761 268.408 721.27 274.274 726.078 280.603C737.243 295.299 749.116 309.205 760.825 323.442C769.747 334.292 778.219 345.531 787.013 356.49C791.971 362.669 797.302 368.562 802.205 374.772L871.584 462.162C879.079 471.647 886.331 481.32 893.868 490.772C897.014 494.718 900.15 499.228 903.788 502.718L904.284 503.69C904.122 507.76 904.41 512.457 903.579 516.413C900.305 516.452 897.028 516.428 893.77 516.793Q861.393 476.638 829.791 435.871C820.166 423.612 809.609 408.892 799.396 397.473C798.359 396.314 797.498 395.31 795.922 395.212C796.281 397.234 797.631 398.973 798.859 400.586C804.213 407.611 810.162 414.304 815.658 421.247Q836.638 448.252 858.042 474.923C868.864 488.491 878.887 502.935 890.321 515.975C886.718 517.09 863.896 516.203 858.003 516.196L800.134 516.359Q798.717 514.616 797.255 512.91Q791.047 504.617 784.229 496.816C779.372 490.203 773.639 483.857 768.218 477.688C764.143 470.962 757.495 463.936 752.505 457.72C737.733 439.321 722.455 421.15 707.31 403.053C703.452 398.444 694.222 389.444 692.305 384.314Z"/>
	<path fill="#EF9F53" d="M799.266 461.407C800.295 462.453 801.273 463.431 802.081 464.667C801.748 466.396 800.421 467.301 799.21 468.534L795.106 464.86C796.645 463.851 797.923 462.659 799.266 461.407Z"/>
	<path fill="#EF9F53" d="M753.788 396.375C754.92 397.926 756.331 398.993 756.487 400.929C755.614 401.999 754.698 403.01 753.76 404.02C752.44 403.07 751.279 401.823 750.102 400.697C751.294 399.228 752.553 397.809 753.788 396.375Z"/>
	<path fill="#EF9F53" d="M719.122 327.452C720.421 328.568 721.713 329.403 722.73 330.812C722.528 332.633 720.779 333.787 719.497 335.068C718.231 334.043 716.998 333.049 715.878 331.864C715.933 330.151 717.937 328.678 719.122 327.452Z"/>
	<path d="M620.182 326.844C608.32 323.629 598.674 316.596 592.559 305.841Q592.079 304.981 591.642 304.099Q591.204 303.216 590.811 302.314Q590.417 301.411 590.068 300.49Q589.719 299.569 589.416 298.632Q589.112 297.695 588.855 296.745Q588.598 295.794 588.387 294.832Q588.177 293.87 588.014 292.898Q587.851 291.927 587.735 290.949Q587.62 289.971 587.553 288.989Q587.486 288.006 587.466 287.022Q587.447 286.037 587.476 285.053Q587.505 284.068 587.583 283.086Q587.66 282.105 587.785 281.128Q587.91 280.151 588.083 279.181Q588.256 278.212 588.476 277.252Q588.696 276.292 588.963 275.344Q589.24 274.354 589.564 273.378Q589.889 272.402 590.261 271.444Q590.634 270.485 591.052 269.546Q591.471 268.607 591.935 267.69Q592.4 266.772 592.908 265.879Q593.417 264.985 593.969 264.117Q594.521 263.25 595.115 262.41Q595.709 261.571 596.343 260.761Q596.977 259.952 597.651 259.175Q598.324 258.398 599.034 257.654Q599.745 256.911 600.491 256.203Q601.237 255.496 602.017 254.826Q602.797 254.156 603.609 253.524Q604.42 252.893 605.262 252.303Q606.104 251.712 606.974 251.164Q607.844 250.615 608.739 250.11Q609.599 249.635 610.48 249.202Q611.362 248.77 612.264 248.38Q613.166 247.991 614.085 247.646Q615.005 247.301 615.94 247.001Q616.876 246.702 617.824 246.448Q618.773 246.194 619.733 245.986Q620.693 245.778 621.662 245.618Q622.631 245.457 623.607 245.343Q624.583 245.23 625.563 245.164Q626.543 245.098 627.525 245.08Q628.507 245.062 629.488 245.092Q630.47 245.121 631.449 245.198Q632.428 245.276 633.403 245.401Q634.377 245.525 635.344 245.697Q636.311 245.869 637.269 246.088Q638.226 246.307 639.172 246.572C650.032 249.684 659.271 257.77 664.661 267.598Q665.135 268.445 665.566 269.316Q665.997 270.186 666.383 271.077Q666.77 271.968 667.111 272.877Q667.452 273.786 667.746 274.712Q668.041 275.637 668.288 276.576Q668.536 277.515 668.736 278.465Q668.936 279.416 669.088 280.375Q669.239 281.334 669.342 282.3Q669.445 283.265 669.5 284.235Q669.554 285.204 669.559 286.175Q669.564 287.146 669.52 288.117Q669.477 289.087 669.384 290.053Q669.291 291.02 669.15 291.981Q669.009 292.941 668.819 293.894Q668.63 294.846 668.392 295.788Q668.155 296.73 667.87 297.658C664.754 307.896 658.372 315.88 649.414 321.616C649.362 329.133 649.271 336.647 649.523 344.161C665.51 349.097 678.221 358.491 686.079 373.474C687.447 376.082 688.633 378.866 689.68 381.619L690.797 385.048C691.35 386.803 691.883 388.529 692.275 390.327C692.979 396.196 693.583 402.005 693.13 407.924C692.482 416.403 690.356 424.837 689.921 433.305C688.377 441.985 686.711 453.231 687.111 462.009C685.835 481.218 686.338 500.763 686.803 520.005C687.085 531.657 687.003 543.668 688.462 555.239C691.1 576.159 697.044 599.089 698.614 619.813Q704.592 710.765 709.5 801.781C710.661 821.923 711.484 842.132 713.035 862.246C713.418 867.215 714.378 872.139 715.027 877.079C715.991 884.412 716.703 891.842 717.337 899.209Q768.679 898.84 820.022 899.031C825.957 899.03 852.237 898.185 855.701 899.332L856.397 900.207L856.249 901.256C854.591 902.278 850.04 901.794 847.993 901.799L290.056 901.62L163.372 901.619L132.04 901.579C128.239 901.569 123.263 902.17 119.635 901.364C118.894 901.2 118.815 901.125 118.228 900.83L118.348 900.046C119.46 899.383 120.33 899.057 121.632 898.962C126.185 898.631 130.943 898.994 135.518 899.013L162.575 899.037L252.103 899.079C254.233 889.585 258.942 881.28 267.333 876.006C279.298 868.486 294.585 870.519 308.07 870.543Q308.529 800.528 308.065 730.513L232.937 730.477C232.198 722.582 232.47 714.489 232.48 706.559L232.546 671.022C232.573 650.632 231.356 627.004 233.042 606.962C233.907 596.68 235.729 586.205 238.858 576.363C244.253 559.391 252.292 543.238 260.6 527.541C263.405 522.24 266.704 517.06 269.291 511.67C267.236 497.044 261.522 482.419 256.713 468.509C252.431 456.124 248.368 443.686 243.979 431.332C240.346 421.108 236.082 410.903 234.428 400.131C233.167 391.914 232.736 381.485 238.184 374.562C241.614 370.203 247.072 368.44 252.415 367.936C262.911 366.947 279.594 369.83 287.255 360.54C294.637 351.591 289.243 313.285 292.66 310.13C292.884 309.923 294.147 309.679 294.462 309.642C298.521 309.167 302.982 309.571 307.077 309.673C303.469 304.813 302.567 299.495 303.548 293.54C304.254 289.257 306.13 284.821 309.744 282.203Q310.251 281.832 310.794 281.515Q311.337 281.199 311.91 280.942Q312.483 280.685 313.08 280.489Q313.678 280.293 314.292 280.161Q314.906 280.03 315.531 279.963Q316.156 279.896 316.784 279.896Q317.413 279.895 318.038 279.961Q318.662 280.026 319.277 280.157C323.138 280.985 326.407 283.639 328.469 286.948C331.26 291.425 331.836 296.923 330.528 301.986C329.809 304.77 328.491 307.311 326.943 309.716L342.472 309.955C342.811 319.009 342.73 328.067 342.75 337.126C342.763 342.465 342.308 348.324 343.429 353.57C344.079 356.615 345.416 359.444 347.752 361.556C363.614 375.893 398.743 354.494 401.438 387.146C401.912 392.892 400.781 398.527 399.367 404.071C393.605 426.675 384.285 448.538 376.612 470.551L369.086 492.465C367.957 495.767 366.986 499.9 365.341 502.952C365.39 506.232 365.725 508.824 366.885 511.93C376.528 533.45 386.712 554.258 393.32 577.021C406.709 623.148 401.257 682.282 403.393 730.345L325.848 730.552L326.142 870.623C342.041 870.534 359.918 868.208 372.323 880.41C377.416 885.42 380.52 892.129 382.246 898.983L480.309 899.062C496.426 899.06 512.696 899.526 528.801 899.031C538.97 892.312 559.018 876.844 566.176 867.518C566.619 841.765 566.282 815.875 566.117 790.113L568.959 790.304C576.154 789.115 584.818 789.999 592.137 790.04C591.944 776.148 590.676 762.32 590.198 748.442L586.483 638.171L584.726 588.246C584.456 579.373 585.126 570.048 583.711 561.281L584.007 559.282L584.906 558.731L584.394 558.696C582.373 556.735 582.33 484.909 581.674 475.137C570.134 487.971 552.252 498.375 534.98 500.395C521.341 501.99 507.673 499.259 496.823 490.536C478.587 475.876 473.642 451.83 474.619 429.556C474.813 425.13 476.813 416.659 476.337 413.1C476.306 412.87 476.266 412.642 476.23 412.413C478.692 400.056 495.123 371.932 504.979 363.973C507.756 363.464 511.727 358.969 514.066 357.129C523.585 349.638 534.424 344.996 546.602 344.413C557.436 343.893 564.912 349.623 571.022 349.611C571.281 349.611 571.54 349.595 571.799 349.587C579.015 349.226 585.208 348.989 592.089 351.731C594.715 352.777 597.191 354.123 599.869 355.043C606.386 350.735 613.058 346.563 620.513 344.063C620.422 338.338 620.48 332.559 620.182 326.844Z"/>
	<path fill="#FEFEFE" d="M575.467 352.457C584.145 351.33 589.948 353.779 597.706 357.207C594.987 359.933 592.468 362.554 590.325 365.768C585.936 360.726 579.838 357.481 575.467 352.457Z"/>
	<path fill="#FEFEFE" d="M236.873 396.512Q236.486 393.507 236.482 390.477C236.468 384.945 237.792 378.767 241.953 374.84C246.866 370.203 253.412 370.377 259.689 370.469C254.545 377.36 248.358 383.67 242.663 390.12L236.873 396.512Z"/>
	<path fill="#FEFEFE" d="M490.788 387.399C491.705 388.764 499.766 412.229 501.381 416.215C497.554 415.968 493.825 415.493 490.036 414.904L478.945 413.096C480.751 404.296 486.028 394.978 490.788 387.399Z"/>
	<path fill="#FEFEFE" d="M645.955 323.512L646.387 323.784C647.609 327.444 646.71 338.983 646.698 343.475C639.023 342.205 631.682 342.08 623.989 343.298L623.41 343.066C622.2 338.408 622.928 332.076 622.886 327.207C631.105 327.703 638.308 326.526 645.955 323.512Z"/>
	<path fill="#EF9F53" d="M314.071 282.569C317.129 282.353 319.563 282.176 322.162 284.02C325.466 286.364 327.327 290.179 327.988 294.099C328.694 298.287 328.265 303.379 325.616 306.859C324.314 308.569 323.251 309.235 321.125 309.514C317.453 309.68 313.803 309.633 310.13 309.565Q309.376 308.583 308.679 307.56C305.903 303.468 305.062 298.339 306.124 293.518C307.21 288.584 309.87 285.23 314.071 282.569Z"/>
	<path fill="#FEFEFE" d="M279.502 368.321C270.919 377.566 262.324 386.754 254.101 396.327C251.68 398.82 242.253 410.78 239.646 411.425C238.514 407.811 237.962 403.925 237.251 400.205C237.031 399.008 236.99 397.726 236.873 396.512L242.663 390.12C248.358 383.67 254.545 377.36 259.689 370.469L263.916 370.465Q267.871 370.524 271.79 369.985Q275.709 369.446 279.502 368.321Z"/>
	<path fill="#EF9F53" d="M259.689 370.469L263.916 370.465C258.286 376.097 250.566 386.954 244.856 391.211C242.256 394.153 239.612 397.064 237.251 400.205C237.031 399.008 236.99 397.726 236.873 396.512L242.663 390.12C248.358 383.67 254.545 377.36 259.689 370.469Z"/>
	<path fill="#40413F" d="M310.572 730.476L322.979 730.456Q323.347 775.927 323.062 821.398C323.017 837.796 323.66 854.385 322.898 870.763L311.065 870.72L311.104 775.279C311.053 760.353 311.275 745.388 310.572 730.476Z"/>
	<path fill="#FEFEFE" d="M662.042 870.696C678.42 870.135 694.912 870.506 711.299 870.571C712.71 879.959 713.67 889.518 714.448 898.978L681.25 899.036L628.556 899.003C633.477 894.112 639.271 889.87 644.554 885.349C650.17 880.543 655.847 874.689 662.042 870.696Z"/>
	<path fill="#FEFEFE" d="M569.552 869.751C586.433 869.183 603.498 869.74 620.4 869.838Q621.787 884.437 622.688 899.075L587.125 899.127L534.137 899.3C541.439 892.895 549.225 887.026 556.641 880.753C560.423 877.554 563.873 873.478 567.831 870.602C568.395 870.192 568.907 869.999 569.552 869.751Z"/>
	<path fill="#EF9F53" d="M283.301 873.668C294.757 873.02 306.446 873.615 317.93 873.574C329.038 873.534 340.783 872.624 351.775 873.834Q354.449 874.111 357.04 874.831Q359.63 875.551 362.064 876.694C371.726 881.34 375.549 889.236 378.976 898.792C369.633 899.063 360.226 898.86 350.875 898.881L255.455 898.997Q255.783 897.102 256.342 895.261Q256.901 893.421 257.682 891.664Q258.464 889.906 259.456 888.259Q260.449 886.611 261.637 885.099C267.148 878.023 274.595 874.738 283.301 873.668Z"/>
	<path fill="#FEFEFE" d="M636.739 734.344C638.55 738.632 641.145 761.496 642.145 767.902Q647.7 804.368 654.082 840.698C655.738 850.188 656.985 859.929 659.05 869.32C651.906 876.141 643.971 882.291 636.352 888.575C632.717 891.6 629.214 894.689 625.771 897.932C624.393 887.549 623.246 876.353 623.604 865.877C624.162 849.566 627.223 832.62 628.837 816.318L636.739 734.344Z"/>
	<path fill="#FEFEFE" d="M624.724 248.18C633.857 247.503 642.731 249.702 650.249 255.021Q651.034 255.583 651.791 256.183Q652.548 256.782 653.275 257.418Q654.002 258.054 654.697 258.724Q655.392 259.395 656.053 260.098Q656.715 260.802 657.341 261.537Q657.967 262.272 658.557 263.036Q659.147 263.801 659.699 264.594Q660.251 265.386 660.763 266.204Q661.276 267.023 661.748 267.865Q662.22 268.708 662.65 269.572Q663.081 270.437 663.469 271.321Q663.856 272.205 664.201 273.108Q664.545 274.01 664.845 274.928Q665.144 275.846 665.399 276.777Q665.654 277.709 665.863 278.651Q666.072 279.594 666.235 280.546Q666.376 281.476 666.471 282.412Q666.566 283.348 666.615 284.287Q666.663 285.226 666.665 286.167Q666.667 287.108 666.622 288.047Q666.578 288.987 666.486 289.923Q666.395 290.859 666.257 291.79Q666.12 292.72 665.936 293.643Q665.753 294.565 665.523 295.478Q665.294 296.39 665.02 297.29Q664.746 298.19 664.428 299.075Q664.109 299.96 663.748 300.828Q663.386 301.696 662.981 302.546Q662.577 303.395 662.131 304.223Q661.685 305.051 661.198 305.856Q660.712 306.661 660.186 307.441Q659.66 308.221 659.096 308.974C652.392 318.059 643.384 322.66 632.384 324.35Q631.504 324.457 630.621 324.519Q629.737 324.582 628.851 324.601Q627.966 324.62 627.08 324.595Q626.195 324.57 625.311 324.501Q624.428 324.432 623.549 324.32Q622.671 324.207 621.799 324.051Q620.927 323.895 620.063 323.696Q619.2 323.497 618.348 323.255Q617.495 323.013 616.656 322.73Q615.817 322.446 614.993 322.121Q614.169 321.796 613.361 321.431Q612.554 321.065 611.766 320.66Q610.979 320.255 610.212 319.812Q609.445 319.368 608.701 318.887Q607.957 318.406 607.238 317.889Q606.519 317.371 605.826 316.819C597.82 310.531 591.783 301.036 590.631 290.82Q590.521 289.871 590.457 288.917Q590.394 287.963 590.378 287.008Q590.362 286.052 590.393 285.097Q590.424 284.141 590.502 283.189Q590.58 282.236 590.705 281.289Q590.83 280.341 591.002 279.401Q591.173 278.461 591.391 277.53Q591.609 276.599 591.873 275.681Q592.136 274.762 592.445 273.857Q592.753 272.953 593.106 272.064Q593.458 271.176 593.855 270.306Q594.251 269.436 594.689 268.587Q595.128 267.738 595.608 266.911Q596.088 266.085 596.608 265.283Q597.128 264.481 597.687 263.706Q598.246 262.931 598.843 262.184C605.536 253.796 614.127 249.299 624.724 248.18Z"/>
	<path fill="#FCF290" d="M504.979 363.973C507.756 363.464 511.727 358.969 514.066 357.129C523.585 349.638 534.424 344.996 546.602 344.413C557.436 343.893 564.912 349.623 571.022 349.611C571.281 349.611 571.54 349.595 571.799 349.587L571.385 350.482C572.54 351.766 573.778 352.106 575.467 352.457C579.838 357.481 585.936 360.726 590.325 365.768C581.72 379.509 571.466 392.566 561.944 405.697C555.133 415.089 548.577 425.644 540.684 434.095C538.241 436.711 535.469 439.099 531.987 440.161C528.483 441.229 525.034 440.708 521.845 438.968C507.553 431.171 497.331 399.045 492.667 384.073C494.858 379.353 505.905 368.016 506.386 364.821L504.979 363.973Z"/>
	<path fill="#FEFEFE" d="M503.221 419.139C508.081 427.72 514.012 439.81 524.263 442.803Q524.972 443.01 525.699 443.144Q526.425 443.279 527.162 443.34Q527.898 443.401 528.637 443.388Q529.376 443.374 530.109 443.287Q530.843 443.2 531.565 443.039Q532.286 442.879 532.987 442.646Q533.689 442.414 534.363 442.113Q535.038 441.812 535.679 441.444C542.986 437.338 548.274 428.746 553.13 422.154L578.637 387.16C584.276 379.266 589.571 370.238 596.06 363.089C609.415 348.376 629.153 341.785 648.502 346.676Q649.803 347.01 651.087 347.407Q652.37 347.805 653.632 348.264Q654.894 348.724 656.133 349.245Q657.371 349.766 658.582 350.348Q659.793 350.929 660.975 351.568Q662.156 352.208 663.304 352.905Q664.453 353.602 665.566 354.355Q666.679 355.107 667.753 355.913Q668.828 356.719 669.862 357.577Q670.896 358.435 671.887 359.342Q672.877 360.249 673.822 361.204Q674.767 362.159 675.664 363.159Q676.561 364.159 677.408 365.202Q678.255 366.245 679.05 367.328Q679.845 368.411 680.585 369.532Q681.326 370.652 682.011 371.808C687.113 380.384 689.94 389.523 690.46 399.497C691.025 410.325 688.589 421.479 687.138 432.179Q684.88 449.009 683.98 465.965C682.796 489.125 683.573 512.56 684.483 535.718C684.781 543.294 685.539 550.939 685.64 558.502C652.085 559.047 618.447 557.741 584.906 558.731L584.394 558.696C582.373 556.735 582.33 484.909 581.674 475.137C588.925 465.986 629.511 409.101 631.564 402.075L631.036 401.763C625.749 404.683 620.683 414.751 617.211 420.023C611.717 428.361 605.823 436.442 600.178 444.678C593.781 454.009 587.671 464.072 580.063 472.466C563.705 490.514 538.079 503.213 513.509 496.096C500.853 492.43 491.401 483.564 485.257 472.099C475.816 454.482 477.029 435.045 478.622 415.827C486.786 417.145 494.964 418.546 503.221 419.139Z"/>
	<path fill="#F9E6AD" d="M583.711 561.281C595.202 561.69 606.788 561.393 618.289 561.382L686.601 561.368C690.049 580.601 693.982 600.357 695.974 619.773C696.837 628.179 697.019 636.71 697.517 645.15L701.007 707.194Q706.238 787.382 710.458 867.629C694.232 867.967 677.972 867.467 661.759 868.044Q652.287 816.753 644.666 765.154Q642.593 752.271 640.366 739.413C639.405 733.725 638.129 727.89 638.019 722.106C637.854 713.402 639.287 704.242 640.089 695.566Q642.297 672.005 644.238 648.42Q646.214 625.046 647.864 601.647C648.312 595.499 649.382 588.905 649.338 582.78C649.331 581.762 649.237 580.965 648.656 580.118L647.546 580.102C646.662 581.273 646.672 581.697 646.496 583.166C645.249 593.565 645.08 604.195 644.249 614.648L638.181 687.472Q630.261 777.323 620.738 867.019C603.532 866.989 586.249 866.603 569.051 866.999C568.621 841.436 569.412 815.853 568.959 790.304C576.154 789.115 584.818 789.999 592.137 790.04C591.944 776.148 590.676 762.32 590.198 748.442L586.483 638.171L584.726 588.246C584.456 579.373 585.126 570.048 583.711 561.281Z"/>
	<path fill="#FEFEFE" d="M294.452 312.516C309.632 312.771 324.864 312.183 340.022 312.604C340.101 324.043 338.244 351.998 343.091 361.164L344.611 362.906C348.579 365.947 352.46 367.876 357.367 368.89C372.558 372.028 395.802 363.896 398.652 386.304C400.246 398.838 393.036 416.161 388.976 428.06C388.733 428.732 388.533 429.527 388.194 430.15C385.652 436.574 383.612 443.182 381.271 449.681C377.977 458.822 374.489 467.877 371.321 477.066C368.82 484.32 366.583 491.807 363.726 498.918C362.202 503.905 362.139 507.204 363.993 512.177C370.364 526.762 378.509 541.216 383.168 556.437L383.931 558.324C386.356 564.978 389.02 571.665 390.718 578.552C391.019 579.775 390.646 580.649 390.328 581.801C390.107 582.603 390.178 582.303 390.34 583.294C393.262 585.224 393.367 587.909 394.033 591.211Q396.772 605.011 397.697 619.049C397.883 620.334 398.068 621.567 398.039 622.871Q400.058 647.174 399.875 671.561C399.937 673.107 399.964 674.666 400.07 676.209C400.286 681.735 400.767 687.708 400.013 693.188L400.074 697.176C400.724 707.244 400.517 717.42 400.437 727.507L382.729 727.629Q376.114 727.908 369.494 727.892L287.828 727.891C270.419 728.37 252.906 728.054 235.485 728.059C235.15 721.107 235.342 714.105 235.389 707.146L235.454 704.293C235.247 689.528 235.437 674.739 235.461 659.971L235.413 657.523C235.687 647.978 235.384 638.342 235.445 628.787L235.406 625.715C235.366 612.425 236.14 599.457 239.221 586.475L239.8 583.505C243.367 569.345 263.439 522.405 272.374 513.391C268.8 494.783 262.882 477.569 256.711 459.708Q249.183 437.289 240.92 415.131L239.646 411.425C242.253 410.78 251.68 398.82 254.101 396.327C262.324 386.754 270.919 377.566 279.502 368.321C281.29 367.443 283.219 366.828 285.091 366.151C285.86 365.661 286.524 365.159 287.199 364.541C292.329 359.847 293.512 354.999 293.762 348.315C293.742 346.91 293.792 345.505 293.828 344.101Q294.443 328.315 294.452 312.516Z"/>
	<path fill="#EF9F53" d="M284.298 497.276C285.238 498.046 285.204 497.978 285.357 499.184C284.353 501.786 282.585 503.461 280.246 504.911L279.295 504.26L279.252 503.201C280.472 500.851 282.442 499.128 284.298 497.276Z"/>
	<path fill="#344B8A" d="M316.578 469.853C317.047 470.301 317.649 471.003 318.209 471.364C313.495 474.644 308.709 477.415 303.542 479.915L302.344 478.081C306.199 474.801 312.116 472.324 316.578 469.853Z"/>
	<path fill="#EF9F53" d="M239.8 583.505C242.654 586.333 252.09 595.138 252.145 599.097C249.365 598.873 241.927 589.016 239.221 586.475L239.8 583.505Z"/>
	<path fill="#EF9F53" d="M370.509 563.63L373.094 562.939C373.938 567.19 373.802 575.243 372.023 579.136L371.187 579.554C369.01 575.563 370.23 568.107 370.509 563.63Z"/>
	<path fill="#EF9F53" d="M311.151 662.838C312.542 663.283 313.474 663.823 314.641 664.695C318.285 667.414 326.474 672.736 327.133 677.163C323.549 675.744 320.075 672.686 317.094 670.219C314.629 668.177 311.454 666.177 311.151 662.838Z"/>
	<path fill="#EF9F53" d="M400.013 693.188L400.074 697.176C398.04 699.149 389.085 709.163 388.081 709.462C386.986 708.955 386.899 708.964 386.337 707.91C390.009 702.59 395.784 698.217 400.013 693.188Z"/>
	<path fill="#EF9F53" d="M397.697 619.049C397.883 620.334 398.068 621.567 398.039 622.871C394.631 625.422 388.985 632.618 384.879 633.138C384.066 633.241 384.289 633.225 383.689 632.693C384.686 629.804 394.902 621.649 397.697 619.049Z"/>
	<path fill="#40413F" d="M383.168 556.437L383.931 558.324C380.432 560.147 376.928 561.928 373.094 562.939L370.509 563.63C367.269 563.555 364.296 563.042 361.129 562.389L361.49 560.271C370.148 561.868 375.448 560.182 383.168 556.437Z"/>
	<path fill="#EF9F53" d="M235.413 657.523C239.236 659.807 250.579 670.34 251.776 674.516C252.004 675.308 251.971 675.372 252.005 676.096L251.335 676.877C248.314 675.067 245.242 669.786 242.816 667.024C240.595 664.497 238.08 662.084 235.461 659.971L235.413 657.523Z"/>
	<path fill="#EF9F53" d="M312.507 583.354C313.001 583.401 313.3 583.402 313.794 583.6C316.798 584.806 327.668 595.104 328.666 597.937C328.954 598.754 328.418 599.426 328.109 600.181C325.045 598.564 315.278 587.775 312.282 584.602L312.507 583.354Z"/>
	<path fill="#EF9F53" d="M277.069 584.816C278.349 583.554 279.417 582.17 281.264 581.844L282.253 582.188C282.199 583.34 282.071 583.622 281.21 584.509C280.672 585.063 279.902 585.532 279.27 585.982L271.06 593.323C269.781 594.855 268.2 597.247 266.39 598.068C265.484 598.48 265.863 598.42 264.906 598.066C264.904 597.892 264.881 597.717 264.902 597.544C265.292 594.426 269.577 591.387 271.909 589.506C273.281 587.721 275.349 586.277 277.069 584.816Z"/>
	<path fill="#EF9F53" d="M321.166 615.328C323.915 612.202 326.421 609.298 330.057 607.162C328.525 610.071 326.969 612.901 324.474 615.117C321.908 618.284 315.843 626.232 312.13 627.095L311.791 626.471C312.898 622.373 318.07 618.133 321.166 615.328Z"/>
	<path fill="#EF9F53" d="M293.828 344.101C297.526 345.017 303.338 338.155 308.498 339.265C308.707 340.193 308.866 339.977 308.341 340.692C306.947 342.592 303.788 343.2 301.619 343.868C302.69 345.295 303.885 346.624 304.262 348.408L303.72 348.879C301.745 348.229 300.223 347.177 298.514 346.028L293.762 348.315C293.742 346.91 293.792 345.505 293.828 344.101Z"/>
	<path fill="#EF9F53" d="M235.406 625.715C238.063 622.883 249.257 609.545 251.138 608.212L252.147 608.406L252.572 609.305C248.762 616.588 241.445 623.193 235.445 628.787L235.406 625.715Z"/>
	<path fill="#EF9F53" d="M388.052 662.619C386.442 661.081 384.001 659.423 383.295 657.273L383.732 656.465C383.925 656.465 384.119 656.446 384.312 656.465C386.888 656.72 388.681 659.641 390.191 661.493C392.378 663.909 394.807 666.31 396.689 668.967C397.719 670.074 398.396 671.104 399.875 671.561C399.937 673.107 399.964 674.666 400.07 676.209C398.186 674.49 396.636 672.619 395.043 670.642C392.547 668.318 390.307 665.212 388.052 662.619Z"/>
	<path fill="#EF9F53" d="M356.599 581.359L357.507 581.962L357.607 582.995C354.842 587.517 345.231 595.222 340.862 600.084C340.004 599.831 340.072 599.712 339.55 599.041C340.147 594.986 352.946 584.242 356.599 581.359Z"/>
	<path fill="#EF9F53" d="M282.65 657.901L283.773 658.327L283.97 659.236C281.765 662.909 270.289 672.574 266.354 676.407L265.328 675.464L265.346 674.445C269.027 668.349 277.109 662.395 282.65 657.901Z"/>
	<path fill="#EF9F53" d="M339.836 607.918C339.975 607.952 340.118 607.971 340.252 608.021C341.632 608.528 358.079 626.566 358.806 628.265C357.056 628.392 356.456 628.494 355.059 627.389C351.461 624.546 340.226 612.337 339.836 607.918Z"/>
	<path fill="#EF9F53" d="M344.883 669.549C347.222 666.92 355.082 659.056 358.133 658.298L358.841 658.813C358.031 662.115 348.325 669.613 345.34 672.475C344.311 673.674 343.076 675.441 341.648 676.111C340.779 676.519 341.155 676.446 340.181 676.134C340.181 675.941 340.161 675.746 340.18 675.553C340.432 672.908 343.024 671.161 344.883 669.549Z"/>
	<path fill="#EF9F53" d="M327.709 683.345C328.355 684.084 328.301 684.537 328.488 685.48C327.382 689.096 314.884 704.354 311.602 707.136L310.672 705.857C310.674 705.49 310.562 705.103 310.68 704.755C311.412 702.587 324.978 687.21 327.709 683.345Z"/>
	<path fill="#EF9F53" d="M264.737 608.749C265.147 608.903 265.5 609.006 265.864 609.256C268.261 610.9 270.615 615.201 272.62 617.533C276.104 621.588 280.311 624.997 283.754 629.041C284.37 629.766 284.52 630.281 284.656 631.198C280.344 630.14 275.542 624.786 272.643 621.563C270.105 618.741 264.52 612.703 264.737 608.749Z"/>
	<path fill="#344B8A" d="M320.525 441.598C317.185 439.353 314.64 435.659 311.122 433.415C306.666 430.574 300.77 429.993 296.603 426.629L297.062 426.295C301.434 426.667 304.748 427.928 308.686 429.709C314.469 432.324 318.761 436.268 322.977 440.908L321.181 440.912L320.525 441.598Z"/>
	<path fill="#EF9F53" d="M370.417 631.381L372.092 632.179C374.078 636.18 372.994 651.666 372.841 656.868C372.033 656.746 371.311 656.551 370.526 656.329C369.182 653.313 369.636 635.111 370.417 631.381Z"/>
	<path fill="#EF9F53" d="M247.755 691.396C248.586 689.163 249.254 686.796 250.784 684.938L251.807 684.57C252.472 685.563 252.534 686.251 252.335 687.448C251.956 689.719 250.086 692.166 248.735 693.986C246.083 699.441 240.627 704.18 235.389 707.146L235.454 704.293C240.63 700.805 244.445 696.65 247.755 691.396Z"/>
	<path fill="#EF9F53" d="M272.073 698.575C270.469 697.567 269.027 695.047 267.963 693.49C266.544 691.414 263.073 686.709 263.524 684.268C267.051 686.012 271.294 693.635 273.636 696.953C277.484 700.577 282.386 704.356 285.229 708.828C280.048 706.27 275.721 703.112 272.073 698.575Z"/>
	<path fill="#EF9F53" d="M338.954 683.719L340.204 684.25C342.517 687.189 357.035 705.428 357.315 706.536C357.452 707.078 357.406 707.649 357.452 708.206C353.364 706.847 345.193 695.688 342.261 691.731C340.285 689.066 338.438 687.17 338.954 683.719Z"/>
	<path fill="#40413F" d="M320.525 441.598L321.181 440.912L322.977 440.908C326.461 446.193 329.681 451.486 328.183 458.116C326.931 463.654 322.734 468.162 318.209 471.364C317.649 471.003 317.047 470.301 316.578 469.853C320.69 466.676 324.543 462.99 325.734 457.711C327.119 451.568 323.763 446.467 320.525 441.598Z"/>
	<path fill="#40413F" d="M307.975 509.77C304.905 508.407 301.799 505.799 299.742 503.183C296.536 499.107 294.6 493.707 295.452 488.501C296.209 483.87 298.638 480.785 302.344 478.081L303.542 479.915C300.234 482.7 297.696 485.801 297.448 490.311C297.179 495.181 299.598 499.641 302.843 503.101C305.641 506.083 309.027 508.146 312.543 510.156C310.916 510.317 309.573 510.082 307.975 509.77Z"/>
	<path fill="#EF9F53" d="M297.033 727.609C297.037 723.962 296.263 715.746 297.336 712.649C297.567 711.984 298.004 711.989 298.596 711.717C300.618 714.509 299.654 723.89 299.656 727.633C322.951 727.571 346.259 727.4 369.552 727.639C372.693 723.979 368.436 716.696 371.727 712.611L372.629 712.582C374.343 716.435 373.502 723.275 373.468 727.56C376.534 727.564 379.672 727.438 382.729 727.629Q376.114 727.908 369.494 727.892L287.828 727.891C290.854 727.533 293.985 727.642 297.033 727.609Z"/>
	<path fill="#EF9F53" d="M301.259 628.876C301.745 629.487 301.814 629.341 301.794 630.065C301.734 632.332 300.026 634.855 299.703 637.283C298.882 643.467 299.437 650.04 299.575 656.267C301.777 659.491 306.664 661.91 308.169 665.221L307.288 665.905C302.757 664.052 299.386 660.932 296.677 656.922C296.494 652.04 296.276 647.143 296.275 642.257C296.274 636.469 297.117 633.012 301.259 628.876Z"/>
	<path fill="#EF9F53" d="M269.562 557.083C273.802 556.504 281.611 561.546 286.459 562.798C290.506 563.844 294.35 564.036 298.513 564.022L298.588 574.056C300.092 576.689 302.58 578.755 303.11 581.827C301.493 581.557 300.433 581.279 299.235 580.107C295.635 576.587 295.479 571.222 295.338 566.518C289.53 566.058 283.971 564.919 278.507 562.866C275.759 561.833 270.789 559.801 269.562 557.083Z"/>
	<path fill="#344B8A" d="M360.017 428.864C360.855 429.017 360.921 428.93 361.586 429.537C358.637 433.651 351.81 435.223 348.385 439.351C344.67 443.829 341.997 451.348 342.71 457.169C344.12 468.698 354.086 472.264 362.002 478.336L362.807 478.964C361.678 479.394 360.986 479.486 359.784 479.157C353.136 477.337 345.318 469.721 342.418 463.619C339.805 458.12 339.8 451.918 341.865 446.241C345.009 437.597 352.114 432.685 360.017 428.864Z"/>
	<path fill="#344B8A" d="M363.651 507.081C362.013 508.985 359.859 510.331 357.854 511.823C352.136 516.079 347.47 520.179 344.524 526.81C341.999 532.491 341.294 538.815 343.705 544.667C346.965 552.578 353.857 557.262 361.49 560.271L361.129 562.389Q359.464 561.789 357.826 561.119C350.612 558.137 344.425 552.635 341.53 545.273C339.028 538.912 339.72 532.138 342.417 525.979C346.545 516.547 354.268 510.728 363.651 507.081Z"/>
	<path fill="#EF9F53" d="M262.704 448.486C266.875 441.909 275.789 430.846 283.521 428.401C284.343 428.141 285.352 428.263 286.117 428.587L286.326 429.304C284.194 431.975 279.318 433.15 276.617 435.812C271.92 440.441 268.029 445.041 264.195 450.386C264.144 452.121 264.103 453.631 264.532 455.32L264.84 455.966C266.335 459.042 268.108 461.771 270.494 464.236C273.292 467.128 282.275 472.713 283.149 475.708L282.954 475.963C278.632 476.126 273.792 471.005 270.816 468.244C267.35 465.028 264.503 461.382 262.719 456.97C261.508 454.145 261.814 451.345 262.704 448.486Z"/>
	<path fill="#344B8A" d="M307.975 509.77C309.573 510.082 310.916 510.317 312.543 510.156C319.087 513.046 323.967 518.361 326.635 524.959C328.341 529.178 328.715 533.136 328.41 537.657Q327.631 540.32 326.93 543.005C323.873 550.178 319.199 555.601 312.067 558.999C309.652 560.149 301.914 563.954 299.625 563.128C301.149 560.424 306.085 559.208 308.87 558.037C316.972 554.632 321.948 549.045 325.217 540.96C325.606 538.954 325.874 536.914 326.191 534.895C326.186 532.975 326.146 530.99 325.732 529.111C323.515 519.044 315.996 514.735 307.975 509.77Z"/>
	<path fill="#EF9F53" d="M279.502 368.321C281.29 367.443 283.219 366.828 285.091 366.151C281.422 370.921 276.91 375.237 272.766 379.601Q264.557 388.237 256.633 397.134C251.558 402.733 244.864 408.771 240.92 415.131L239.646 411.425C242.253 410.78 251.68 398.82 254.101 396.327C262.324 386.754 270.919 377.566 279.502 368.321Z"/>
	<path fill="#EF9F53" d="M326.397 372.585C322.462 367.013 315.278 364.212 312.182 359.358L312.716 358.999C319.158 360.596 323.911 365.663 328.685 369.981Q333.547 370.581 338.418 371.102C340.377 369.387 341.98 363.718 343.091 361.164L344.611 362.906C341.204 371.91 340.497 380.364 344.595 389.297C346.955 394.444 350.441 397.977 354.854 401.401C361.853 405.431 367.71 407.872 372.396 414.797C375.125 411.518 391.554 399.164 395.433 398.696C395.611 398.675 395.791 398.715 395.97 398.724C396.365 399.186 396.335 398.989 396.224 399.721C396.027 401.02 395.39 402.204 394.295 402.958C387.302 407.776 379.234 409.761 373.915 417.004C373.825 419.562 373.864 422.194 373.558 424.732L373.92 426.997L374.619 428.474C374.387 429.564 374.314 429.633 373.504 430.409C372.17 430.539 372.183 430.489 371.062 429.736C369.586 427.02 370.373 420.762 370.372 417.57C368.835 410.97 360.591 407.761 355.521 404.346C345.812 399.181 341.369 391.06 339.649 380.557C339.246 378.098 339.395 375.081 338.559 372.766C338.488 372.57 338.387 372.386 338.301 372.197C336.821 372.427 335.308 372.354 333.814 372.351C332.239 372.388 330.219 372.105 328.946 373.009C326.292 384.016 325.26 393.894 314.73 400.358C310.87 402.727 306.99 404.8 303.686 407.947C301.297 410.83 299.277 413.852 297.69 417.253C298.109 419.656 298.472 421.972 299.412 424.242L299.046 425.038C297.888 425.363 297.93 425.433 296.871 424.89C295.55 421.706 295.57 418.236 294.422 415.009C289.489 410.539 281.851 410.051 276.407 406.161L276.35 405.638C282.971 405.259 290.651 409.563 296.123 412.89C298.642 411.174 300.397 407.723 302.829 405.589C305.093 403.033 308.865 401.242 311.762 399.494C322.261 393.16 323.507 383.52 326.397 372.585Z"/>
	<path fill="#FEFEFE" d="M354.854 401.401C350.441 397.977 346.955 394.444 344.595 389.297C340.497 380.364 341.204 371.91 344.611 362.906C348.579 365.947 352.46 367.876 357.367 368.89C372.558 372.028 395.802 363.896 398.652 386.304C400.246 398.838 393.036 416.161 388.976 428.06C388.733 428.732 388.533 429.527 388.194 430.15C383.552 430.15 379.215 428.412 374.619 428.474L373.92 426.997L373.558 424.732C373.864 422.194 373.825 419.562 373.915 417.004C379.234 409.761 387.302 407.776 394.295 402.958C395.39 402.204 396.027 401.02 396.224 399.721C396.335 398.989 396.365 399.186 395.97 398.724C395.791 398.715 395.611 398.675 395.433 398.696C391.554 399.164 375.125 411.518 372.396 414.797C367.71 407.872 361.853 405.431 354.854 401.401Z"/>
	<path fill="#40413F" d="M373.92 426.997C379.016 426.923 383.936 427.953 388.976 428.06C388.733 428.732 388.533 429.527 388.194 430.15C383.552 430.15 379.215 428.412 374.619 428.474L373.92 426.997Z"/>
</svg>
