<?xml version="1.0" encoding="utf-8" ?>
<svg xmlns="http://www.w3.org/2000/svg" xmlns:xlink="http://www.w3.org/1999/xlink" width="1024" height="1024">
	<path fill="#FEFEFE" d="M0 0L1024 0L1024 1024L0 1024L0 0Z"/>
	<path fill="#8CB9E3" d="M872.788 358.163C880.607 356.925 894.116 357.918 902.6 357.889C922.601 357.822 943.129 357.048 963.069 357.908C964.537 357.971 965.699 358.013 967.045 358.676C964.426 361.113 882.738 358.141 870.518 360.792C864.773 362.039 858.786 365.186 854.109 368.761C846.5 374.577 840.933 384.618 839.808 394.099C838.634 403.985 841.871 414.509 848.041 422.275C855.104 431.165 865.215 435.576 876.249 436.909C897.656 437.382 919.167 436.939 940.585 436.908C948.571 436.896 959.284 435.898 966.924 437.252L967.213 437.727C966.684 438.09 966.222 438.309 965.583 438.417C961.596 439.09 957.067 438.643 952.996 438.66L923.282 438.652Q909.495 438.575 895.708 438.714C887.28 438.848 878.195 439.622 869.868 438.169C863.403 437.041 856.964 433.906 851.791 429.902C843.794 423.711 838.548 413.169 837.321 403.242Q837.209 402.256 837.144 401.265Q837.08 400.274 837.064 399.282Q837.048 398.289 837.081 397.297Q837.113 396.305 837.194 395.315Q837.275 394.326 837.403 393.342Q837.532 392.357 837.708 391.38Q837.885 390.404 838.109 389.436Q838.332 388.469 838.603 387.514Q838.873 386.559 839.19 385.618Q839.507 384.677 839.869 383.753Q840.231 382.829 840.638 381.923Q841.045 381.018 841.495 380.133Q841.945 379.248 842.438 378.387Q842.931 377.525 843.465 376.688Q843.999 375.851 844.574 375.042Q845.148 374.232 845.761 373.451Q846.369 372.661 847.016 371.902Q847.662 371.143 848.346 370.418Q849.03 369.693 849.749 369.002Q850.469 368.312 851.221 367.658Q851.974 367.005 852.759 366.39Q853.544 365.775 854.358 365.2Q855.172 364.625 856.015 364.091Q856.857 363.557 857.724 363.067Q858.592 362.576 859.483 362.129Q860.375 361.682 861.287 361.28Q862.199 360.879 863.131 360.523Q864.062 360.167 865.01 359.859Q865.958 359.55 866.92 359.289Q867.883 359.029 868.857 358.816Q869.831 358.604 870.814 358.44Q871.798 358.277 872.788 358.163Z"/>
	<path fill="#8CB9E3" d="M192.465 288.576C207.741 287.868 211.902 300.013 220.954 308.93C223.462 311.4 226.005 313.034 229.026 314.779C228.391 315.728 227.742 316.638 227.014 317.519C214.718 332.388 196.295 341.209 177.259 342.911C155.571 344.851 136.78 337.692 120.345 323.837C110.373 316.369 101.377 301.405 98.3768 289.422C118.89 294.956 119.451 311.44 134.787 320.237C139.085 322.702 143.928 323.857 148.86 323.089C168.674 320.006 172.54 293.833 191.83 288.738L192.465 288.576Z"/>
	<path fill="#8CB9E3" d="M191.452 241.579Q192.626 241.513 193.802 241.504C211.302 241.463 215.839 259.514 226.17 269.664C231.64 275.039 236.854 276.106 244.213 275.991C243.064 289.839 237.701 301.131 230.701 312.881C223.126 308.539 219.208 302.249 213.548 295.921C208.92 290.747 202.287 286.389 195.2 286.091C177.875 285.365 170.61 305.033 159.767 314.585C154.55 319.18 149.622 320.506 142.842 320.151C130.063 317.23 126.421 307.574 118.569 298.538C113.025 292.159 105.933 287.988 97.3937 287.379C93.8321 272.583 94.3124 258.421 98.8531 243.939C119.964 248.138 119.002 264.479 134.491 273.248Q135.198 273.648 135.931 273.996Q136.665 274.344 137.422 274.638Q138.179 274.932 138.955 275.17Q139.732 275.409 140.523 275.59Q141.315 275.772 142.117 275.895Q142.92 276.019 143.729 276.084Q144.539 276.149 145.351 276.155Q146.163 276.162 146.973 276.109C167.44 274.94 170.615 247.229 191.452 241.579Z"/>
	<path fill="#8CB9E3" d="M163.668 194.69C166.105 194.327 168.825 194.404 171.286 194.411C191.811 194.469 209.988 203.03 224.311 217.567C235.158 228.576 242.521 244.174 244.235 259.523C244.754 264.169 244.567 268.928 244.512 273.598C241.418 273.574 238.284 273.56 235.34 272.48C221.246 267.313 217.898 246.342 202.81 240.368C196.581 237.902 190.458 238.771 184.446 241.254C174.288 246.616 169.891 256.18 162.643 264.479C158.454 269.276 153.06 273.25 146.469 273.53C130.547 274.207 125.492 258.149 115.873 249.082C111.466 244.928 105.797 241.653 99.5875 241.864Q101.915 236.477 104.911 231.43Q107.908 226.384 111.523 221.761C124.612 205.356 143.225 197.02 163.668 194.69Z"/>
	<path fill="#010101" d="M118.477 652.63L149.53 652.595C155.549 652.593 161.759 652.307 167.748 652.874C166.234 660.115 165.012 667.41 163.54 674.659C161.883 682.821 159.82 691.173 159.25 699.503C164.439 699.502 169.7 699.686 174.879 699.413L176.671 699.384Q184.988 699.49 193.305 699.415C198.865 699.501 204.707 699.822 210.235 699.195C211.24 692.778 213.162 686.381 214.519 680.01C216.449 670.945 217.884 661.409 220.653 652.571C229.983 652.36 238.125 653.97 244.987 660.748Q245.475 661.228 245.937 661.731Q246.4 662.234 246.837 662.76Q247.274 663.286 247.684 663.834Q248.094 664.381 248.476 664.948Q248.858 665.516 249.211 666.101Q249.564 666.687 249.887 667.29Q250.21 667.893 250.502 668.511Q250.794 669.129 251.055 669.761Q251.316 670.393 251.545 671.037Q251.774 671.682 251.97 672.337Q252.166 672.992 252.329 673.656Q252.492 674.32 252.621 674.992Q252.751 675.663 252.846 676.34Q252.942 677.018 253.003 677.699Q253.064 678.38 253.091 679.063Q253.118 679.746 253.111 680.43C253.089 681.983 252.999 683.521 252.792 685.06C251.504 689.698 249.378 693.956 246.091 697.503C240.532 703.502 234.415 705.278 226.535 705.608C215.561 706.069 204.455 705.709 193.468 705.669L136.563 705.564L101.801 705.557C93.6571 705.562 85.0676 706.128 77.0332 704.692C72.3283 703.851 67.8565 701.211 64.3798 697.966C59.539 693.446 56.3441 687.534 56.2606 680.803Q56.2566 680.102 56.2886 679.402Q56.3206 678.701 56.3885 678.004Q56.4563 677.306 56.56 676.613Q56.6636 675.919 56.8027 675.232Q56.9418 674.545 57.1159 673.866Q57.2901 673.187 57.4989 672.518Q57.7077 671.848 57.9506 671.191Q58.1935 670.533 58.4698 669.889Q58.7462 669.245 59.0552 668.615Q59.3642 667.986 59.7052 667.374Q60.0461 666.761 60.418 666.167Q60.79 665.573 61.1919 664.998Q61.5939 664.424 62.0248 663.871Q62.4557 663.318 62.9144 662.788Q63.3732 662.258 63.8585 661.752Q64.3438 661.246 64.8545 660.766C74.1537 651.88 85.661 652.505 97.6216 652.545L118.477 652.63Z"/>
	<path fill="#010101" d="M780.187 635.581C786.347 639.534 792.514 643.142 799.456 645.566C833.818 657.57 892.866 657.056 928.322 649.359C941.089 646.587 952.612 643.031 962.581 634.264Q949.181 657.137 935.339 679.745C931.681 685.72 926.627 695.92 921.701 700.406C917.573 704.165 911.692 706.107 906.405 707.538Q903.652 708.259 900.859 708.806C884.87 711.631 841.938 713.424 828.298 706.126C825.564 704.663 823.475 702.724 821.597 700.276C818.939 696.812 816.8 692.876 814.444 689.199L798.259 663.668C793.734 656.661 782.477 642.636 780.187 635.581Z"/>
	<path fill="#010101" d="M778.206 628.475C778.505 623.655 779.986 620.944 783.644 617.701C789.513 612.5 797.789 609.52 805.165 607.269C835.617 597.975 868.434 598.199 899.867 600.475C917.303 602.388 948.94 605.966 960.51 620.415C962.119 622.424 963.324 624.942 962.944 627.576C962.398 631.371 958.826 634.23 955.841 636.241C948.385 641.264 939.523 643.553 930.882 645.627C894.532 654.353 852.534 654.399 815.974 646.926C804.31 644.542 785.527 639.906 778.605 629.113C778.47 628.902 778.339 628.688 778.206 628.475Z"/>
	<path fill="#010101" d="M253.09 771.414C255.535 778.177 252.682 794.586 249.529 801.254C244.489 811.911 235.882 819.628 224.752 823.481C212.453 827.74 198.704 826.566 185.872 826.519L133.11 826.341C123.181 826.223 112.485 825.204 102.618 826.172C90.2343 825.456 78.3409 821.064 69.5535 812.074C58.5808 800.849 56.2866 787.06 56.5049 772.012C73.286 771.416 90.2222 771.922 107.019 771.93L200.173 771.879C217.682 771.863 235.637 772.619 253.09 771.414Z"/>
	<path fill="#010101" d="M252.933 691.988C253.575 699.053 253.327 706.335 253.377 713.43L253.436 751.854C253.431 757.518 253.098 763.419 253.537 769.054C231.906 768.395 210.051 768.998 188.398 769.002L56.4809 768.976C56.4759 743.221 56.0881 717.406 56.6325 691.66C59.8099 697.348 63.2647 701.528 69.0743 704.627C73.2576 706.858 77.1997 707.905 81.8991 708.286C88.3732 708.811 95.0017 708.499 101.5 708.48L135.193 708.424L193.386 708.562C203.457 708.581 228.23 709.874 236.177 707.295C244.132 704.714 249.283 699.29 252.933 691.988Z"/>
	<path fill="#8CB9E3" d="M792.762 71.7028C822.823 68.9876 853.358 79.6335 876.465 98.5924C901.565 119.187 917.318 150.504 920.449 182.654C923.501 213.983 912.999 248.579 892.849 272.752C870.906 299.076 841.096 314.147 807.022 317.296C806.876 317.314 806.73 317.337 806.584 317.35C777.115 319.955 744.149 308.795 721.703 289.618C696.158 267.793 680.997 238.51 678.604 204.871C676.128 170.071 687.081 138.738 709.897 112.417C731.42 87.5883 760.135 74.0176 792.762 71.7028Z"/>
	<path fill="#FEFEFE" d="M795.764 81.7175Q797.056 81.6779 798.348 81.6684Q799.641 81.6589 800.933 81.6795Q802.226 81.7 803.517 81.7506Q804.809 81.8012 806.099 81.8818Q807.389 81.9624 808.677 82.073Q809.965 82.1836 811.25 82.3241Q812.535 82.4646 813.816 82.6349Q815.097 82.8052 816.374 83.0053Q817.651 83.2054 818.923 83.4351Q820.195 83.6648 821.462 83.9241Q822.728 84.1833 823.988 84.4719Q825.248 84.7605 826.501 85.0783Q827.754 85.3962 828.999 85.743Q830.244 86.0899 831.481 86.4656Q832.717 86.8414 833.945 87.2457Q835.173 87.6501 836.391 88.0829Q837.609 88.5158 838.816 88.9768Q840.024 89.4378 841.22 89.9268Q842.417 90.4158 843.602 90.9324Q844.787 91.4491 845.959 91.9932Q847.132 92.5372 848.291 93.1084Q849.451 93.6796 850.597 94.2776Q851.742 94.8756 852.874 95.5Q854.006 96.1245 855.123 96.7751Q856.24 97.4258 857.341 98.1022Q858.443 98.7786 859.528 99.4804Q860.614 100.182 861.682 100.909Q862.751 101.636 863.803 102.388Q864.854 103.139 865.888 103.915Q866.922 104.691 867.938 105.49Q868.953 106.29 869.95 107.113Q870.947 107.936 871.924 108.782C892.326 126.199 908.275 157.24 910.192 184.026C911.151 197.426 910.009 214.352 906.08 227.291C901.569 242.144 892.034 257.521 881.88 269.048C861.726 291.926 834.138 304.858 803.822 306.828Q802.471 306.883 801.118 306.905Q799.766 306.927 798.414 306.917Q797.061 306.907 795.709 306.864Q794.358 306.821 793.007 306.746Q791.657 306.671 790.309 306.563Q788.961 306.456 787.615 306.316Q786.27 306.176 784.929 306.004Q783.587 305.832 782.25 305.628Q780.913 305.424 779.582 305.188Q778.25 304.952 776.924 304.684Q775.599 304.416 774.28 304.116Q772.961 303.816 771.65 303.485Q770.339 303.153 769.036 302.791Q767.733 302.428 766.439 302.034Q765.145 301.64 763.861 301.215Q762.577 300.791 761.303 300.335Q760.03 299.88 758.768 299.394Q757.506 298.908 756.256 298.392Q755.005 297.876 753.768 297.33Q752.531 296.784 751.307 296.209Q750.083 295.634 748.873 295.029Q747.663 294.424 746.468 293.791Q745.273 293.158 744.094 292.496Q742.914 291.834 741.751 291.144Q740.588 290.454 739.442 289.736Q738.295 289.018 737.167 288.273Q736.038 287.528 734.927 286.756Q733.817 285.984 732.725 285.186Q731.633 284.388 730.561 283.564Q729.489 282.739 728.436 281.89Q727.384 281.04 726.353 280.165Q725.321 279.29 724.311 278.391C702.62 258.901 690.283 231.458 688.735 202.52Q688.65 201.107 688.6 199.692Q688.549 198.277 688.534 196.861Q688.519 195.445 688.539 194.03Q688.558 192.614 688.613 191.199Q688.667 189.785 688.757 188.372Q688.847 186.959 688.971 185.548Q689.095 184.138 689.255 182.731Q689.414 181.324 689.608 179.922Q689.802 178.519 690.03 177.122Q690.258 175.725 690.521 174.334Q690.784 172.942 691.081 171.558Q691.378 170.174 691.709 168.797Q692.041 167.421 692.406 166.053Q692.771 164.685 693.169 163.326Q693.568 161.968 694 160.62Q694.432 159.271 694.898 157.934Q695.363 156.597 695.861 155.272Q696.359 153.947 696.89 152.634Q697.421 151.321 697.984 150.022Q698.547 148.723 699.142 147.439Q699.737 146.154 700.363 144.884Q700.989 143.614 701.647 142.361Q702.304 141.107 702.993 139.869Q703.681 138.632 704.4 137.412Q705.118 136.193 705.867 134.991Q706.615 133.789 707.393 132.606Q708.171 131.423 708.978 130.26Q709.785 129.097 710.621 127.953Q711.456 126.81 712.319 125.688Q713.183 124.566 714.074 123.466Q714.964 122.365 715.882 121.287Q716.8 120.209 717.744 119.154C738.232 96.5584 765.296 83.2585 795.764 81.7175Z"/>
	<path fill="#8CB9E3" d="M899.758 232.673C898.279 239.538 894.154 246.61 890.428 252.496C874.214 278.105 849.691 294.768 820.247 301.349C792.196 307.619 763.119 300.795 739.174 285.506C717.215 271.486 700.198 247.349 694.726 221.816C688.607 193.261 692.82 161.143 708.88 136.375C721.805 116.444 737.787 102.687 759.537 93.1565C765.301 90.6309 770.807 88.3283 777.003 87.0516Q778.319 86.7758 779.642 86.5328Q780.964 86.2897 782.293 86.0796Q783.621 85.8695 784.954 85.6924Q786.287 85.5154 787.624 85.3715Q788.961 85.2276 790.301 85.1169Q791.642 85.0063 792.984 84.929Q794.327 84.8516 795.671 84.8077Q797.015 84.7637 798.36 84.7532Q799.704 84.7426 801.049 84.7654Q802.393 84.7883 803.737 84.8445Q805.081 84.9007 806.422 84.9903Q807.764 85.0798 809.103 85.2027Q810.443 85.3256 811.778 85.4816Q813.114 85.6377 814.445 85.8269Q815.777 86.0162 817.103 86.2384Q818.429 86.4606 819.75 86.7157Q821.07 86.9708 822.384 87.2586Q823.697 87.5464 825.003 87.8667Q826.309 88.187 827.607 88.5397Q828.905 88.8924 830.193 89.2772Q831.482 89.662 832.76 90.0786Q834.039 90.4953 835.307 90.9436Q836.575 91.3919 837.831 91.8716Q839.088 92.3512 840.332 92.8619Q841.576 93.3726 842.807 93.9141Q844.037 94.4555 845.255 95.0273Q846.472 95.5992 847.674 96.2011Q848.877 96.803 850.064 97.4346Q851.251 98.0661 852.422 98.727Q853.594 99.3879 854.748 100.078Q855.902 100.767 857.039 101.486Q858.176 102.204 859.295 102.95C876.362 114.299 896.363 138.028 900.487 158.686C902.191 160.365 903.037 161.761 903.962 163.939C906.98 181.065 907.808 196.607 905.39 213.879C904.898 217.394 904.586 221.21 903.563 224.606C903.512 227.204 903.586 229.436 901.649 231.386C901.095 231.944 900.44 232.301 899.758 232.673Z"/>
	<path fill="#010101" d="M858.077 203.477C841.436 215.182 823.255 225.969 803.88 232.399C788.159 237.616 772.183 239.248 757.04 231.553Q750.705 228.285 744.926 224.113C739.37 220.166 715.069 201.156 713.683 195.755C713.423 194.74 713.771 193.85 714.309 192.969C719.319 184.77 744.755 167.323 753.686 162.37C758.529 159.684 763.688 157.307 769.058 155.898C795.672 148.916 835.519 175.049 857.866 188.261C862.834 182.649 868.593 177.511 874.264 172.618C881.751 166.159 889.902 157.905 900.487 158.686C902.191 160.365 903.037 161.761 903.962 163.939C906.98 181.065 907.808 196.607 905.39 213.879C904.898 217.394 904.586 221.21 903.563 224.606C903.512 227.204 903.586 229.436 901.649 231.386C901.095 231.944 900.44 232.301 899.758 232.673C897.945 232.543 896.229 232.408 894.552 231.654C888.092 228.752 882.432 223.149 877.069 218.65C870.856 213.437 864.645 208.241 858.077 203.477Z"/>
	<path fill="#8CB9E3" d="M903.962 163.939C906.98 181.065 907.808 196.607 905.39 213.879C904.898 217.394 904.586 221.21 903.563 224.606C898.773 212.054 889.315 203.333 879.449 194.729C887.079 187.277 901.592 174.329 903.962 163.939Z"/>
	<path fill="#F37B3F" d="M771.672 158.555C772.641 158.537 772.539 158.342 773.295 159.066C774.047 183.747 773.479 208.616 773.5 233.318C759.574 231.572 748.408 222.912 737.835 214.338C730.42 208.285 723.098 202.108 716.244 195.418C728.984 181.511 753.496 163.217 771.672 158.555Z"/>
	<path fill="#010101" d="M743.991 187.566C745.075 187.469 746.184 187.353 747.273 187.38C749.11 187.426 751.053 188.687 752.211 190.063C753.493 191.587 754.038 193.49 753.735 195.462C753.285 198.389 751.565 199.84 749.251 201.451C748.264 201.519 747.236 201.606 746.249 201.52C744.36 201.356 742.239 200.301 740.999 198.864C739.79 197.462 739.326 195.633 739.567 193.811C739.949 190.927 741.825 189.277 743.991 187.566Z"/>
	<path fill="#F37B3F" d="M776.486 157.979C795.265 157.23 822.27 170.906 838.589 180.372C844.904 184.036 851.112 188.67 857.767 191.618C857.96 191.703 858.156 191.784 858.35 191.867C864.498 185.533 885.741 164.905 893.589 162.469C895.311 161.934 897.655 161.536 899.278 162.528C899.996 162.966 899.963 163.549 900.198 164.302C898.944 172.991 881.427 188.294 874.639 194.913C881.852 201.574 888.532 207.193 894.414 215.236C896.16 217.716 897.852 220.297 899.172 223.035C900.089 224.937 901.111 226.884 900.367 228.964L899.301 229.317C896.672 228.947 894.528 227.927 892.268 226.548C886.071 222.767 880.532 217.582 874.952 212.951Q866.659 206.111 858.076 199.639C852.419 203.014 847.126 207.081 841.537 210.597C822.612 222.503 799.466 233.809 776.754 233.746C775.934 225.64 776.534 216.884 776.525 208.72L776.486 157.979Z"/>
	<path fill="#8CB9E3" d="M118.164 549.869L281.221 549.823C315.208 549.695 349.236 549.195 383.22 549.552C389.701 556.953 395.855 564.111 406.438 564.928C413.335 565.46 420.815 564.207 427.712 563.628C434.643 563.047 441.5 562.901 448.452 562.987C456.152 572.457 464.156 581.656 471.925 591.066C475.678 595.611 480.116 600.423 483.143 605.476L346.656 605.188C346.466 605.057 346.27 604.932 346.085 604.793C340.695 600.769 339.649 587.456 331.051 587.968C329.634 588.053 327.825 588.513 326.938 589.701C325.974 590.991 326.073 592.619 326.427 594.098C327.377 598.068 330.069 601.759 331.688 605.497C328.835 605.485 326.162 605.274 323.342 604.84C319.737 599.592 316.153 588.962 310.398 585.933C309.038 585.218 307.65 585.112 306.21 585.633C304.701 586.179 302.955 587.721 302.549 589.287C301.476 593.434 307.593 601.258 309.554 604.994C302.079 604.824 294.579 604.267 288.267 609.143C284.235 612.257 281.204 617.733 280.88 622.881C280.69 625.893 282.393 630.177 283.59 632.936C289.19 645.836 295.867 658.502 302.062 671.132L344.851 756.745L362.443 792.723C366.843 801.748 370.935 813.003 377.686 820.503Q378.119 820.992 378.576 821.46Q379.033 821.927 379.512 822.371Q379.991 822.815 380.492 823.236Q380.993 823.656 381.513 824.05Q382.034 824.445 382.574 824.814Q383.113 825.183 383.67 825.524Q384.227 825.866 384.801 826.18Q385.374 826.493 385.962 826.778Q386.55 827.063 387.152 827.319Q387.753 827.575 388.366 827.801Q388.979 828.026 389.603 828.221Q390.227 828.417 390.859 828.581Q391.492 828.745 392.132 828.878Q392.772 829.011 393.417 829.112Q394.063 829.213 394.713 829.282Q395.363 829.351 396.015 829.388C405.261 829.876 414.623 829.588 423.886 829.574L471.433 829.477L610.729 829.482L721.718 829.614L757.54 829.653C764.512 829.655 771.654 829.947 778.601 829.351C783.431 828.937 787.956 827.128 791.523 823.793C795.752 819.838 797.735 813.962 797.709 808.248C797.688 803.715 795.986 799.528 794.039 795.508C788.101 783.253 780.532 771.445 773.834 759.565C765.562 744.893 757.744 729.849 749.717 715.03C733.029 684.221 717.872 652.516 700.916 621.871C699.202 618.773 697.146 615.738 694.567 613.29C684.166 603.414 670.048 605.722 656.912 605.969C660.364 600.516 663.821 595.085 666.73 589.315C673.099 576.678 678.043 562.865 683.574 549.816C708.851 550.628 734.343 549.978 759.648 549.991L900.585 549.983C900.141 566.783 900.098 583.664 899.867 600.475C868.434 598.199 835.617 597.975 805.165 607.269C797.789 609.52 789.513 612.5 783.644 617.701C779.986 620.944 778.505 623.655 778.206 628.475C777.881 631.587 778.506 632.963 780.187 635.581C782.477 642.636 793.734 656.661 798.259 663.668L814.444 689.199C816.8 692.876 818.939 696.812 821.597 700.276C823.475 702.724 825.564 704.663 828.298 706.126C841.938 713.424 884.87 711.631 900.859 708.806C901.374 744.369 900.538 779.925 900.903 815.493C901.021 826.998 900.596 838.613 901.293 850.097C897.418 840.077 892.783 830.577 888.415 820.78C883.936 810.732 879.716 800.555 875.382 790.444L860.669 756.179C856.887 747.274 853.308 738.265 848.83 729.675C847.908 727.907 846.982 725.818 845.004 725.009C843.198 724.27 841.41 724.388 839.643 725.19C837.613 726.111 835.903 727.916 835.248 730.063C834.787 731.577 834.841 733.276 835.33 734.777C837.314 740.87 840.615 746.938 843.08 752.907C848.48 765.983 853.673 779.178 859.363 792.13C862.4 799.044 865.924 805.761 868.867 812.706L888.45 858.457C890.867 864.207 893.51 873.054 896.524 878.151C897.453 879.723 899.02 880.702 900.525 881.668C900.552 902.015 897.897 918.266 883.045 933.309C869.983 946.541 856.954 950.97 838.738 950.981L380.16 950.808L239.183 950.973L199.55 950.937C190.976 950.938 182.112 951.399 173.602 950.316C161.053 948.72 148.897 942.397 140.011 933.445C120.608 913.899 122.562 894.805 122.463 869.594C122.406 855.314 122.374 840.845 121.624 826.59C117.873 826.618 105.436 827.568 102.618 826.172C112.485 825.204 123.181 826.223 133.11 826.341L185.872 826.519C198.704 826.566 212.453 827.74 224.752 823.481C235.882 819.628 244.489 811.911 249.529 801.254C252.682 794.586 255.535 778.177 253.09 771.414L253.537 769.054C253.098 763.419 253.431 757.518 253.436 751.854L253.377 713.43C253.327 706.335 253.575 699.053 252.933 691.988C253.39 689.586 254.068 687.312 252.792 685.06C252.999 683.521 253.089 681.983 253.111 680.43Q253.118 679.746 253.091 679.063Q253.064 678.38 253.003 677.699Q252.942 677.018 252.846 676.34Q252.751 675.663 252.621 674.992Q252.492 674.32 252.329 673.656Q252.166 672.992 251.97 672.337Q251.774 671.682 251.545 671.037Q251.316 670.393 251.055 669.761Q250.794 669.129 250.502 668.511Q250.21 667.893 249.887 667.29Q249.564 666.687 249.211 666.101Q248.858 665.516 248.476 664.948Q248.094 664.381 247.684 663.834Q247.274 663.286 246.837 662.76Q246.4 662.234 245.937 661.731Q245.475 661.228 244.987 660.748C238.125 653.97 229.983 652.36 220.653 652.571C217.884 661.409 216.449 670.945 214.519 680.01C213.162 686.381 211.24 692.778 210.235 699.195C204.707 699.822 198.865 699.501 193.305 699.415Q184.988 699.49 176.671 699.384L174.879 699.413C169.7 699.686 164.439 699.502 159.25 699.503C159.82 691.173 161.883 682.821 163.54 674.659C165.012 667.41 166.234 660.115 167.748 652.874C161.759 652.307 155.549 652.593 149.53 652.595L118.477 652.63Q118.897 618.165 118.634 583.698C118.614 573.665 119.596 559.303 118.164 549.869Z"/>
	<path fill="#FEFEFE" d="M804.075 725.01C805.673 724.937 807.477 724.891 808.994 725.488C810.957 726.261 812.009 727.634 812.965 729.427C820.336 743.25 826.912 761.744 833.278 776.467L860.545 839.739C864.325 848.446 868.401 857.029 872.056 865.79C873.54 869.347 877.071 875.94 875.309 879.757C874.247 882.055 872.321 883.174 870.067 884.08C869.292 884.056 868.511 884.048 867.743 883.927Q867.319 883.864 866.904 883.757Q866.489 883.65 866.087 883.5Q865.685 883.351 865.301 883.161Q864.917 882.97 864.554 882.741Q864.192 882.511 863.856 882.246Q863.519 881.98 863.212 881.681Q862.905 881.381 862.631 881.052Q862.357 880.722 862.118 880.366C858.199 874.609 855.55 866.753 852.815 860.354L838.65 827.327L813.783 770.255C808.752 758.709 803.381 747.087 799.01 735.28C798.418 733.681 797.937 732.215 798.435 730.521C799.252 727.741 801.69 726.313 804.075 725.01Z"/>
	<path fill="#FEFEFE" d="M182.682 574.917C187.383 574.873 192.312 574.554 196.986 574.963C198.312 575.08 198.533 575.017 199.34 576.014L200.248 575.477L201.749 575.874L202.092 575.229C205.023 574.757 215.371 574.238 217.661 575.872C217.708 575.905 217.753 575.941 217.799 575.975C218.468 575.457 219.404 575.525 220.24 575.427C225.415 576.087 230.822 575.822 236.036 575.816C233.385 590.466 230.199 604.977 227.274 619.572C225.065 630.593 223.201 641.614 220.653 652.571C217.884 661.409 216.449 670.945 214.519 680.01C213.162 686.381 211.24 692.778 210.235 699.195C204.707 699.822 198.865 699.501 193.305 699.415Q184.988 699.49 176.671 699.384L174.879 699.413C169.7 699.686 164.439 699.502 159.25 699.503C159.82 691.173 161.883 682.821 163.54 674.659C165.012 667.41 166.234 660.115 167.748 652.874C172.714 626.947 178.589 600.98 182.682 574.917Z"/>
	<path fill="#4D67AF" d="M199.34 576.014L200.248 575.477L201.749 575.874C192.472 616.83 185.504 658.325 176.671 699.384L174.879 699.413L199.34 576.014Z"/>
	<path fill="#FEFEFE" d="M182.682 574.917C187.383 574.873 192.312 574.554 196.986 574.963C198.312 575.08 198.533 575.017 199.34 576.014L174.879 699.413C169.7 699.686 164.439 699.502 159.25 699.503C159.82 691.173 161.883 682.821 163.54 674.659C165.012 667.41 166.234 660.115 167.748 652.874C172.714 626.947 178.589 600.98 182.682 574.917Z"/>
	<path fill="#FEFEFE" d="M217.799 575.975C218.468 575.457 219.404 575.525 220.24 575.427C225.415 576.087 230.822 575.822 236.036 575.816C233.385 590.466 230.199 604.977 227.274 619.572C225.065 630.593 223.201 641.614 220.653 652.571C217.884 661.409 216.449 670.945 214.519 680.01C213.162 686.381 211.24 692.778 210.235 699.195C204.707 699.822 198.865 699.501 193.305 699.415Q200.159 666.44 206.441 633.352C210.692 614.349 214.094 595.095 217.799 575.975Z"/>
	<path fill="#4D67AF" d="M217.799 575.975C218.468 575.457 219.404 575.525 220.24 575.427C216.554 594.504 213.371 613.985 208.809 632.845C204.47 654.86 199.139 676.917 195.764 699.09C200.489 699.078 205.554 698.681 210.235 699.195C204.707 699.822 198.865 699.501 193.305 699.415Q200.159 666.44 206.441 633.352C210.692 614.349 214.094 595.095 217.799 575.975Z"/>
	<path fill="#010101" d="M384.91 252.201C391.144 246.41 397.837 241.114 404.191 235.454C414.551 226.224 424.65 216.583 434.594 206.904C446.677 195.142 458.148 182.737 470.108 170.844C476.971 164.02 483.738 156.557 492.006 151.427C501.318 145.648 512.22 143.096 523.144 143.533C537.297 144.099 549.917 150.004 559.491 160.428C570.516 172.432 574.35 186.701 573.63 202.757Q573.566 204.135 573.436 205.508Q573.305 206.882 573.109 208.247Q572.912 209.613 572.651 210.967Q572.389 212.322 572.062 213.662Q571.735 215.002 571.344 216.325Q570.953 217.648 570.499 218.95Q570.044 220.253 569.528 221.532Q569.011 222.811 568.434 224.064Q567.856 225.317 567.219 226.54Q566.582 227.764 565.886 228.955Q565.191 230.147 564.439 231.303Q563.687 232.46 562.88 233.579Q562.073 234.698 561.213 235.776Q560.353 236.855 559.442 237.891Q558.532 238.927 557.572 239.918Q556.612 240.909 555.606 241.853C553.856 243.465 551.884 244.902 549.939 246.266C551.038 247.936 552.172 249.592 553.218 251.296C587.421 251.804 614.192 247.54 640.361 274.62C647.987 282.512 653.422 292.7 659.313 301.925L688.944 348.77L717.89 393.672C723.764 402.68 730.296 411.781 735.417 421.218C736.778 423.725 737.652 426.254 737.58 429.14C737.481 433.142 711.387 487.691 708.024 495.086C700.377 511.902 692.45 528.851 685.685 546.043L875.307 546.123L932.175 546.129C941.906 546.118 951.726 545.765 961.444 546.118C963.098 546.178 964.572 546.191 966.069 546.974C966.392 548.25 966.287 548.022 965.767 549.106C965.161 549.506 964.631 549.769 963.897 549.854C957.441 550.597 950.148 549.99 943.606 549.998L900.585 549.983L759.648 549.991C734.343 549.978 708.851 550.628 683.574 549.816C678.043 562.865 673.099 576.678 666.73 589.315C663.821 595.085 660.364 600.516 656.912 605.969C670.048 605.722 684.166 603.414 694.567 613.29C697.146 615.738 699.202 618.773 700.916 621.871C717.872 652.516 733.029 684.221 749.717 715.03C757.744 729.849 765.562 744.893 773.834 759.565C780.532 771.445 788.101 783.253 794.039 795.508C795.986 799.528 797.688 803.715 797.709 808.248C797.735 813.962 795.752 819.838 791.523 823.793C787.956 827.128 783.431 828.937 778.601 829.351C771.654 829.947 764.512 829.655 757.54 829.653L721.718 829.614L610.729 829.482L471.433 829.477L423.886 829.574C414.623 829.588 405.261 829.876 396.015 829.388Q395.363 829.351 394.713 829.282Q394.063 829.213 393.417 829.112Q392.772 829.011 392.132 828.878Q391.492 828.745 390.859 828.581Q390.227 828.417 389.603 828.221Q388.979 828.026 388.366 827.801Q387.753 827.575 387.152 827.319Q386.55 827.063 385.962 826.778Q385.374 826.493 384.801 826.18Q384.227 825.866 383.67 825.524Q383.113 825.183 382.574 824.814Q382.034 824.445 381.513 824.05Q380.993 823.656 380.492 823.235Q379.991 822.815 379.512 822.371Q379.033 821.927 378.576 821.46Q378.119 820.992 377.686 820.503C370.935 813.003 366.843 801.748 362.443 792.723L344.851 756.745L302.062 671.132C295.867 658.502 289.19 645.836 283.59 632.936C282.393 630.177 280.69 625.893 280.88 622.881C281.204 617.733 284.235 612.257 288.267 609.143C294.579 604.267 302.079 604.824 309.554 604.994C307.593 601.258 301.476 593.434 302.549 589.287C302.955 587.721 304.701 586.179 306.21 585.633C307.65 585.112 309.038 585.218 310.398 585.933C316.153 588.962 319.737 599.592 323.342 604.84C326.162 605.274 328.835 605.485 331.688 605.497C330.069 601.759 327.377 598.068 326.427 594.098C326.073 592.619 325.974 590.991 326.938 589.701C327.825 588.513 329.634 588.053 331.051 587.968C339.649 587.456 340.695 600.769 346.085 604.793C346.27 604.932 346.466 605.057 346.656 605.188L483.143 605.476C480.116 600.423 475.678 595.611 471.925 591.066C464.156 581.656 456.152 572.457 448.452 562.987C441.5 562.901 434.643 563.047 427.712 563.628C420.815 564.207 413.335 565.46 406.438 564.928C395.855 564.111 389.701 556.953 383.22 549.552C349.236 549.195 315.208 549.695 281.221 549.823L118.164 549.869C117.722 548.548 117.62 548.287 117.9 546.938C119.032 546.047 120.508 546.128 121.891 546.085C141.816 545.473 161.975 546.18 181.92 546.213L307.146 546.271C325.27 546.213 343.457 546.483 361.573 546.055C362.961 542.486 364.299 538.887 365.921 535.417C353.937 525.586 341.196 516.578 328.799 507.273L280.737 470.63Q269.633 462.245 258.691 453.649C254.195 450.124 249.202 446.671 245.396 442.388C242.736 439.394 241.61 436.655 241.272 432.634C240.967 429.005 241.564 425.353 243.302 422.138C247.363 414.628 252.974 407.574 257.949 400.635L282.648 366.2Q301.297 339.848 320.392 313.817C326.234 305.794 331.524 297.128 338.092 289.693C352.242 273.679 369.502 264.237 390.001 259.028L384.91 252.201Z"/>
	<path fill="#FEFEFE" d="M550.32 695.905C550.876 696.957 551.021 698.532 551.149 699.695C551.326 701.296 551.383 702.886 550.209 704.16C549.651 704.765 547.986 704.663 547.166 704.743L546.735 703.962C547.488 701.146 549.029 698.509 550.32 695.905Z"/>
	<path fill="#FEFEFE" d="M544.171 668.248C547.101 669.318 549.489 670.797 552.626 671.401C552.592 676.247 551.789 681.124 551.195 685.928L550.878 686.711C550.185 685.911 549.704 680.82 549.29 679.505C548.051 675.563 546.119 671.874 544.171 668.248Z"/>
	<path fill="#FEFEFE" d="M599.807 606.534L600.507 606.551C603.193 608.456 606.646 618.391 608.117 621.767C598.854 617.233 591.226 615.085 580.898 616.332C576.454 617.422 572.167 619.13 567.928 620.833C576.885 613.429 588.731 609.561 599.807 606.534Z"/>
	<path fill="#FEFEFE" d="M548.472 608.622C546.829 616.16 546.349 623.666 545.859 631.342C544.646 631.189 529.03 611.732 526.429 608.892C533.773 608.562 541.122 608.619 548.472 608.622Z"/>
	<path fill="#FEFEFE" d="M393.402 367.886C393.911 371.564 382.759 410.068 381.04 416.969C379.245 424.177 377.728 431.465 376.164 438.727Q371.551 434.567 366.767 430.604Q362.678 427.479 358.741 424.165C361.475 419.14 364.758 414.274 367.738 409.379C376.197 395.487 385.007 381.814 393.402 367.886Z"/>
	<path fill="#FEFEFE" d="M596.8 364.892C600.238 368.052 603.184 373.888 605.838 377.825Q617.742 395.421 628.968 413.458C633.426 420.561 637.542 428.077 642.536 434.804C638.719 444.218 634.413 453.401 630.716 462.875Q628.495 468.361 626.127 473.784C620.287 454.98 616.235 435.505 610.921 416.526L601.591 384.259C599.82 378.054 597.455 371.287 596.8 364.892Z"/>
	<path fill="#FEFEFE" d="M695.806 710.7C695.938 710.686 696.07 710.664 696.203 710.657C705.416 710.155 716.257 711.428 723.509 717.664C728.01 721.535 730.514 726.815 730.841 732.728C731.173 738.729 729.626 744.238 725.471 748.669C718.934 755.639 709.732 758.272 700.463 758.601C690.905 758.682 681.73 757.17 673.918 751.246C669.309 747.751 665.661 742.887 664.947 737.013C664.306 731.738 666.182 726.567 669.497 722.494C675.873 714.662 686.15 711.625 695.806 710.7Z"/>
	<path fill="#010101" d="M692.659 719.615C698.214 719.159 704.884 720.268 709.83 722.884C713.378 724.761 716.48 727.753 717.625 731.689Q717.786 732.222 717.89 732.769Q717.995 733.316 718.042 733.871Q718.089 734.426 718.079 734.983Q718.068 735.54 718 736.093Q717.932 736.646 717.807 737.188Q717.681 737.731 717.5 738.258Q717.32 738.784 717.085 739.29Q716.851 739.795 716.565 740.273C713.966 744.705 709.226 747.055 704.484 748.438C697.838 749.597 690.708 748.904 684.952 745.132C681.662 742.975 678.979 739.775 678.197 735.847Q678.071 735.237 678.009 734.617Q677.947 733.997 677.949 733.374Q677.951 732.751 678.016 732.132Q678.082 731.512 678.211 730.903Q678.341 730.293 678.532 729.7Q678.723 729.107 678.974 728.537Q679.224 727.967 679.533 727.425Q679.841 726.884 680.203 726.377C683.222 722.1 687.755 720.499 692.659 719.615Z"/>
	<path fill="#FFC396" d="M690.687 722.595C695.991 722.23 701.226 722.49 706.203 724.53C709.82 726.012 713.317 728.553 714.794 732.305C715.58 734.301 715.614 736.403 714.618 738.328C712.731 741.974 708.164 744.18 704.451 745.353C699.692 746.107 695.156 746.307 690.495 744.711C686.718 743.417 683.11 740.919 681.36 737.23C680.354 735.11 680.087 732.762 680.975 730.555C682.637 726.426 686.773 724.13 690.687 722.595Z"/>
	<path fill="#FEFEFE" d="M477.994 708.211C486.929 708.444 496.154 710.077 503.453 715.582C509.094 719.836 514.104 726.844 514.861 733.972Q514.916 734.449 514.947 734.929Q514.977 735.408 514.983 735.889Q514.989 736.369 514.971 736.849Q514.952 737.329 514.909 737.808Q514.866 738.286 514.798 738.762Q514.73 739.238 514.638 739.709Q514.547 740.181 514.431 740.647Q514.315 741.113 514.175 741.573Q514.035 742.033 513.872 742.485Q513.709 742.937 513.523 743.379Q513.337 743.823 513.129 744.255Q512.921 744.688 512.69 745.11Q512.46 745.532 512.208 745.941Q511.957 746.35 511.685 746.746Q511.413 747.142 511.12 747.524Q510.828 747.905 510.517 748.271C504.044 755.835 494.898 757.211 485.591 757.916C475.265 757.873 464.222 757.501 455.756 750.764C451.028 747.002 448.364 741.852 447.875 735.84C447.38 729.747 448.789 723.86 452.872 719.187C459.159 711.992 468.73 708.875 477.994 708.211Z"/>
	<path fill="#010101" d="M477.5 719.212C483.602 719.4 489.497 719.813 494.744 723.344C498.321 725.752 501.111 729.487 501.816 733.798Q501.919 734.394 501.959 734.997Q502 735.601 501.977 736.205Q501.954 736.809 501.869 737.408Q501.783 738.006 501.636 738.593Q501.488 739.179 501.28 739.747Q501.072 740.315 500.806 740.858Q500.54 741.401 500.219 741.913Q499.898 742.426 499.525 742.902C495.986 747.396 491.228 748.291 485.909 748.93C479.564 749.053 472.667 748.558 467.42 744.6C464 742.02 461.632 738.22 461.137 733.933C460.745 730.547 461.673 727.221 463.912 724.632C467.499 720.482 472.331 719.563 477.5 719.212Z"/>
	<path fill="#FFC396" d="M474.651 722.102C480.849 721.619 487.477 721.713 492.909 725.13C496.08 727.126 498.687 730.389 499.431 734.113C499.89 736.408 499.505 738.662 498.183 740.607C495.895 743.975 492.766 745.116 488.969 745.937C482.868 746.667 475.454 746.471 470.102 743.181C467.079 741.323 464.789 738.304 464.007 734.822C463.406 732.147 463.826 729.396 465.445 727.151C467.754 723.95 470.937 722.824 474.651 722.102Z"/>
	<path fill="#FEFEFE" d="M624.643 708.707C633.512 708.735 643.287 710.23 650.543 715.699C655.745 719.621 659.129 725.039 659.867 731.559Q659.933 732.098 659.971 732.639Q660.009 733.18 660.019 733.722Q660.03 734.264 660.012 734.807Q659.994 735.349 659.949 735.889Q659.903 736.43 659.83 736.967Q659.757 737.505 659.656 738.038Q659.556 738.571 659.428 739.098Q659.3 739.625 659.145 740.145Q658.99 740.665 658.809 741.176Q658.627 741.687 658.42 742.189Q658.213 742.69 657.98 743.18Q657.747 743.67 657.49 744.147Q657.232 744.624 656.95 745.088Q656.668 745.551 656.363 746Q656.058 746.448 655.73 746.88Q655.402 747.312 655.052 747.727C648.296 755.787 637.513 757.617 627.624 758.313C617.891 758.215 607.2 757.105 599.163 751.05C595.052 747.952 592.504 743.859 591.971 738.707C591.299 732.208 592.91 725.149 597.186 720.113C603.865 712.247 614.793 709.519 624.643 708.707Z"/>
	<path fill="#010101" d="M616.518 719.007C622.999 718.818 632.593 720.272 638.616 722.732C641.737 724.007 644.747 726.284 645.935 729.549C647.117 732.796 646.379 736.342 644.855 739.343C642.205 744.557 638.408 746.982 633.04 748.639C628.626 749.365 624.14 749.706 619.684 749.154C614.462 748.507 609.317 746.54 606.099 742.178C604.143 739.528 603.177 736.229 603.83 732.96C605.063 726.793 611.515 722.182 616.518 719.007Z"/>
	<path fill="#FFC396" d="M617.119 722.03C622.709 721.476 631.691 722.648 636.853 724.896C639.712 726.141 642.198 728.179 643.264 731.194Q643.429 731.654 643.544 732.129Q643.66 732.604 643.724 733.088Q643.789 733.573 643.801 734.061Q643.814 734.55 643.775 735.037Q643.735 735.524 643.645 736.005Q643.554 736.485 643.413 736.953Q643.271 737.421 643.082 737.871Q642.892 738.321 642.655 738.749C640.647 742.461 636.97 744.689 633.078 745.886C628.156 746.951 622.162 747.03 617.237 745.937C613.469 745.101 609.753 743.154 607.738 739.739C606.509 737.657 606.135 735.202 606.78 732.864C608.101 728.08 613.057 724.464 617.119 722.03Z"/>
	<path fill="#FEFEFE" d="M548.58 707.655C548.789 707.629 548.997 707.6 549.206 707.576C558.267 706.545 569.552 709.459 576.719 715.16C581.985 719.349 586.027 725.58 586.623 732.379C587.141 738.279 584.91 744.054 581.061 748.481C574.971 755.485 566.549 757.929 557.622 758.726C549.228 760.235 538.253 758.405 531.062 753.773C525.736 750.343 521.204 745.047 519.878 738.741C518.533 732.345 520.334 725.154 524.093 719.872C529.805 711.843 539.354 709.142 548.58 707.655Z"/>
	<path fill="#010101" d="M548.223 718.685C554.686 718.264 561.652 718.328 567.23 722.102C570.538 724.34 573.034 727.685 573.777 731.653Q573.905 732.348 573.963 733.052Q574.02 733.757 574.006 734.463Q573.992 735.17 573.906 735.871Q573.82 736.573 573.664 737.262Q573.507 737.951 573.282 738.621Q573.057 739.291 572.764 739.935Q572.472 740.578 572.117 741.189Q571.761 741.799 571.345 742.371C567.864 747.173 562.952 748.555 557.43 749.468C550.98 749.76 545.344 749.553 539.811 745.725C535.559 742.784 532.015 737.998 531.19 732.817C530.72 729.868 531.252 726.92 533.115 724.533C536.731 719.9 542.81 719.254 548.223 718.685Z"/>
	<path fill="#FFC396" d="M546.359 721.138C552.169 720.754 558.141 720.385 563.517 723.089C566.937 724.81 569.792 727.783 570.81 731.535C571.614 734.493 571.379 737.594 569.751 740.231C567.499 743.876 563.973 745.468 559.971 746.377C553.794 747.354 547.826 747.267 542.359 743.834C538.528 741.429 534.918 737.175 533.961 732.665C533.478 730.39 533.75 728.161 535.129 726.24C537.721 722.633 542.254 721.736 546.359 721.138Z"/>
	<path fill="#FEFEFE" d="M581.63 619.604Q582.547 619.51 583.466 619.455Q584.386 619.4 585.307 619.385Q586.228 619.37 587.149 619.395Q588.07 619.42 588.989 619.484Q589.908 619.549 590.824 619.653Q591.739 619.757 592.649 619.901Q593.559 620.045 594.462 620.227Q595.365 620.41 596.259 620.632Q597.154 620.853 598.037 621.113Q598.921 621.373 599.793 621.671Q600.665 621.969 601.523 622.305Q602.381 622.64 603.224 623.012Q604.067 623.384 604.893 623.792Q605.719 624.2 606.527 624.644Q607.334 625.087 608.122 625.565Q608.91 626.043 609.676 626.554C616.363 630.947 621.344 639.215 622.822 647.054C623.911 652.833 622.804 658.828 619.335 663.63C614.522 670.292 607.307 672.547 599.627 673.853C591.622 674.815 583.758 674.312 576.075 671.739C569.798 669.637 562.86 665.669 559.958 659.466C559.037 657.497 558.607 655.361 558.792 653.191C559.358 646.562 565.096 632.669 567.573 625.821C571.804 622.314 576.404 620.849 581.63 619.604Z"/>
	<path fill="#010101" d="M583.46 629.616C589.539 629.653 595.227 630.027 600.45 633.59C605.155 636.799 608.831 642.099 609.81 647.746C610.421 651.271 609.895 654.878 607.782 657.827C604.776 662.021 600.016 663.958 595.125 664.878C589.727 665.274 584.412 664.237 579.685 661.546C574.78 658.753 570.479 654.065 569.012 648.521C568.023 644.781 568.438 640.776 570.498 637.465C573.412 632.783 578.346 630.827 583.46 629.616Z"/>
	<path fill="#FFC396" d="M581.529 633.11C586.081 632.633 590.643 632.562 595.005 634.157C599.965 635.97 604.25 639.743 606.426 644.587C607.792 647.629 608.218 650.995 606.828 654.111C604.99 658.23 601.084 660.507 597.052 662.04C592.977 663.155 588.251 662.503 584.355 661.033C579.373 659.153 574.703 655.534 572.538 650.559C571.175 647.426 570.875 643.859 572.284 640.686C574.068 636.672 577.697 634.729 581.529 633.11Z"/>
	<path fill="#FEFEFE" d="M513.137 654.7C520.575 654.686 527.465 657.081 533.466 661.435Q534.14 661.926 534.79 662.449Q535.439 662.972 536.061 663.527Q536.683 664.082 537.277 664.667Q537.871 665.252 538.436 665.866Q539 666.48 539.533 667.122Q540.066 667.763 540.566 668.43Q541.067 669.097 541.534 669.788Q542 670.479 542.432 671.192Q542.864 671.905 543.26 672.639Q543.656 673.373 544.015 674.125Q544.374 674.878 544.695 675.648Q545.016 676.417 545.299 677.202Q545.581 677.986 545.824 678.784Q546.068 679.581 546.271 680.39Q546.474 681.199 546.637 682.016Q546.8 682.834 546.922 683.659C547.594 687.98 547.885 696.184 545.117 699.692C541.223 704.629 521.928 712.314 515.598 712.891C505.554 712.542 497.028 708.679 487.464 706.188C483.515 701.828 481.17 696.588 480.508 690.755C479.556 682.384 482.417 673.936 487.723 667.474C494.306 659.459 503.011 655.691 513.137 654.7Z"/>
	<path fill="#010101" d="M511.304 667.602C514.63 667.428 517.728 668.015 520.778 669.385Q521.6 669.749 522.382 670.193Q523.164 670.637 523.898 671.157Q524.632 671.677 525.311 672.266Q525.99 672.856 526.607 673.51Q527.224 674.165 527.773 674.877Q528.322 675.589 528.798 676.352Q529.273 677.116 529.671 677.922Q530.068 678.729 530.384 679.571Q530.536 679.982 530.667 680.401Q530.798 680.82 530.906 681.244Q531.015 681.669 531.101 682.099Q531.187 682.53 531.251 682.964Q531.314 683.398 531.355 683.834Q531.396 684.271 531.414 684.709Q531.431 685.147 531.426 685.586Q531.421 686.025 531.393 686.462Q531.364 686.9 531.313 687.336Q531.262 687.771 531.188 688.204Q531.114 688.636 531.018 689.064Q530.921 689.492 530.803 689.914Q530.684 690.336 530.543 690.752Q530.402 691.167 530.24 691.574Q530.078 691.982 529.895 692.38Q529.711 692.779 529.507 693.167C526.719 698.459 522.263 700.583 516.807 702.157C512.817 702.611 509.16 702.339 505.557 700.415Q504.828 700.02 504.141 699.555Q503.453 699.091 502.815 698.561Q502.176 698.032 501.592 697.443Q501.008 696.854 500.485 696.211Q499.961 695.568 499.502 694.876Q499.044 694.185 498.655 693.453Q498.266 692.72 497.95 691.953Q497.634 691.186 497.395 690.392C495.982 685.732 496.81 680.896 499.197 676.703C501.96 671.848 505.976 669.006 511.304 667.602Z"/>
	<path fill="#FFC396" d="M511.699 670.098Q512.668 670.051 513.636 670.114Q514.603 670.177 515.558 670.349Q516.512 670.521 517.441 670.801Q518.37 671.08 519.261 671.463C523.177 673.109 526.437 676.295 527.954 680.286Q528.209 680.952 528.396 681.639Q528.584 682.327 528.702 683.03Q528.82 683.733 528.868 684.444Q528.915 685.155 528.892 685.868Q528.869 686.58 528.775 687.286Q528.681 687.993 528.517 688.687Q528.354 689.38 528.122 690.054Q527.89 690.728 527.592 691.376C525.533 695.823 521.763 698.044 517.298 699.584C513.512 700.014 510.238 700.031 506.808 698.136C503.408 696.258 501.008 693.011 500.001 689.278C498.902 685.207 499.739 680.81 501.902 677.234C504.131 673.55 507.542 671.077 511.699 670.098Z"/>
	<path fill="#FEFEFE" d="M654.04 655.163C655.896 654.93 657.882 654.904 659.752 654.875C668.372 654.743 676.706 657.129 682.931 663.351C694.544 674.959 695.614 691.579 695.589 706.985C685.955 708.56 679.75 712.255 670.851 714.612C654.24 714.888 650.893 709.083 636.577 705.745C636.189 704.539 634.628 702.957 633.856 701.827C631.095 697.784 629.553 693.022 628.866 688.198C627.752 680.372 629.503 672.589 634.309 666.232C639.312 659.615 645.956 656.312 654.04 655.163Z"/>
	<path fill="#010101" d="M659 666.601C663.367 666.375 667.009 666.344 670.862 668.808C674.7 671.262 677.058 675.354 678.015 679.737C679.075 684.589 678.511 689.903 675.719 694.098C672.802 698.481 668.79 700.388 663.833 701.471C659.524 701.553 655.628 700.976 651.892 698.678C648.07 696.327 645.251 692.58 644.286 688.173C643.243 683.412 644.318 677.963 646.996 673.904C649.926 669.465 653.988 667.64 659 666.601Z"/>
	<path fill="#FFC396" d="M661.338 669.202C664.006 669.164 666.619 669.422 668.967 670.797C672.346 672.777 674.492 675.936 675.379 679.728C676.411 684.139 675.777 689.203 673.188 692.984C670.255 697.269 666.571 698.373 661.733 699.135C658.964 698.752 656.191 698.117 653.778 696.656C650.298 694.55 647.709 691.297 646.878 687.274C646.035 683.195 647.113 678.751 649.549 675.399C652.513 671.32 656.512 669.848 661.338 669.202Z"/>
	<path fill="#FEFEFE" d="M439.944 490.29C444.343 491.481 454.887 501.219 457.763 505.062C460.482 508.694 475.934 547.54 474.873 550.912C474.46 552.225 473.058 553.303 471.814 553.764C469.853 554.49 467.436 554.298 465.602 553.299C463.544 552.178 463.134 550.633 462.611 548.484C461.51 543.958 449.628 530.64 445.557 527.784C444.171 526.811 443.008 526.252 441.291 526.541C440.207 527.489 440.119 527.82 439.637 529.197C440.46 534.931 448.423 542.416 452.922 545.924C454.993 547.538 457.538 548.824 459.356 550.711C459.577 550.941 459.788 551.18 460.004 551.415C459.495 553.415 458.879 555.836 457.302 557.268C455.7 558.723 453.984 559.23 451.893 559.56C446.07 560.48 439.881 559.812 433.982 560.104C425.295 560.534 416.407 561.9 407.722 561.501C397.001 561.009 392.536 554.801 385.876 547.492C404.172 528.704 421.637 509.095 439.944 490.29Z"/>
	<path fill="#F37B3F" d="M476.018 553.912C481.327 560.413 487.412 566.329 493.228 572.376C503.542 583.099 514.154 594.095 523.674 605.522C524.581 606.639 525.462 607.829 526.429 608.892C529.03 611.732 544.646 631.189 545.859 631.342Q545.094 638.257 544.133 645.148C546.275 650.031 551.847 662.103 552.579 667.069C552.088 667.537 551.995 667.857 551.259 667.85C546.35 667.8 540.085 662.944 536.627 659.8C532.991 657.576 529.416 655.405 525.53 653.631C523.315 651.087 520.567 648.901 518.275 646.358Q501.742 627.899 485.566 609.127C485.263 607.659 484.088 606.588 483.143 605.476C480.116 600.423 475.678 595.611 471.925 591.066C464.156 581.656 456.152 572.457 448.452 562.987C452.553 562.496 455.61 561.99 459.19 559.734C460.373 558.265 461.292 555.984 463.033 555.314L465.009 556.486C466.173 556.662 467.351 556.85 468.527 556.913C471.701 557.083 473.688 555.922 476.018 553.912Z"/>
	<path fill="#FEFEFE" d="M499.959 609.161C503.509 608.625 507.092 608.508 510.674 608.328C511.256 608.424 511.5 608.417 512.061 608.777C514.746 610.501 540.381 640.539 544.133 645.148C546.275 650.031 551.847 662.103 552.579 667.069C552.088 667.537 551.995 667.857 551.259 667.85C546.35 667.8 540.085 662.944 536.627 659.8C535.588 656.413 531.993 652.661 529.823 649.81C524.016 642.178 502.544 615.925 499.959 609.161Z"/>
	<path fill="#F37B3F" d="M476.018 553.912C481.327 560.413 487.412 566.329 493.228 572.376C503.542 583.099 514.154 594.095 523.674 605.522C524.581 606.639 525.462 607.829 526.429 608.892C529.03 611.732 544.646 631.189 545.859 631.342Q545.094 638.257 544.133 645.148C540.381 640.539 514.746 610.501 512.061 608.777C511.5 608.417 511.256 608.424 510.674 608.328C507.092 608.508 503.509 608.625 499.959 609.161C498.822 608.263 498.043 606.708 497.254 605.482C485.557 588.96 471.149 575.481 459.19 559.734C460.373 558.265 461.292 555.984 463.033 555.314L465.009 556.486C466.173 556.662 467.351 556.85 468.527 556.913C471.701 557.083 473.688 555.922 476.018 553.912Z"/>
	<path fill="#8CB9E3" d="M459.19 559.734C460.373 558.265 461.292 555.984 463.033 555.314L465.009 556.486C470.336 566.941 489.618 584.997 498.723 594.293C501.99 597.629 506.152 601.195 508.622 605.126C509.71 606.073 510.531 606.521 510.989 607.907L510.674 608.328C507.092 608.508 503.509 608.625 499.959 609.161C498.822 608.263 498.043 606.708 497.254 605.482C485.557 588.96 471.149 575.481 459.19 559.734Z"/>
	<path fill="#010101" d="M508.622 605.126C509.71 606.073 510.531 606.521 510.989 607.907L510.674 608.328C507.092 608.508 503.509 608.625 499.959 609.161C498.822 608.263 498.043 606.708 497.254 605.482L508.622 605.126Z"/>
	<path fill="#8CB9E3" d="M476.018 553.912C476.192 553.667 476.369 553.423 476.54 553.176C477.293 552.088 477.759 550.908 478.247 549.687C484.381 548.363 502.641 549.298 509.722 549.305C537.018 549.329 564.359 549.712 591.651 549.312C578.087 561.332 553.514 587.586 548.916 605.034C540.504 605.077 532.073 605.009 523.674 605.522C514.154 594.095 503.542 583.099 493.228 572.376C487.412 566.329 481.327 560.413 476.018 553.912Z"/>
	<path fill="#FEFEFE" d="M504.777 228.178C515.854 226.918 527.291 230.214 536.307 236.678Q537.186 237.304 538.033 237.972Q538.88 238.64 539.693 239.349Q540.507 240.057 541.284 240.805Q542.062 241.553 542.802 242.338Q543.542 243.123 544.243 243.943Q544.943 244.763 545.603 245.617Q546.263 246.471 546.88 247.355Q547.497 248.24 548.07 249.154Q548.643 250.069 549.17 251.01Q549.698 251.951 550.179 252.916Q550.66 253.882 551.093 254.87Q551.525 255.858 551.909 256.867Q552.293 257.875 552.627 258.901Q552.961 259.926 553.245 260.967Q553.528 262.008 553.761 263.062Q553.993 264.115 554.173 265.179C556.149 277.361 552.767 290.276 545.472 300.174C537.945 310.385 527.554 316.036 515.123 317.939C503.177 319.047 491.888 316.391 482.154 309.148Q481.255 308.489 480.391 307.785Q479.527 307.082 478.699 306.336Q477.871 305.59 477.081 304.803Q476.291 304.017 475.542 303.192Q474.793 302.367 474.086 301.505Q473.379 300.644 472.716 299.748Q472.054 298.852 471.436 297.924Q470.819 296.996 470.249 296.038Q469.68 295.08 469.158 294.095Q468.637 293.11 468.166 292.1Q467.695 291.09 467.275 290.058Q466.855 289.025 466.487 287.973Q466.12 286.921 465.805 285.852Q465.491 284.783 465.23 283.699Q464.97 282.616 464.764 281.521Q464.558 280.425 464.407 279.321C462.749 267.19 465.963 255.513 473.392 245.817C481.337 235.446 491.96 229.942 504.777 228.178Z"/>
	<path fill="#FEFEFE" d="M554.863 255.068L562.617 254.813L562.668 257.774C562.836 270.207 564.048 347.114 562.058 352.58C559.479 359.662 552.03 367.273 546.833 372.561Q545.562 373.851 544.23 375.077Q542.898 376.304 541.508 377.464Q540.117 378.624 538.672 379.714Q537.227 380.805 535.73 381.824Q534.233 382.843 532.688 383.788Q531.144 384.732 529.555 385.601Q527.966 386.469 526.336 387.259Q524.707 388.048 523.041 388.758Q521.375 389.467 519.676 390.094Q517.978 390.721 516.25 391.265Q514.523 391.809 512.771 392.267Q511.02 392.726 509.248 393.099Q507.476 393.471 505.688 393.757Q503.9 394.043 502.1 394.241Q500.3 394.44 498.493 394.55Q496.686 394.66 494.875 394.682C476.349 394.739 459.318 387.631 446.254 374.502C439.652 367.868 431.725 358.254 429.564 348.928C428.922 346.156 429.164 342.962 429.168 340.125Q429.059 320.752 429.467 301.383C433.775 295.95 438.601 290.889 442.959 285.478C448.937 278.056 454.528 269.521 461.488 263.035C460.335 271.065 460.308 278.418 462.474 286.304C465.967 299.026 474.574 309.243 486.063 315.616Q487.107 316.203 488.178 316.737Q489.249 317.27 490.346 317.751Q491.442 318.231 492.562 318.656Q493.681 319.081 494.82 319.449Q495.958 319.818 497.114 320.13Q498.27 320.442 499.44 320.696Q500.609 320.95 501.79 321.145Q502.971 321.341 504.161 321.477Q505.35 321.614 506.544 321.691Q507.739 321.769 508.936 321.787Q510.133 321.804 511.329 321.763Q512.526 321.721 513.718 321.62Q514.911 321.519 516.098 321.359Q517.284 321.199 518.461 320.98Q519.638 320.761 520.802 320.484Q521.967 320.207 523.116 319.872C535.652 316.177 545.817 307.751 552.022 296.27C559.289 282.825 559.089 269.407 554.863 255.068Z"/>
	<path fill="#8CB9E3" d="M517.834 146.699C520.573 146.456 523.434 146.633 526.163 146.94Q527.36 147.07 528.549 147.26Q529.739 147.449 530.917 147.698Q532.095 147.946 533.26 148.253Q534.424 148.56 535.572 148.924Q536.72 149.288 537.848 149.709Q538.977 150.13 540.083 150.606Q541.189 151.082 542.27 151.613Q543.351 152.144 544.404 152.728Q545.457 153.311 546.48 153.947Q547.503 154.582 548.493 155.268Q549.483 155.953 550.438 156.687Q551.393 157.421 552.31 158.201Q553.227 158.982 554.104 159.807Q554.982 160.632 555.817 161.499Q556.652 162.367 557.443 163.275Q558.234 164.183 558.979 165.129C568.333 176.836 571.542 191.351 569.864 206.092C568.127 221.35 560.262 234.016 548.317 243.453Q544.554 238.868 539.989 235.081C530.166 227.092 516.927 223.391 504.366 224.744Q503.089 224.886 501.822 225.095Q500.554 225.304 499.299 225.578Q498.044 225.853 496.805 226.193Q495.566 226.533 494.347 226.937Q493.128 227.341 491.931 227.808Q490.734 228.276 489.564 228.805Q488.393 229.334 487.252 229.924Q486.11 230.513 485.001 231.162Q483.892 231.81 482.819 232.516Q481.745 233.222 480.71 233.982Q479.675 234.743 478.681 235.557Q477.687 236.371 476.737 237.235Q475.787 238.1 474.883 239.013Q473.979 239.926 473.125 240.885Q472.27 241.844 471.466 242.847Q470.663 243.849 469.913 244.892C467.138 248.813 465.081 253.263 462.121 257.054C455.591 265.418 448.253 273.247 441.6 281.546L424.432 301.962C416.215 289.606 406.76 277.964 398.22 265.796C395.218 261.52 391.926 257.274 389.471 252.654C413.491 233.836 435.134 211.404 456.518 189.704C467.086 178.98 481.796 161.951 494.193 154.053C501.168 149.608 509.704 147.549 517.834 146.699Z"/>
	<path fill="#FEFEFE" d="M596.022 255.932C602.155 256.299 607.838 257.579 613.526 259.914C622.849 263.743 631.994 269.735 638.636 277.364C646.14 285.984 651.749 296.285 657.822 305.933L686.134 350.618C697.872 368.923 709.992 387.028 721.487 405.482C725.573 412.042 730.817 418.978 733.698 426.113C733.913 426.646 734.703 428.237 734.65 428.748C734.43 430.87 705.809 491.456 703.003 497.693Q682.91 542.314 663.915 587.414C662.215 586.626 660.564 585.741 658.905 584.871C639.335 571.259 618.843 558.252 598.407 545.973C605.389 531.563 610.843 516.538 617.303 501.904L642.211 444.156C646.334 434.592 650.987 425.078 654.787 415.4C655.298 414.098 655.795 413.061 655.601 411.637C654.632 410.931 654.672 410.953 653.477 411.067C650.995 413.01 645.748 427.801 644.126 431.347Q627.899 404.811 610.492 379.034C606 372.377 601.729 364.749 596.353 358.792C595.61 345.925 596.264 332.774 596.275 319.871L596.022 255.932Z"/>
	<path fill="#FEFEFE" d="M391.148 262.102C392.913 262.701 394.875 266.041 395.964 267.54L396.061 328.056C396.081 334.441 397.128 351.994 395.56 357.325C393.314 364.96 379.889 383.473 375.089 391.03Q365.442 406.52 356.04 422.16C350.779 418.578 335.97 405.877 331.135 404.542L330.171 405.125L330.241 406.09C333.764 411.337 351.716 423.116 357.654 427.626Q397.266 458.236 437.718 487.726C430.487 496.029 422.284 503.804 414.733 511.856C404.393 522.882 394.464 534.321 383.524 544.767C381.737 543.568 380.044 542.163 378.329 540.861C348.793 517.811 318.671 495.476 288.934 472.679C276.229 462.939 262.174 453.257 250.262 442.676C248.325 440.955 246.015 438.983 245.283 436.422C243.943 431.734 244.183 426.748 246.709 422.537C250.561 416.116 255.201 410.111 259.568 404.037L283.046 371.479Q301.786 344.989 320.95 318.804C329.044 307.575 336.673 294.544 347.03 285.26C360.081 273.562 374.278 266.429 391.148 262.102Z"/>
	<path fill="#FEFEFE" d="M597.36 549.414C612.318 558.137 626.829 567.741 641.379 577.124C648.261 581.562 655.041 586.573 662.341 590.27C658.115 598.289 653.086 605.81 648.425 613.573C644.918 619.413 641.742 625.453 638.285 631.326C639.224 625.902 643.776 610.99 642.756 606.491C642.533 605.506 642.7 605.882 641.701 605.268L640.54 605.714C638.497 609.356 634.506 633.023 635.727 637.107C636.042 638.161 635.793 637.772 636.829 638.349C639.794 637.017 652.306 613.632 654.901 609.366L655.429 609.338C667.226 608.74 682.677 606.748 691.942 615.499C698.373 621.573 707.554 642.37 712.212 651.217C722.747 671.23 733.023 691.429 743.786 711.315C752.674 727.736 761.338 744.338 770.483 760.613C777.341 772.819 784.83 784.836 791.102 797.353C792.813 800.769 794.218 804.087 794.206 807.983C794.191 813.236 792.289 818.306 788.362 821.865C784.945 824.962 781.23 825.887 776.736 826.16C767.424 826.727 757.843 826.249 748.505 826.262L690.004 826.175L545.252 826.122L446.332 826.291L414.32 826.43C408.333 826.448 402.078 826.784 396.121 826.249C389.749 825.676 382.928 821.845 378.922 816.891C374.035 810.849 370.851 801.62 367.409 794.566C362.472 784.446 357.259 774.438 352.226 764.362L304.899 669.347C298.708 656.711 291.882 644.125 286.25 631.25C284.99 628.369 283.906 625.144 284.329 621.964C284.879 617.827 287.531 613.893 290.856 611.445C296.666 607.169 304.319 608.048 311.007 609.149C310.773 607.707 310.1 606.342 309.554 604.994C307.593 601.258 301.476 593.434 302.549 589.287C302.955 587.721 304.701 586.179 306.21 585.633C307.65 585.112 309.038 585.218 310.398 585.933C316.153 588.962 319.737 599.592 323.342 604.84C326.162 605.274 328.835 605.485 331.688 605.497C330.069 601.759 327.377 598.068 326.427 594.098C326.073 592.619 325.974 590.991 326.938 589.701C327.825 588.513 329.634 588.053 331.051 587.968C339.649 587.456 340.695 600.769 346.085 604.793C346.27 604.932 346.466 605.057 346.656 605.188L483.143 605.476C484.088 606.588 485.263 607.659 485.566 609.127Q501.742 627.899 518.275 646.358C520.567 648.901 523.315 651.087 525.53 653.631C515.423 651.223 506.563 651 497.144 655.941C488.228 660.618 481.314 668.485 478.425 678.187C475.447 688.189 477.889 696.288 482.714 705.139C473.356 705.022 464.05 706.572 456.216 712.022C450.409 716.063 446.404 721.832 445.315 728.908C443.901 738.099 445.125 753.041 445.195 762.751C445.26 771.674 444.257 783.389 445.68 792.005C446.133 794.749 446.982 797.147 448.725 799.347C453.328 805.157 462.11 808.208 469.271 809.167C480.436 810.661 498.853 810.806 508.058 803.549C514.958 798.109 516.148 790.504 517.23 782.362C517.74 788.797 517.866 795.415 522.081 800.719C526.064 805.732 532.936 807.915 539.08 808.712C550.997 810.259 571.466 810.876 581.082 803.11C587.393 798.014 588.198 789.942 589.091 782.449C589.431 788.95 589.918 795.827 594.34 801.02C599.509 807.091 608.369 808.871 615.959 809.306C628.454 810.022 645.457 811.383 655.396 802.21C661.853 796.252 661.289 788.31 661.397 780.286Q661.534 773.683 661.762 767.083L661.565 768.578L661.868 768.29C662.559 778.171 660.191 790.676 666.216 799.206C670.333 805.034 677.418 808.006 684.286 809.025C696.099 810.779 716.063 810.778 725.943 803.106C730.086 799.889 731.664 795.962 732.235 790.853C733.172 782.474 732.48 773.498 732.734 765.035C733.005 755.973 734.668 737.782 733.713 729.796Q733.622 729.013 733.473 728.239Q733.325 727.464 733.12 726.703Q732.915 725.941 732.654 725.197Q732.393 724.453 732.079 723.73Q731.764 723.007 731.397 722.309Q731.03 721.611 730.613 720.942Q730.195 720.273 729.73 719.637Q729.264 719 728.753 718.4C721.101 709.298 709.507 707.789 698.399 706.979C698.472 697.662 698.707 688.83 695.946 679.82C692.79 669.526 687.278 660.782 677.541 655.702C668.738 651.109 656.717 650.346 647.278 653.339C638.448 656.139 632.603 662.383 628.459 670.43C628.54 657.232 626.726 643.784 619.481 632.443C617.682 629.627 615.114 627.337 613.456 624.424C609.345 617.203 606.299 609.205 602.405 601.829C593.438 603.994 583.895 607.907 575.616 611.983C572.49 613.522 569.493 615.295 567.405 618.168C563.592 623.417 556.319 651.267 553.511 659.506C551.628 655.791 549.953 652.224 549.097 648.119C547.042 638.262 549.302 622.377 550.986 612.204C551.867 606.886 553.087 601.724 555.561 596.902C562.263 583.837 585.616 557.76 597.36 549.414Z"/>
	<path fill="#010101" d="M346.656 605.188L483.143 605.476C484.088 606.588 485.263 607.659 485.566 609.127C464.02 607.654 441.892 608.746 420.285 608.817C396.556 608.894 372.726 608.152 349.016 608.638L348.492 608.419C347.511 607.306 347.135 606.553 346.656 605.188Z"/>
	<path fill="#F37B3F" d="M309.554 604.994C307.593 601.258 301.476 593.434 302.549 589.287C302.955 587.721 304.701 586.179 306.21 585.633C307.65 585.112 309.038 585.218 310.398 585.933C316.153 588.962 319.737 599.592 323.342 604.84C323.862 606.198 324.431 607.41 324.552 608.871C331.124 623.042 339.199 636.49 346.653 650.206L379.085 710.493C385.322 721.883 392.659 733.035 397.985 744.879C398.97 747.071 399.878 749.6 399.762 752.038C399.682 753.715 399.169 754.721 397.954 755.899C396.672 756.37 395.751 756.494 394.447 756.055C391.199 754.96 388.831 752.135 386.998 749.368C384.073 744.952 381.893 740.082 379.29 735.474C370.809 720.461 363.004 705.186 354.756 690.061L323.185 631.17C319.257 623.804 314.474 616.74 311.007 609.149C310.773 607.707 310.1 606.342 309.554 604.994Z"/>
	<path fill="#F37B3F" d="M331.688 605.497C330.069 601.759 327.377 598.068 326.427 594.098C326.073 592.619 325.974 590.991 326.938 589.701C327.825 588.513 329.634 588.053 331.051 587.968C339.649 587.456 340.695 600.769 346.085 604.793C346.27 604.932 346.466 605.057 346.656 605.188C347.135 606.553 347.511 607.306 348.492 608.419L349.016 608.638C348.476 610.292 349.273 611.415 350.047 612.919C361.015 634.236 374.069 654.551 386.477 675.045C394.736 688.687 402.433 702.677 410.675 716.326C416.531 726.024 423.44 735.553 428.726 745.55C429.41 746.843 429.521 747.706 429.135 749.094C428.621 750.939 427.888 752.507 426.379 753.726C425.119 754.155 424.236 754.175 423.021 753.62C420.381 752.414 418.372 749.812 416.742 747.495C411.995 740.744 407.825 733.398 403.474 726.378Q387.357 700.129 371.659 673.628L347.522 633.015C342.784 625.06 337.396 617.07 333.36 608.74C330.92 608.825 328.454 608.995 326.015 608.924L324.552 608.871C324.431 607.41 323.862 606.198 323.342 604.84C326.162 605.274 328.835 605.485 331.688 605.497Z"/>
	<path fill="#010101" d="M323.342 604.84C326.162 605.274 328.835 605.485 331.688 605.497C332.624 606.483 333.022 606.582 333.242 607.969C331.247 609.078 328.275 608.514 326.015 608.924L324.552 608.871C324.431 607.41 323.862 606.198 323.342 604.84Z"/>
</svg>
