<?xml version="1.0" encoding="utf-8" ?>
<svg xmlns="http://www.w3.org/2000/svg" xmlns:xlink="http://www.w3.org/1999/xlink" width="1024" height="1024">
	<path fill="#FEFEFE" d="M0 0L1024 0L1024 1024L0 1024L0 0Z"/>
	<path fill="#6179BE" d="M787.265 575.878L788.733 577.843C784.661 585.017 780.141 591.304 773.964 596.823C770.741 599.702 767.158 602.437 764.185 605.564C762.216 607.634 760.087 611.53 757.869 613.097C756.44 612.718 755.906 613.345 754.637 613.987C760.408 604.704 769.455 598.488 776.839 590.678C781.137 586.132 784.223 581.326 787.265 575.878Z"/>
	<path fill="#6179BE" d="M754.637 613.987C755.906 613.345 756.44 612.718 757.869 613.097C749.471 626.159 744.011 640.574 742.402 656.094C741.808 661.827 741.997 668.082 740.422 673.643L739.898 673.847L739.797 673.265L740.432 673.18C740.498 672.713 739.973 672.217 739.711 671.833C738.33 653.117 743.405 629.301 754.637 613.987Z"/>
	<path fill="#6179BE" d="M134.784 796.314C134.994 796.525 135.207 796.734 135.415 796.949C136.227 797.786 136.681 798.639 137.215 799.667C137.48 798.772 137.567 798.114 137.534 797.18L141.913 806.893C149.37 820.992 157.745 833.894 167.986 846.14C171.948 850.876 181.569 858.672 184.087 863.516C184.093 864.182 184.307 865.501 183.909 866C166.654 848.472 151.219 830.833 140.357 808.514C138.389 804.505 136.295 800.522 134.784 796.314Z"/>
	<path fill="#6179BE" d="M178.542 592.233C181.822 612.768 172.798 637.437 160.867 653.874C156.735 659.567 151.562 664.487 147.519 670.237C143.696 675.677 141.26 681.833 137.881 687.509C131.301 703.669 127.9 719.295 126.439 736.642C126.503 755.247 129.281 780.233 137.534 797.18C137.567 798.114 137.48 798.772 137.215 799.667C136.681 798.639 136.227 797.786 135.415 796.949C135.207 796.734 134.994 796.525 134.784 796.314C127.01 783.695 122.383 745.093 124.94 730.43C125.762 715.364 130.001 699.393 136.64 685.846C141.833 672.707 150.945 663.429 159.023 652.286Q161.405 648.962 163.504 645.452Q165.602 641.942 167.404 638.27Q169.206 634.599 170.698 630.792Q172.19 626.984 173.363 623.066C174.714 618.606 175.971 613.892 176.507 609.257C176.912 605.755 176.708 602.063 177.379 598.615L177.576 597.647C178.492 596.028 178.424 594.055 178.542 592.233Z"/>
	<path fill="#6179BE" d="M823.114 417.44C830.015 407.504 835.55 396.449 837.319 384.303C837.884 380.428 837.499 375.326 839.269 371.797L839.235 371.8L840.453 371.515C842.15 376.434 838.333 392.466 836.511 397.58C835.414 400.656 833.886 403.705 832.461 406.645C830.555 410.579 828.224 414.171 825.749 417.765C820.781 424.136 814.683 428.59 808.803 434.014C802.051 440.243 797.27 447.891 793.284 456.091C787.575 471.05 785.604 487.647 789.964 503.263C791.668 509.368 794.374 515.14 795.838 521.321C800.481 540.918 797.395 559.883 788.733 577.843L787.265 575.878C795.644 557.629 797.645 538.672 792.745 519.135C791.543 514.344 789.676 509.739 788.218 505.023C782.838 487.612 784.748 467.192 793.283 451.088C799.35 436.877 812.409 428.732 822.597 417.991L823.114 417.44Z"/>
	<path fill="#6179BE" d="M874.244 604.847C878.936 593.51 882.123 582.532 883.598 570.302C885.368 555.627 883.695 541.053 884.722 526.432C884.812 525.15 884.863 524.021 885.476 522.867L884.989 524.171L885.827 523.274C887.651 529.043 886.928 536.027 886.907 542.022C886.835 563.09 886.478 585.475 876.582 604.694C876.516 604.823 876.433 604.943 876.358 605.068C871.347 617.789 862.572 631.915 852.747 641.457C828.802 664.75 817.467 691.693 816.316 725.059C816.066 729.193 816.527 752.855 814.992 754.588C811.834 750.121 813.469 725.838 814.413 719.271L814.424 718.418C814.586 710.85 816.363 702.738 818.288 695.465C824.451 672.181 834.435 655.591 851.857 639.127C856.762 633.533 861.655 627.386 865.475 621C868.62 615.745 871.155 610.135 874.244 604.847Z"/>
	<path d="M617.327 797.764L617.169 795.988C618.28 794.782 619.658 794.724 621.235 794.653C633.018 794.117 645.061 794.752 656.876 794.692L745.62 794.486L826.061 794.447C838.922 794.445 852.11 793.794 864.932 794.417C867.008 794.518 868.942 794.868 870.876 795.642L871.254 796.425C868.578 798.457 861.856 797.632 858.544 797.523L689.304 797.637C665.323 797.709 641.298 797.342 617.327 797.764Z"/>
	<path d="M177.576 597.647C176.825 573.817 161.411 559.735 166.291 534.416C169.854 515.933 182.448 499.197 199.978 491.827C209.71 487.736 218.131 485.946 227.106 479.747C249.543 464.252 259.951 434.276 254.414 407.927C252.04 396.631 246.831 386.194 244.526 374.825C241.53 360.044 241.19 343.378 243.947 328.502C251.049 290.191 279.389 256.082 317.881 246.593C324.728 244.905 331.503 244.693 338.477 244.025Q340.652 243.796 342.807 243.429Q344.963 243.062 347.09 242.559Q349.218 242.055 351.309 241.416Q353.4 240.777 355.447 240.006Q357.493 239.235 359.486 238.335Q361.478 237.435 363.409 236.41Q365.341 235.384 367.202 234.238Q369.064 233.091 370.849 231.828C389.079 219.105 398.543 199.013 401.989 177.537C402.978 171.374 403.03 165.127 404.113 158.996L404.564 158.959C404.812 160.129 404.989 161.249 405.074 162.443C405.975 175.105 402.173 190.654 397.175 202.153C387.65 224.068 367.818 240.715 344.178 245.054C335.285 246.686 326.414 246.451 317.577 248.744Q315.851 249.201 314.143 249.722Q312.436 250.243 310.749 250.828Q309.062 251.413 307.399 252.061Q305.735 252.709 304.098 253.42Q302.46 254.13 300.85 254.901Q299.24 255.673 297.66 256.504Q296.08 257.336 294.532 258.226Q292.985 259.116 291.472 260.064Q289.959 261.012 288.483 262.017Q287.007 263.021 285.57 264.08Q284.132 265.139 282.736 266.251Q281.34 267.364 279.986 268.528Q278.633 269.692 277.324 270.907Q276.015 272.121 274.753 273.384Q273.491 274.646 272.277 275.956Q271.064 277.265 269.9 278.619C245.59 306.356 239.084 345.138 247.909 380.374C251.129 393.232 256.918 404.436 257.695 417.965C259.324 446.338 245.033 473.598 219.402 486.452C203.707 494.324 194.437 492.88 181.086 507.953C168.826 521.796 163.787 542.55 169.346 560.323C172.75 571.205 177.842 580.547 178.542 592.233C178.424 594.055 178.492 596.028 177.576 597.647Z"/>
	<path fill="#C74E4B" d="M576.672 358.111C580.662 357.864 584.576 358.491 588.079 360.504C592.485 363.034 595.413 367.37 596.639 372.251Q596.76 372.72 596.856 373.194Q596.953 373.668 597.025 374.147Q597.097 374.625 597.145 375.107Q597.193 375.589 597.216 376.072Q597.239 376.555 597.238 377.039Q597.236 377.523 597.21 378.007Q597.184 378.49 597.133 378.971Q597.083 379.453 597.007 379.931Q596.932 380.409 596.833 380.883Q596.733 381.356 596.61 381.824Q596.487 382.292 596.339 382.753Q596.192 383.214 596.022 383.667Q595.851 384.12 595.658 384.564Q595.465 385.008 595.249 385.441Q595.034 385.874 594.796 386.296Q594.559 386.718 594.3 387.127C591.273 391.914 587.067 394.22 581.694 395.469C576.583 395.808 572.265 395.647 567.864 392.592Q567.114 392.061 566.418 391.461Q565.722 390.86 565.088 390.195Q564.454 389.53 563.886 388.807Q563.319 388.083 562.825 387.309Q562.33 386.534 561.913 385.715Q561.495 384.896 561.159 384.041Q560.823 383.186 560.571 382.302Q560.318 381.418 560.153 380.514Q560.063 380.038 559.998 379.559Q559.932 379.079 559.89 378.597Q559.848 378.115 559.831 377.631Q559.813 377.147 559.82 376.663Q559.826 376.179 559.857 375.696Q559.888 375.213 559.942 374.732Q559.997 374.252 560.076 373.774Q560.155 373.296 560.257 372.823Q560.36 372.35 560.485 371.883Q560.611 371.416 560.761 370.955Q560.91 370.495 561.082 370.042Q561.254 369.59 561.448 369.146Q561.642 368.703 561.858 368.27Q562.075 367.837 562.312 367.415Q562.55 366.994 562.808 366.584Q563.067 366.175 563.345 365.779C566.669 361.15 571.246 359.122 576.672 358.111Z"/>
	<path d="M603.987 450.109C605.144 450.038 606.787 449.825 607.835 450.385C609.096 451.06 610.098 452.849 610.662 454.099C614.026 461.549 612.324 472.935 609.615 480.37Q609.245 481.394 608.824 482.398Q608.404 483.402 607.934 484.383Q607.463 485.365 606.945 486.322Q606.426 487.279 605.86 488.209Q605.294 489.139 604.683 490.04Q604.071 490.94 603.416 491.809Q602.76 492.678 602.061 493.513Q601.363 494.348 600.624 495.147Q599.885 495.946 599.107 496.707Q598.328 497.468 597.513 498.19Q596.698 498.911 595.848 499.591Q594.998 500.271 594.114 500.907Q593.231 501.543 592.318 502.135Q591.404 502.726 590.462 503.272Q589.519 503.817 588.551 504.314Q587.583 504.812 586.591 505.26C577.183 509.586 567.81 509.722 558.164 506.158Q556.939 505.624 555.763 504.991C552.56 503.228 547.664 500.157 546.844 496.332C546.403 494.276 547.721 491.654 548.752 489.972C557.899 475.038 586.872 454.174 603.987 450.109Z"/>
	<path fill="#F5D14A" d="M603.232 452.541L604.789 452.475L605.077 453.171C598.984 464.127 563.289 489.307 551.136 494.606C549.867 494.966 550.489 494.947 549.272 494.717C548.947 493.371 549.444 492.678 550.141 491.539C558.832 477.334 586.686 456.936 603.232 452.541Z"/>
	<path fill="#FEFEFE" d="M608.501 452.977C608.967 453.506 609.199 453.938 609.449 454.603C612.881 463.71 611.266 474.914 607.167 483.578C602.3 493.863 593.057 501.885 582.351 505.65C573.344 508.818 564.786 508.081 556.249 503.962C553.305 502.215 551.145 499.928 548.885 497.41C567.632 491.221 595.561 467.979 608.501 452.977Z"/>
	<path fill="#F5D14A" d="M617.327 797.764C641.298 797.342 665.323 797.709 689.304 797.637L858.544 797.523Q858.441 808.977 858.498 820.431C858.533 833.604 859.821 847.756 849.529 857.807C845.868 861.383 841.147 862.935 837.334 866.051L656.037 865.951C650.671 862.217 644.435 860.894 639.581 855.999Q638.911 855.32 638.288 854.598Q637.666 853.876 637.094 853.113Q636.521 852.35 636.002 851.55Q635.482 850.751 635.018 849.917Q634.554 849.084 634.148 848.222Q633.741 847.359 633.394 846.471Q633.046 845.583 632.76 844.673Q632.473 843.764 632.249 842.837C629.914 833.285 631.364 809.076 631.295 797.958C626.652 798.002 621.954 798.196 617.327 797.764Z"/>
	<path d="M382.098 393.3C381.098 384.459 382.687 376.748 388.321 369.688Q388.762 369.129 389.229 368.592Q389.697 368.056 390.192 367.543Q390.686 367.031 391.205 366.544Q391.725 366.057 392.268 365.597Q392.811 365.136 393.376 364.704Q393.941 364.271 394.528 363.867Q395.114 363.464 395.72 363.09Q396.326 362.716 396.95 362.373Q397.574 362.03 398.214 361.718Q398.854 361.407 399.509 361.128Q400.164 360.849 400.832 360.604Q401.5 360.358 402.18 360.146Q402.86 359.934 403.549 359.756Q404.238 359.579 404.936 359.436Q405.633 359.293 406.337 359.185Q407.041 359.077 407.749 359.005C415.54 358.145 423.563 360.094 429.679 365.136C435.355 369.814 438.725 376.029 440.24 383.148C447.067 382.702 453.04 383.438 458.441 388.109C463.152 392.185 465.742 398.057 465.93 404.251Q465.952 404.831 465.944 405.412Q465.935 405.993 465.897 406.572Q465.859 407.152 465.791 407.729Q465.723 408.305 465.624 408.878Q465.526 409.45 465.399 410.017Q465.271 410.583 465.115 411.143Q464.958 411.702 464.773 412.252Q464.587 412.803 464.374 413.343Q464.16 413.883 463.919 414.411Q463.677 414.939 463.409 415.454Q463.14 415.969 462.846 416.47Q462.551 416.97 462.231 417.455Q461.911 417.939 461.566 418.407Q461.221 418.874 460.852 419.323Q460.484 419.771 460.092 420.201Q459.701 420.63 459.288 421.038C454.497 425.739 448.73 427.177 442.23 427.528C444.382 429.998 446.408 432.352 447.551 435.488C449.962 442.104 455.921 481.461 455.535 488.377C455.11 495.988 450.128 504.634 444.411 509.519C442.876 510.83 441.295 511.932 439.502 512.863C439.643 515.725 439.75 518.59 440.036 521.442C454.158 520.891 467.267 522.021 478.227 532.041C485.975 539.124 490.014 548.412 490.418 558.834C490.71 566.386 490.403 574.015 490.346 581.575C490.224 597.846 489.987 614.168 490.204 630.436L553.687 630.401C564.408 630.373 579.755 629.069 590.035 631.341C594.764 632.387 599.324 635.379 602.729 638.774C608.741 644.767 611.889 652.49 611.707 660.991C611.656 663.368 611.361 665.281 610.049 667.282C608.847 668.166 607.868 668.24 606.44 668.398L606.458 668.903C610.892 670.146 620.879 669.244 625.853 669.26C647.364 669.333 669.167 668.593 690.642 669.416C689.087 680.344 683.81 689.852 674.922 696.537Q674.006 697.229 673.056 697.876Q672.107 698.522 671.127 699.12Q670.147 699.719 669.138 700.268Q668.13 700.817 667.095 701.316Q666.061 701.814 665.003 702.261Q663.945 702.708 662.866 703.102Q661.787 703.496 660.69 703.836Q659.594 704.177 658.481 704.462Q657.369 704.747 656.244 704.977Q655.119 705.208 653.983 705.382Q652.848 705.556 651.706 705.674Q650.563 705.791 649.417 705.852Q648.27 705.913 647.122 705.918Q645.973 705.922 644.826 705.87Q643.679 705.817 642.536 705.708Q641.392 705.599 640.256 705.433C628.841 703.668 617.635 697.633 610.813 688.151Q609.048 685.671 607.458 683.075C597.197 681.694 587.179 677.952 576.953 677.088C568.686 676.391 560.155 676.788 551.852 676.798C532.991 676.82 514.028 677.274 495.178 676.716C497.647 690.015 500.826 703.202 503.796 716.396Q512.729 757.014 522.683 797.394Q527.339 817.045 531.745 836.754C533.934 846.502 535.909 856.449 538.819 866.013L612.388 866.054C626.891 866.096 641.548 866.536 656.037 865.951L837.334 866.051C847.694 866.375 918.63 864.881 922.842 867.196L922.699 867.793C921.158 868.869 919.448 869.224 917.589 869.255C905.706 869.449 893.725 869.086 881.829 869.091L796.671 869.119L561.35 868.897L245.058 868.931C199.75 868.912 154.335 869.605 109.037 869.07C106.686 869.042 103.5 869.245 101.801 867.489L102.402 866.45C104.934 865.173 174.593 866.004 183.909 866C184.307 865.501 184.093 864.182 184.087 863.516C185.729 864.851 186.799 865.909 188.994 865.936C231.918 866.462 274.921 865.908 317.858 866.015L317.964 798.519C317.999 786.643 318.959 773.837 317.627 762.062C317.376 746.854 317.077 731.579 317.508 716.374Q305.709 707.07 293.717 698.015C278.199 686.09 269.03 678.451 266.753 657.604C265.986 650.582 266.795 643.003 269.497 636.443C273.369 627.043 279.708 618.845 285.123 610.299C292.292 598.984 299.188 587.466 306.257 576.083Q314.557 562.789 322.725 549.412C326.495 543.219 330.099 536.398 334.771 530.853C340.9 523.577 350.506 518.446 360.021 517.813C367.48 517.316 374.038 519.641 380.676 522.785C388.734 521.067 396.701 521.41 404.892 521.468C404.858 518.772 404.929 516.036 404.601 513.357C396.651 507.113 390.498 500.602 389.199 490.125C388.19 481.988 390.049 472.895 390.932 464.734C391.859 456.162 392.637 447.562 393.679 439.004C385.853 440.774 378.786 441.403 371.573 437.044Q371.061 436.729 370.565 436.388Q370.069 436.048 369.59 435.684Q369.112 435.319 368.652 434.932Q368.192 434.545 367.751 434.135Q367.311 433.725 366.891 433.294Q366.471 432.864 366.073 432.413Q365.675 431.962 365.3 431.492Q364.925 431.022 364.573 430.534Q364.221 430.046 363.894 429.541Q363.567 429.037 363.265 428.517Q362.963 427.996 362.687 427.462Q362.41 426.928 362.161 426.38Q361.912 425.833 361.69 425.274Q361.467 424.715 361.273 424.146Q361.079 423.577 360.913 422.999Q360.746 422.421 360.609 421.835C359.209 416.04 359.947 409.893 363.08 404.778C366.547 399.119 372.317 395.361 378.749 393.959Q380.418 393.601 382.098 393.3Z"/>
	<path fill="#F5D14A" d="M576.928 663.058C585.088 663.413 594.758 667.007 602.916 668.787C603.002 670.532 603.11 672.088 603.724 673.741C604.032 674.572 604.324 675.355 604.557 676.215C604.89 677.448 605.421 678.269 604.773 679.4L602.874 679.319Q601.163 679.057 599.46 678.747C594.08 677.749 575.609 674.703 573.165 670.148C572.588 669.071 572.702 667.761 573.044 666.63C573.674 664.552 575.128 663.917 576.928 663.058Z"/>
	<path fill="#FEFEFE" d="M435.942 514.587L436.474 514.793C436.657 515.201 436.721 515.288 436.8 515.793C437.376 519.457 436.913 530.745 436.032 534.504C435.665 536.072 434.68 537.698 433.683 538.943Q433.223 539.507 432.71 540.023Q432.197 540.538 431.636 541.001Q431.075 541.463 430.47 541.868Q429.866 542.273 429.224 542.616Q428.583 542.959 427.911 543.237Q427.238 543.515 426.542 543.725Q425.846 543.935 425.132 544.076Q424.418 544.216 423.694 544.285C418.81 544.75 415.463 543.069 411.865 539.943C405.943 533.238 407.676 522.85 407.797 514.534C418.008 517.659 425.684 517.399 435.942 514.587Z"/>
	<path fill="#FEFEFE" d="M320.666 719.186C325.327 721.304 330.08 725.852 334.227 728.975C343.346 735.84 352.503 742.596 361.499 749.626L361.396 758.821C347.765 759.322 334.036 759.02 320.394 759.016C320.133 745.84 319.894 732.338 320.666 719.186Z"/>
	<path fill="#FEFEFE" d="M458.566 525.372C465.717 527.436 471.957 530.063 477.316 535.395C481.717 539.774 484.874 545.161 486.326 551.208C488.779 561.426 487.424 574.845 487.4 585.427L487.363 640.616C485.953 638.77 480.89 614.318 479.935 610.242C477.873 601.437 476.265 592.485 473.998 583.735C472.618 578.41 470.467 573.323 469.107 567.984C465.495 553.798 462.357 539.522 458.566 525.372Z"/>
	<path fill="#F5D14A" d="M606.587 672.008C633.525 672.245 660.536 671.564 687.46 672.29C684.852 680.118 681.559 685.889 675.79 691.803C671.216 695.816 666.263 698.925 660.467 700.87Q659.454 701.208 658.425 701.494Q657.396 701.781 656.354 702.015Q655.312 702.25 654.259 702.432Q653.207 702.614 652.146 702.743Q651.086 702.872 650.021 702.947Q648.955 703.023 647.887 703.045Q646.819 703.067 645.752 703.035Q644.684 703.003 643.619 702.918Q642.555 702.833 641.495 702.694Q640.436 702.556 639.386 702.364Q638.335 702.172 637.295 701.928Q636.255 701.684 635.229 701.389Q634.203 701.093 633.192 700.746Q632.182 700.399 631.191 700.001Q630.199 699.604 629.229 699.157Q628.259 698.711 627.312 698.216C616.262 692.57 610.271 683.586 606.587 672.008Z"/>
	<path fill="#6179BE" d="M439.709 524.457L455.131 524.445C457.826 537.047 461.978 549.702 464.785 562.511Q466.567 569.671 468.459 576.802Q441.284 576.499 414.107 576.482C407.869 576.473 401.509 576.918 395.301 576.753C393.843 576.714 392.91 576.745 391.688 575.964C391.032 571.72 394.3 567.811 395.473 563.864C396.566 560.187 396.93 556.272 396.815 552.448C396.453 540.456 391.228 532.463 382.674 524.517C390.088 524.282 397.553 524.463 404.973 524.475C404.815 531.206 405.011 537 409.954 542.209Q410.258 542.53 410.578 542.836Q410.898 543.142 411.233 543.431Q411.568 543.72 411.917 543.991Q412.266 544.263 412.628 544.517Q412.991 544.77 413.366 545.005Q413.74 545.24 414.127 545.456Q414.513 545.672 414.91 545.867Q415.306 546.063 415.713 546.239Q416.119 546.414 416.533 546.569Q416.948 546.723 417.37 546.857Q417.791 546.99 418.219 547.102Q418.647 547.214 419.081 547.304Q419.514 547.394 419.951 547.462Q420.388 547.53 420.828 547.576Q421.268 547.621 421.71 547.645Q422.152 547.668 422.594 547.669C427.072 547.643 431.239 545.75 434.349 542.552C439.562 537.193 439.699 531.457 439.709 524.457Z"/>
	<path fill="#FEFEFE" d="M490.282 633.578C507.954 633.196 525.67 633.468 543.347 633.439C555.919 633.418 568.587 632.937 581.142 633.352C589.294 633.622 595.588 635.413 601.264 641.7C605.715 646.63 609.408 654.811 608.834 661.658C608.695 663.313 608.199 664.349 606.922 665.45C604.243 666.638 597.173 664.281 594.156 663.585C589.43 662.729 584.795 660.815 580.035 660.248C577.468 659.942 574.618 660.143 572.588 661.931C568.896 665.184 570.135 669.259 569.927 673.48C560.536 674.417 550.484 673.738 541.007 673.748C525.452 673.765 509.848 674.104 494.302 673.646C492.668 666.129 490.452 658.281 489.928 650.613C489.544 645.009 490.057 639.191 490.282 633.578Z"/>
	<path fill="#6179BE" d="M317.627 762.062C322.43 762.768 327.647 762.413 332.505 762.412C342.097 762.408 351.724 762.211 361.312 762.41C362.13 796.925 360.896 831.511 361.8 866.014L317.858 866.015L317.964 798.519C317.999 786.643 318.959 773.837 317.627 762.062Z"/>
	<path fill="#FEFEFE" d="M416.481 422.114C423.027 421.446 429.387 421.807 435.133 425.429C440.824 429.017 444.353 434.52 445.884 440.993C447.223 446.655 447.646 452.657 448.558 458.409C450.012 467.58 453.069 478.189 452.435 487.464Q452.314 489.167 451.981 490.842Q451.648 492.517 451.109 494.137Q450.569 495.758 449.832 497.298Q449.095 498.839 448.172 500.275C443.532 507.557 435.697 512.073 427.424 513.91Q426.036 514.114 424.635 514.199Q423.235 514.284 421.833 514.25Q420.43 514.215 419.035 514.062Q417.641 513.909 416.264 513.637Q414.888 513.366 413.539 512.979Q412.191 512.591 410.88 512.091Q409.57 511.59 408.306 510.98Q407.043 510.37 405.836 509.655C399.537 505.947 394.602 499.716 392.857 492.57C390.552 483.13 393.594 471.022 394.477 461.471C395.088 454.852 395.164 447.615 396.601 441.132C397.206 438.404 398.134 435.806 399.619 433.428C403.514 427.193 409.552 423.853 416.481 422.114Z"/>
	<path fill="#FEFEFE" d="M410.627 361.672C416.287 361.559 421.849 363.034 426.453 366.419C433.893 371.89 436.106 378.919 437.547 387.569C439.809 387.001 442.179 386.351 444.514 386.227Q445.346 386.188 446.177 386.23Q447.008 386.273 447.832 386.395Q448.655 386.518 449.463 386.72Q450.27 386.922 451.055 387.202Q451.839 387.481 452.592 387.836Q453.345 388.19 454.061 388.616Q454.776 389.042 455.447 389.535Q456.117 390.028 456.737 390.584C460.654 394.084 462.748 399.289 462.82 404.497Q462.829 404.991 462.812 405.484Q462.796 405.977 462.754 406.469Q462.712 406.961 462.646 407.45Q462.579 407.939 462.487 408.424Q462.396 408.909 462.28 409.388Q462.164 409.868 462.023 410.341Q461.883 410.814 461.718 411.28Q461.554 411.745 461.366 412.201Q461.178 412.658 460.967 413.104Q460.756 413.55 460.523 413.985Q460.29 414.42 460.034 414.842Q459.779 415.265 459.503 415.674Q459.226 416.082 458.929 416.477Q458.632 416.871 458.315 417.249Q457.999 417.628 457.663 417.99Q457.328 418.352 456.974 418.696C451.874 423.685 445.864 424.578 439.079 424.631C436.526 423.052 433.954 421.535 431.148 420.443C422.687 417.151 415.267 418.367 407.196 421.864C398.423 427.151 397.504 435.927 386.301 437.34C380.839 438.029 375.425 436.592 371.108 433.158Q370.69 432.825 370.289 432.471Q369.888 432.118 369.505 431.745Q369.121 431.373 368.757 430.982Q368.392 430.592 368.046 430.184Q367.701 429.776 367.376 429.352Q367.051 428.927 366.747 428.488Q366.442 428.048 366.16 427.594Q365.878 427.141 365.618 426.674Q365.358 426.207 365.121 425.728Q364.884 425.248 364.67 424.758Q364.457 424.268 364.267 423.768Q364.078 423.269 363.913 422.76Q363.749 422.252 363.609 421.736Q363.469 421.22 363.354 420.698Q363.24 420.176 363.15 419.649Q363.061 419.122 362.998 418.591Q362.944 418.111 362.914 417.628Q362.884 417.146 362.879 416.662Q362.873 416.179 362.892 415.696Q362.911 415.213 362.954 414.732Q362.997 414.25 363.065 413.772Q363.132 413.293 363.224 412.818Q363.316 412.344 363.431 411.874Q363.546 411.405 363.685 410.942Q363.824 410.479 363.986 410.023Q364.148 409.568 364.333 409.121Q364.518 408.675 364.725 408.238Q364.933 407.801 365.162 407.376Q365.391 406.95 365.641 406.536Q365.891 406.123 366.161 405.722Q366.432 405.322 366.723 404.935Q367.013 404.549 367.323 404.178C372.112 398.403 378.705 397.028 385.757 396.32Q385.407 394.033 385.118 391.738C384.218 384.303 386.136 377.134 390.887 371.245C396.07 364.822 402.798 362.629 410.627 361.672Z"/>
	<path fill="#FEFEFE" d="M358.764 521.101C363.415 520.695 367.784 520.852 372.24 522.352C380.187 525.026 386.541 531.002 390.196 538.487C393.372 544.99 395.463 555.786 392.873 562.749C391.762 565.736 389.831 568.465 388.937 571.523C388.323 573.624 387.452 577.244 388.478 579.201L391.359 580.021C391.5 580.249 391.717 580.444 391.783 580.704C392.533 583.638 363.898 657.659 361.323 670.252C354.356 665.502 343.516 658.151 337.769 652.335C339.966 647.647 343.089 643.448 345.785 639.043C349.48 633.005 352.939 626.821 356.653 620.795C358.266 618.176 360.359 615.693 361.7 612.925C362.251 611.787 362.447 611.105 362.074 609.875L361.016 609.482C360.66 609.63 360.251 609.688 359.947 609.926C359.704 610.117 335.265 649.517 333.192 652.952C342.155 660.451 352.019 667.319 361.416 674.289L361.655 683.809L361.455 745.278C355.644 741.453 350.211 736.966 344.625 732.812Q326.088 719.289 308.065 705.087C300.158 698.964 284.843 688.658 278.914 681.238C274.614 675.857 271.988 668.522 270.635 661.841C269.135 654.439 269.244 645.768 271.825 638.601C274.665 630.715 280.255 623.272 284.781 616.242Q292.442 604.329 299.977 592.336C311.356 574.203 321.854 555.26 333.813 537.514C339.998 528.336 347.987 523.234 358.764 521.101Z"/>
	<path fill="#FEFEFE" d="M417.435 579.746L470.062 579.87C473.254 591.313 475.315 603.152 477.91 614.75L493.273 683.4L535.337 865.991L482.75 865.936L365.172 866.007C364.234 847.592 364.916 828.906 364.844 810.457Q364.371 762.304 364.738 714.149Q364.853 699.828 364.742 685.507C364.72 679.3 364.221 672.649 365.42 666.54C367.212 657.416 372.16 646.565 375.346 637.616L395.623 579.98C402.878 579.725 410.175 579.812 417.435 579.746Z"/>
</svg>
