<?xml version="1.0" encoding="utf-8" ?>
<svg xmlns="http://www.w3.org/2000/svg" xmlns:xlink="http://www.w3.org/1999/xlink" width="1024" height="1024">
	<path fill="#FEFEFE" d="M0 0L1024 0L1024 1024L0 1024L0 0Z"/>
	<path fill="#3A7569" d="M913.392 553.757C923.094 553.046 931.872 553.539 941.153 556.66C934.043 568.67 927.856 581.2 920.711 593.159C915.851 584.039 911.757 574.503 907.121 565.263C905.615 562.26 904.163 558.625 902.109 555.991C905.666 554.68 909.67 554.437 913.392 553.757Z"/>
	<path fill="#3A7569" d="M942.933 557.476C944.138 557.931 945.3 558.501 946.452 559.075C961.213 566.428 968.95 577.126 974.048 592.51C966.739 593.32 959.284 593.423 951.939 593.931C942.016 594.138 932.101 594.939 922.17 595.162C929.214 582.707 936.468 570.238 942.933 557.476Z"/>
	<path fill="#E16349" d="M809.901 337.122C815.563 336.509 821.065 336.974 826.099 339.887C831.542 343.037 835.145 348.397 836.525 354.481Q836.66 355.059 836.767 355.642Q836.874 356.226 836.951 356.814Q837.029 357.403 837.077 357.994Q837.126 358.585 837.145 359.178Q837.165 359.771 837.155 360.365Q837.145 360.958 837.106 361.55Q837.067 362.142 836.998 362.732Q836.93 363.321 836.832 363.906Q836.735 364.492 836.609 365.071Q836.483 365.651 836.329 366.224Q836.174 366.797 835.992 367.362Q835.809 367.926 835.599 368.481Q835.389 369.036 835.151 369.58Q834.914 370.124 834.65 370.655Q834.386 371.187 834.097 371.704Q833.807 372.222 833.492 372.725C829.833 378.462 824.396 381.33 817.972 382.89C811.996 383.789 806.044 382.943 800.918 379.584C795.658 376.137 792.13 370.382 790.905 364.262C789.701 358.238 790.877 351.544 794.388 346.462C798.102 341.087 803.672 338.39 809.901 337.122Z"/>
	<path fill="#3A7569" d="M828.887 752.613C843.28 754.64 858.198 754.969 872.709 756.17C865.188 760.599 857.53 765.497 855.217 774.563C853.378 781.769 855.807 789.803 857.456 796.853C882.565 796.171 907.777 796.559 932.896 796.616C948.136 796.651 963.904 795.828 979.075 797.045C978.443 804.802 977.983 813.109 975.528 820.523L974.515 820.83C975.052 813.333 977.018 805.955 977.645 798.421Q878.323 796.948 778.992 797.526L828.887 752.613Z"/>
	<path fill="#E16349" d="M275.421 198.621C282.964 197.889 290.263 198.764 296.613 203.243C302.823 207.623 307.531 214.704 308.819 222.216Q308.943 222.955 309.031 223.7Q309.119 224.444 309.17 225.192Q309.221 225.94 309.236 226.69Q309.251 227.439 309.228 228.189Q309.206 228.938 309.147 229.685Q309.089 230.433 308.993 231.176Q308.898 231.92 308.766 232.658Q308.635 233.396 308.467 234.127Q308.299 234.858 308.096 235.579Q307.893 236.301 307.655 237.012Q307.416 237.722 307.143 238.421Q306.871 239.119 306.564 239.803Q306.257 240.487 305.917 241.155Q305.578 241.824 305.205 242.474Q304.833 243.125 304.43 243.757Q304.026 244.389 303.592 245C298.611 251.897 292.003 255.57 283.646 256.873C276.533 257.301 270.064 256.585 263.888 252.633C257.405 248.484 253.08 241.719 251.457 234.26Q251.295 233.518 251.171 232.769Q251.047 232.02 250.96 231.266Q250.874 230.512 250.826 229.754Q250.778 228.997 250.768 228.238Q250.758 227.479 250.787 226.72Q250.815 225.961 250.882 225.205Q250.949 224.449 251.054 223.697Q251.159 222.945 251.301 222.2Q251.444 221.454 251.624 220.716Q251.804 219.979 252.021 219.252Q252.238 218.524 252.491 217.808Q252.745 217.093 253.034 216.391Q253.323 215.689 253.648 215.003Q253.972 214.316 254.331 213.647Q254.689 212.978 255.081 212.328Q255.473 211.678 255.897 211.048C260.642 203.906 267.25 200.339 275.421 198.621Z"/>
	<path fill="#E16349" d="M825.743 248.172C832.264 247.912 838.462 249.357 843.953 253.025C850.605 257.467 855.457 265.02 856.929 272.873Q857.066 273.608 857.165 274.35Q857.265 275.091 857.327 275.836Q857.39 276.581 857.415 277.329Q857.44 278.076 857.428 278.824Q857.416 279.572 857.366 280.318Q857.317 281.064 857.23 281.807Q857.143 282.55 857.019 283.288Q856.895 284.025 856.735 284.756Q856.574 285.486 856.378 286.208Q856.181 286.929 855.948 287.64Q855.715 288.351 855.448 289.049Q855.18 289.747 854.877 290.431Q854.575 291.115 854.238 291.784Q853.902 292.452 853.533 293.102Q853.164 293.752 852.763 294.384Q852.361 295.015 851.929 295.625C846.602 303.192 839.025 306.86 830.118 308.401C823.061 308.861 815.496 306.72 809.889 302.413Q809.275 301.942 808.686 301.441Q808.097 300.939 807.535 300.409Q806.972 299.878 806.437 299.32Q805.902 298.762 805.396 298.177Q804.889 297.592 804.413 296.982Q803.938 296.373 803.493 295.74Q803.049 295.107 802.637 294.452Q802.225 293.797 801.847 293.123Q801.469 292.448 801.125 291.755Q800.782 291.062 800.474 290.353Q800.166 289.643 799.895 288.919Q799.623 288.195 799.389 287.458Q799.154 286.721 798.957 285.973Q798.76 285.225 798.601 284.468Q798.443 283.711 798.322 282.947Q798.202 282.183 798.121 281.414C797.27 273.404 799.238 265.457 804.368 259.13C809.87 252.345 817.225 249.06 825.743 248.172Z"/>
	<path fill="#3A7569" d="M878.864 686.138C892.347 688.428 908.319 688.846 922.22 690.394C922.214 704.181 920.316 718.243 911.978 729.638C904.627 739.684 887.565 751.672 875.296 753.607C860.718 752.068 845.959 751.565 831.335 750.419C844.462 739.492 858.55 728.243 867.015 713.129C871.786 704.611 875.218 695.185 878.864 686.138Z"/>
	<path fill="#3A7569" d="M765.304 699.046C769.094 694.458 785.315 672.833 788.763 671.076L801.808 733.292C804.187 744.522 807.08 755.738 808.908 767.069C801.395 774.094 793.467 780.652 785.961 787.678C784.134 789.388 778.3 795.977 776.784 796.774C773.068 798.726 764.03 797.38 759.708 797.425Q761.437 761.072 763.569 724.741C763.941 718.101 763.625 704.615 765.304 699.046Z"/>
	<path fill="#3A7569" d="M853.227 639.406C880.686 612.104 852.809 601.236 873.903 575.197C879.397 568.415 891.628 557.91 900.589 556.928C906.39 569.927 913.023 582.636 919.107 595.518Q903.66 625.067 889.84 655.412C885.332 665.287 881.652 676.177 876.516 685.696C868.117 670.688 862.151 654.068 853.227 639.406Z"/>
	<path fill="#3A7569" d="M971.385 595.214C972.615 595.018 973.2 594.673 974.326 595.309C975.535 598.689 975.632 602.484 975.543 606.043C975.177 620.506 970.341 636.108 956.461 642.977C948.521 646.907 940.455 649.375 933.921 655.697C924.423 664.888 922.494 675.353 922.212 688.044C911.1 687.385 899.989 685.807 888.879 684.932Q884.443 684.452 879.998 684.054C886.236 667.978 893.851 652.466 901.294 636.924C907.612 623.732 913.724 610.36 920.936 597.626C937.726 597.6 954.64 596.42 971.385 595.214Z"/>
	<path fill="#3A7569" d="M791.252 670.823C791.256 669.878 791.253 669.132 791.663 668.256C796.616 657.665 827.697 651.665 838.359 647.591C842.903 645.855 846.775 642.763 851.212 640.862Q859.458 656.509 867.225 672.4C869.779 677.524 872.158 682.945 875.085 687.861C864.928 717.56 856.103 725.381 833.321 745.469C825.946 751.972 818.733 758.965 811 765.027Q805.004 734.571 798.329 704.256C795.927 693.301 792.607 681.945 791.252 670.823Z"/>
	<path fill="#E16349" d="M759.097 821.163C778.79 821.611 798.582 821.217 818.285 821.154L910.667 820.884L951.464 820.584C959.033 820.539 967 820.082 974.515 820.83L975.528 820.523C962.481 861.201 945.373 890.331 911.144 916.791C902.751 923.279 893.296 928.406 885.006 934.934C871.244 935.532 857.156 934.913 843.366 934.894Q797.916 934.698 752.465 934.975C753.296 912.87 754.942 890.627 756.314 868.542C757.295 852.752 757.9 836.939 759.097 821.163Z"/>
	<path d="M606.287 350.835C607.404 346.013 608.612 341.525 611.359 337.341Q611.789 336.692 612.251 336.066Q612.713 335.439 613.205 334.836Q613.697 334.234 614.219 333.656Q614.74 333.078 615.289 332.526Q615.838 331.975 616.414 331.451Q616.99 330.927 617.591 330.432Q618.192 329.938 618.816 329.473Q619.441 329.009 620.087 328.576Q620.734 328.142 621.401 327.742Q622.069 327.341 622.755 326.974Q623.441 326.607 624.145 326.274Q624.848 325.941 625.567 325.643Q626.286 325.345 627.019 325.083Q627.752 324.821 628.497 324.596Q629.242 324.37 629.997 324.182Q630.752 323.993 631.516 323.842Q632.265 323.683 633.021 323.563Q633.777 323.442 634.539 323.36Q635.3 323.278 636.065 323.235Q636.829 323.192 637.595 323.188Q638.361 323.183 639.125 323.218Q639.891 323.252 640.653 323.326Q641.415 323.399 642.172 323.511Q642.93 323.623 643.681 323.773Q644.432 323.923 645.174 324.111Q645.916 324.299 646.648 324.525Q647.38 324.75 648.099 325.013Q648.818 325.275 649.523 325.574Q650.229 325.872 650.918 326.206Q651.607 326.54 652.278 326.909Q652.949 327.277 653.601 327.679Q654.253 328.081 654.883 328.516C662.347 333.609 666.623 340.702 668.283 349.531Q671.189 349.807 674.077 350.232C682.386 351.517 690.207 356.398 695.113 363.204Q695.573 363.854 696.001 364.526Q696.429 365.198 696.823 365.89Q697.217 366.582 697.577 367.292Q697.936 368.003 698.261 368.73Q698.585 369.457 698.873 370.2Q699.161 370.942 699.413 371.698Q699.664 372.454 699.878 373.221Q700.092 373.988 700.268 374.765Q700.444 375.541 700.582 376.326Q700.719 377.11 700.818 377.9Q700.917 378.691 700.977 379.485Q701.037 380.279 701.058 381.075Q701.079 381.871 701.061 382.667Q701.042 383.463 700.985 384.258Q700.928 385.052 700.831 385.843Q700.735 386.633 700.6 387.418Q700.478 388.213 700.316 389.001Q700.154 389.789 699.953 390.568Q699.752 391.346 699.513 392.114Q699.273 392.882 698.995 393.637Q698.717 394.391 698.401 395.131Q698.086 395.871 697.733 396.594Q697.381 397.317 696.993 398.022Q696.605 398.727 696.182 399.411Q695.759 400.095 695.303 400.757Q694.846 401.419 694.357 402.058Q693.868 402.696 693.347 403.309Q692.826 403.922 692.276 404.508Q691.725 405.094 691.145 405.652Q690.566 406.21 689.959 406.738Q689.352 407.266 688.72 407.763Q688.088 408.26 687.431 408.725C679.388 414.346 670.03 415.036 660.623 413.432C656.21 420.622 651.723 425.488 645.206 430.855C644.488 435.095 644.531 439.233 644.614 443.517C647.287 443.435 651.221 442.866 653.639 444.096C654.457 444.511 654.456 445.158 654.764 445.962C664.619 443.301 684.137 455.537 693.709 458.828C703.235 459.615 725.56 480.804 732.241 488.674C735.967 493.063 738.629 498.151 742.219 502.574C748.272 510.032 754.581 514.728 758.84 523.871Q759.876 526.113 760.737 528.427Q761.598 530.742 762.279 533.116Q762.959 535.49 763.456 537.909Q763.952 540.328 764.261 542.778C765.99 556.808 764.988 571.901 764.984 586.049C764.981 601.882 765.774 618.2 764.606 633.983C763.108 641.041 761.414 647.887 758.657 654.585C750.541 674.301 734.189 694.6 716.238 706.339C697.52 718.579 672.192 724.943 650.055 720.206C638.343 717.7 626.839 711.529 615.989 706.574L567.779 684.068Q567.377 728.9 567.738 773.731L567.499 934.985L692.121 934.84C712.193 934.858 732.413 935.518 752.465 934.975Q797.916 934.698 843.366 934.894C857.156 934.913 871.244 935.532 885.006 934.934L967.162 934.884L991.429 934.846C995.092 934.832 998.853 934.449 1002.5 934.738C1003.55 934.821 1004.63 934.997 1005.46 935.683C1006 936.127 1005.83 936.567 1005.87 937.205L1005.22 937.789C999.132 939.213 988.99 938.241 982.39 938.258L940.299 938.526L728.737 938.429L248.25 938.414L93.599 938.415L45.29 938.443C36.8623 938.449 28.0519 938.984 19.665 938.24C19.0509 937.106 19.2747 936.068 19.3961 934.841C24.1204 934.017 29.8464 934.553 34.6758 934.56L66.4174 934.618L180.637 934.63C165.292 925.505 150.831 915.304 137.712 903.155Q130.175 896.122 123.441 888.316Q116.707 880.51 110.855 872.023C99.009 854.524 85.1842 824.111 84.4142 803.29C109.671 804.075 135.14 803.391 160.417 803.351L310.967 803.04L453.391 803.17C480.721 803.26 508.288 804.072 535.592 803.234L541.289 803.052Q541.406 792.772 541.18 782.494C531.708 782.355 522.216 782.487 512.741 782.492Q515.409 755.622 517.312 728.688C517.948 720.265 521.078 667.918 522.869 663.619C515.854 659.406 503.826 654.791 496.026 651.245C491.684 648.502 486.608 647.039 482.168 644.377C484.316 636.015 487.793 627.775 490.819 619.7C478.932 618.145 466.755 616.949 455.163 613.821C450.314 612.048 445.931 609.742 442.077 606.274Q441.45 605.703 440.853 605.101Q440.256 604.5 439.689 603.869Q439.122 603.239 438.588 602.581Q438.053 601.923 437.552 601.239Q437.051 600.555 436.585 599.847Q436.118 599.139 435.688 598.409Q435.257 597.678 434.863 596.928Q434.47 596.177 434.114 595.407Q433.758 594.638 433.442 593.851Q433.125 593.065 432.847 592.264Q432.57 591.463 432.333 590.649Q432.096 589.835 431.9 589.01Q431.703 588.185 431.548 587.352Q431.394 586.518 431.28 585.678Q431.167 584.838 431.096 583.993Q431.025 583.148 430.996 582.301Q430.911 580.157 431.089 578.019Q431.267 575.88 431.705 573.78C433.102 566.866 440.786 541.769 445.137 537.366C448.699 533.761 453.41 532.563 458.329 532.44C467.298 534.201 472.759 540.205 480.757 543.744C486.999 546.506 493.679 548.12 500.016 550.625C505.393 552.26 510.72 554.243 516.046 556.048C517.982 550.956 520.025 545.973 522.549 541.141C525.943 542.573 529.363 543.77 532.864 544.913C533.066 543.611 533.28 542.305 533.584 541.022C539.331 516.752 567.444 472.552 588.97 460.676C590.259 459.965 590.908 459.594 592.332 460.023C598.694 453.022 605.784 445.674 614.488 441.687L614.568 434.286C609.895 432.992 605.573 431.16 601.568 428.398C595.26 424.048 588.654 416.85 587.186 409.149C580.737 403.27 575.886 396.953 574.542 388.098Q574.424 387.301 574.345 386.5Q574.267 385.698 574.228 384.893Q574.19 384.089 574.191 383.283Q574.193 382.478 574.234 381.673Q574.276 380.869 574.358 380.067Q574.439 379.266 574.56 378.469Q574.682 377.673 574.842 376.884Q575.003 376.094 575.203 375.314Q575.403 374.534 575.641 373.764Q575.88 372.995 576.156 372.238Q576.432 371.482 576.746 370.74Q577.06 369.998 577.41 369.272Q577.76 368.547 578.146 367.84Q578.532 367.133 578.952 366.446Q579.373 365.758 579.827 365.093Q580.281 364.428 580.768 363.786C587.367 355.071 595.789 352.249 606.287 350.835Z"/>
	<path fill="#FEFEFE" d="M640.524 432.554L641.188 432.645C641.882 436.373 642.146 448.235 641.041 451.544C640.968 451.764 640.881 451.981 640.806 452.201C639.056 457.295 636.597 462.106 634.271 466.956C629.71 466.477 624.706 467.323 620.448 465.334C620.337 465.225 620.225 465.117 620.116 465.006C619.186 464.059 618.487 463.22 618.138 461.919C616.438 455.583 617.625 442.145 617.715 435.023C625.751 435.926 632.832 434.896 640.524 432.554Z"/>
	<path fill="#FEFEFE" d="M647.095 446.687C648.425 446.624 649.584 446.674 650.906 446.842C651.144 447.078 651.435 447.271 651.621 447.55C652.42 448.75 652.386 492.444 652.477 496.977Q639.675 496.783 626.873 496.998C627.917 506.685 630.775 516.408 632.957 525.898C626.171 531.774 618.165 536.799 610.864 542.057L604.451 546.883Q620.449 504.761 639.409 463.887C642.064 458.248 644.171 452.157 647.095 446.687Z"/>
	<path fill="#FEFEFE" d="M532.864 544.913C533.066 543.611 533.28 542.305 533.584 541.022C539.331 516.752 567.444 472.552 588.97 460.676C590.259 459.965 590.908 459.594 592.332 460.023C569.485 486.922 559.363 520.707 561.495 555.781C552.063 552.136 542.525 547.849 532.864 544.913Z"/>
	<path fill="#A5C1DC" d="M447.713 934.575C483.599 911.811 498.906 900.604 519.292 862.364C520.325 870.588 518.893 883.749 520.345 890.26C520.741 892.033 521.483 893.616 522.928 894.774C527.997 898.832 541.95 896.809 548.325 896.516C548.406 909.111 547.885 922.687 550.751 935.022L456.684 934.912C453.771 934.551 450.656 934.654 447.713 934.575Z"/>
	<path fill="#FEFEFE" d="M613.821 445.416C615.1 446.63 614.495 460.263 614.59 462.751C615.314 463.988 616.036 465.296 616.983 466.378C620.858 470.804 627.417 470.077 632.769 470.349C630.277 476.334 627.28 482.122 624.671 488.062C619.82 499.106 615.476 510.412 610.93 521.586C604.682 536.945 598.168 552.219 593.972 568.301L586.454 565.374Q575.75 561.178 564.984 557.146C563.811 547.027 564.283 536.29 565.901 526.247C571.176 493.493 586.623 464.96 613.821 445.416Z"/>
	<path fill="#FEFEFE" d="M618.993 358.131C628.414 356.936 638.106 358.975 645.944 364.419C653.732 369.829 659.441 378.569 661.07 387.921C662.862 398.208 660.761 408.848 654.682 417.393C648.638 425.888 640.19 430.116 630.118 431.883C620.96 432.894 611.393 431.112 603.643 425.984C595.577 420.646 589.989 411.755 588.133 402.316C586.28 392.888 588.137 382.57 593.53 374.579C599.555 365.649 608.496 360.143 618.993 358.131Z"/>
	<path fill="#FEFEFE" d="M457.54 535.594C466.151 536.649 471.068 543.031 478.509 546.437C482.67 548.341 487.189 549.633 491.495 551.182L514.271 559.591Q507.594 577.122 500.686 594.564C497.808 601.911 495.169 609.523 491.851 616.679C478.297 614.586 460.049 614.1 448.423 606.624C441.34 602.069 436.654 595.197 434.921 586.972Q434.635 585.633 434.476 584.273Q434.316 582.914 434.284 581.545Q434.252 580.177 434.348 578.811Q434.444 577.446 434.667 576.095C435.625 570.166 443.376 546.164 446.471 541.7C449.169 537.809 453.057 536.424 457.54 535.594Z"/>
	<path fill="#FEFEFE" d="M654.764 445.962C664.619 443.301 684.137 455.537 693.709 458.828C698.178 462.037 702.784 464.973 707.128 468.373C717.998 476.88 727.068 487.21 735.357 498.177C722.871 492.445 711.133 489.03 697.276 490.477C680.786 492.198 667.288 499.897 656.913 512.727C638.618 535.35 642.475 560.08 645.297 586.904Q621.031 578.574 597.076 569.388C598.502 564.182 599.64 557.715 602.668 553.231C606.538 547.5 630.101 533.012 636.849 527.639C635.624 518.621 632.556 509.544 630.926 500.504Q643.459 500.382 655.99 500.583C655.564 482.42 655.983 464.074 654.764 445.962Z"/>
	<path fill="#FEFEFE" d="M522.869 663.619C536.672 669.848 550.909 675.649 564.165 682.992L564.113 896.245L548.325 896.516C541.95 896.809 527.997 898.832 522.928 894.774C521.483 893.616 520.741 892.033 520.345 890.26C518.893 883.749 520.325 870.588 519.292 862.364C528.54 843.534 534.654 824.312 535.592 803.234L541.289 803.052Q541.406 792.772 541.18 782.494C531.708 782.355 522.216 782.487 512.741 782.492Q515.409 755.622 517.312 728.688C517.948 720.265 521.078 667.918 522.869 663.619Z"/>
	<path fill="#FEFEFE" d="M704.396 493.229C711.961 493.327 718.989 494.74 725.994 497.659Q727.305 498.193 728.587 498.791Q729.87 499.389 731.121 500.05Q732.372 500.711 733.59 501.432Q734.807 502.154 735.987 502.935Q737.167 503.716 738.307 504.554Q739.448 505.392 740.545 506.286Q741.642 507.179 742.694 508.126Q743.746 509.072 744.75 510.07Q745.754 511.067 746.708 512.113Q747.661 513.159 748.562 514.25Q749.462 515.341 750.308 516.476Q751.154 517.611 751.942 518.786Q752.731 519.961 753.461 521.173Q754.19 522.386 754.859 523.633Q755.528 524.88 756.135 526.158Q756.741 527.437 757.284 528.744Q758.826 532.588 759.805 536.612Q760.784 540.636 761.179 544.758C762.611 559.021 761.55 574.505 761.568 588.899C761.584 602.838 762.689 620.858 761.019 634.365C760.2 640.989 758.166 647.61 755.537 653.73C744.469 679.503 723.239 701.858 697.047 712.309C683.714 717.628 667.543 720.262 653.294 717.619C638.477 714.871 623.892 706.191 610.146 700.093C568.46 681.599 527.653 661.138 485.809 642.985C487.335 637.692 489.517 632.541 491.485 627.398C500.934 599.61 513.456 572.777 523.617 545.224Q566.619 561.045 609.407 577.438C617.029 580.318 642.117 588.164 647.465 592.533C650.474 594.991 652.902 598.577 655.485 601.496C660.754 607.452 693.965 646.169 697.284 647.894L698.087 647.608C698.676 646.799 699.277 646.413 698.672 645.381C696.937 642.419 693.294 639.182 690.997 636.551C685.166 629.869 651.247 593.114 649.342 588.483C646.896 582.539 646.897 570.622 646.53 563.893C645.465 544.363 648.126 527.101 661.701 512.089C673.201 499.372 687.533 494.036 704.396 493.229Z"/>
	<path fill="#3F68AC" d="M84.4142 803.29C109.671 804.075 135.14 803.391 160.417 803.351L310.967 803.04L453.391 803.17C480.721 803.26 508.288 804.072 535.592 803.234C534.654 824.312 528.54 843.534 519.292 862.364C498.906 900.604 483.599 911.811 447.713 934.575C450.656 934.654 453.771 934.551 456.684 934.912C449.6 935.456 442.154 934.96 435.027 934.94L393.782 934.959L256.167 935.014L98.0822 935.053L48.1233 935.065C38.5921 935.069 28.9079 935.403 19.3961 934.841C24.1204 934.017 29.8464 934.553 34.6758 934.56L66.4174 934.618L180.637 934.63C165.292 925.505 150.831 915.304 137.712 903.155Q130.175 896.122 123.441 888.316Q116.707 880.51 110.855 872.023C99.009 854.524 85.1842 824.111 84.4142 803.29Z"/>
	<path fill="#A5C1DC" d="M143.743 781.992C137.339 777.849 130.45 774.653 123.863 770.834C109.032 762.236 94.0962 750.768 83.3253 737.44Q82.2565 736.11 81.2542 734.729Q80.2518 733.349 79.3182 731.921Q78.3846 730.493 77.5221 729.021Q76.6595 727.549 75.8701 726.036Q75.0806 724.524 74.3662 722.974Q73.6518 721.425 73.014 719.843Q72.3763 718.26 71.8168 716.648Q71.2573 715.036 70.7775 713.399Q70.2975 711.762 69.8984 710.103Q69.4992 708.445 69.1817 706.768Q68.8643 705.092 68.6293 703.402Q68.3942 701.712 68.2422 700.013Q68.0903 698.313 68.0216 696.609Q67.953 694.904 67.968 693.198Q67.9829 691.492 68.0813 689.789Q68.1798 688.085 68.3615 686.389C72.0905 651.587 102.804 632.761 127.541 612.513C150.328 593.862 156.938 570.776 149.868 542.388C145.369 524.327 137.492 507.259 133.428 489.066Q132.528 485.041 131.949 480.958Q131.37 476.875 131.115 472.759Q130.86 468.643 130.931 464.519Q131.002 460.396 131.398 456.291C132.534 445.108 135.994 434.662 140.798 424.542C157.892 388.527 190.799 364.177 225.732 346.791C250.887 334.271 281.081 323.773 301.877 304.391C324.818 283.008 332.835 249.998 346.19 222.608C359.524 195.262 379.614 171.552 403.285 152.549C452.772 112.819 519.752 94.0407 582.682 100.802C641.158 107.084 695.774 139.221 732.383 184.773C762.065 221.707 772.587 264.209 758.962 310.133C753.039 330.097 744.445 350.612 742.289 371.422C740.731 386.46 743.864 400.814 752.264 413.451C777.441 451.33 825.894 453.376 863.718 470.456C877.6 476.725 890.705 485.547 900.301 497.514C914.805 515.604 915.834 531.697 913.392 553.757C909.67 554.437 905.666 554.68 902.109 555.991L900.589 556.928C891.628 557.91 879.397 568.415 873.903 575.197C852.809 601.236 880.686 612.104 853.227 639.406C851.996 639.77 851.979 639.825 851.212 640.862C846.775 642.763 842.903 645.855 838.359 647.591C827.697 651.665 796.616 657.665 791.663 668.256C791.253 669.132 791.256 669.878 791.252 670.823L790.627 669.18L789.898 669.228L788.763 671.076C785.315 672.833 769.094 694.458 765.304 699.046C765.489 693.768 766.431 688.428 767.014 683.175C768.526 669.54 769.083 656.23 766.751 642.635C766.291 639.948 766.029 636.284 764.606 633.983C765.774 618.2 764.981 601.882 764.984 586.049C764.988 571.901 765.99 556.808 764.261 542.778Q763.952 540.328 763.456 537.909Q762.959 535.49 762.279 533.116Q761.598 530.742 760.737 528.427Q759.876 526.113 758.84 523.871C754.581 514.728 748.272 510.032 742.219 502.574C738.629 498.151 735.967 493.063 732.241 488.674C725.56 480.804 703.235 459.615 693.709 458.828C684.137 455.537 664.619 443.301 654.764 445.962C654.456 445.158 654.457 444.511 653.639 444.096C651.221 442.866 647.287 443.435 644.614 443.517C644.531 439.233 644.488 435.095 645.206 430.855C651.723 425.488 656.21 420.622 660.623 413.432C670.03 415.036 679.388 414.346 687.431 408.725Q688.088 408.26 688.72 407.763Q689.352 407.266 689.959 406.738Q690.566 406.21 691.145 405.652Q691.725 405.094 692.275 404.508Q692.826 403.922 693.347 403.309Q693.868 402.696 694.357 402.058Q694.846 401.419 695.303 400.757Q695.759 400.095 696.182 399.411Q696.605 398.727 696.993 398.022Q697.381 397.317 697.733 396.594Q698.086 395.871 698.401 395.131Q698.717 394.391 698.995 393.637Q699.273 392.882 699.513 392.114Q699.752 391.346 699.953 390.568Q700.154 389.789 700.316 389.001Q700.478 388.213 700.6 387.418Q700.735 386.633 700.831 385.843Q700.928 385.052 700.985 384.258Q701.042 383.463 701.061 382.667Q701.079 381.871 701.058 381.075Q701.037 380.279 700.977 379.485Q700.917 378.691 700.818 377.9Q700.719 377.11 700.582 376.326Q700.444 375.541 700.268 374.765Q700.092 373.988 699.878 373.221Q699.664 372.454 699.413 371.698Q699.161 370.942 698.873 370.2Q698.585 369.457 698.261 368.73Q697.936 368.003 697.577 367.292Q697.217 366.582 696.823 365.89Q696.429 365.198 696.001 364.526Q695.573 363.854 695.113 363.204C690.207 356.398 682.386 351.517 674.077 350.232Q671.189 349.807 668.283 349.531C666.623 340.702 662.347 333.609 654.883 328.516Q654.253 328.081 653.601 327.679Q652.949 327.277 652.278 326.909Q651.607 326.54 650.918 326.206Q650.229 325.872 649.523 325.574Q648.818 325.275 648.099 325.013Q647.38 324.75 646.648 324.525Q645.916 324.299 645.174 324.111Q644.432 323.923 643.681 323.773Q642.93 323.623 642.172 323.511Q641.415 323.399 640.653 323.326Q639.891 323.252 639.125 323.218Q638.361 323.183 637.595 323.188Q636.829 323.192 636.065 323.235Q635.3 323.278 634.539 323.36Q633.777 323.442 633.021 323.563Q632.265 323.683 631.516 323.842Q630.752 323.993 629.997 324.181Q629.242 324.37 628.497 324.596Q627.752 324.821 627.019 325.083Q626.286 325.345 625.567 325.643Q624.848 325.941 624.145 326.274Q623.441 326.607 622.755 326.974Q622.069 327.341 621.401 327.742Q620.734 328.142 620.087 328.576Q619.441 329.009 618.816 329.473Q618.192 329.938 617.591 330.432Q616.99 330.927 616.414 331.451Q615.838 331.975 615.289 332.526Q614.74 333.078 614.219 333.656Q613.697 334.234 613.205 334.836Q612.713 335.439 612.251 336.066Q611.789 336.692 611.359 337.341C608.612 341.525 607.404 346.013 606.287 350.835C595.789 352.249 587.367 355.071 580.768 363.786Q580.281 364.428 579.827 365.093Q579.373 365.758 578.952 366.446Q578.532 367.133 578.146 367.84Q577.76 368.547 577.41 369.272Q577.06 369.998 576.746 370.74Q576.432 371.482 576.156 372.238Q575.88 372.995 575.641 373.764Q575.403 374.534 575.203 375.314Q575.003 376.094 574.842 376.884Q574.682 377.673 574.56 378.469Q574.439 379.266 574.358 380.067Q574.276 380.869 574.234 381.673Q574.193 382.478 574.191 383.283Q574.19 384.089 574.228 384.893Q574.267 385.698 574.345 386.5Q574.424 387.301 574.542 388.098C575.886 396.953 580.737 403.27 587.186 409.149C588.654 416.85 595.26 424.048 601.568 428.398C605.573 431.16 609.895 432.992 614.568 434.286L614.488 441.687C605.784 445.674 598.694 453.022 592.332 460.023C590.908 459.594 590.259 459.965 588.97 460.676C567.444 472.552 539.331 516.752 533.584 541.022C533.28 542.305 533.066 543.611 532.864 544.913C529.363 543.77 525.943 542.573 522.549 541.141C520.025 545.973 517.982 550.956 516.046 556.048C510.72 554.243 505.393 552.26 500.016 550.625C493.679 548.12 486.999 546.506 480.757 543.744C472.759 540.205 467.298 534.201 458.329 532.44C453.41 532.563 448.699 533.761 445.137 537.366C440.786 541.769 433.102 566.866 431.705 573.78Q431.267 575.88 431.089 578.019Q430.911 580.157 430.996 582.301Q431.025 583.148 431.096 583.993Q431.167 584.838 431.28 585.678Q431.394 586.518 431.548 587.352Q431.703 588.185 431.9 589.01Q432.096 589.835 432.333 590.649Q432.57 591.463 432.847 592.264Q433.125 593.065 433.442 593.851Q433.758 594.638 434.114 595.407Q434.47 596.177 434.863 596.928Q435.257 597.678 435.688 598.409Q436.118 599.139 436.585 599.847Q437.051 600.555 437.552 601.239Q438.053 601.923 438.588 602.581Q439.122 603.239 439.689 603.869Q440.256 604.5 440.853 605.101Q441.45 605.703 442.077 606.274C445.931 609.742 450.314 612.048 455.163 613.821C466.755 616.949 478.932 618.145 490.819 619.7C487.793 627.775 484.316 636.015 482.168 644.377C486.608 647.039 491.684 648.502 496.026 651.245C503.826 654.791 515.854 659.406 522.869 663.619C521.078 667.918 517.948 720.265 517.312 728.688Q515.409 755.622 512.741 782.492C522.216 782.487 531.708 782.355 541.18 782.494Q541.406 792.772 541.289 803.052L535.592 803.234C508.288 804.072 480.721 803.26 453.391 803.17L310.967 803.04L160.417 803.351C135.14 803.391 109.671 804.075 84.4142 803.29C83.8579 802.879 83.387 802.384 82.8898 801.905C81.4881 795.997 82.4105 788.319 82.5272 782.203C88.4029 781.128 95.8767 781.942 101.915 781.958L143.743 781.992Z"/>
	<path fill="#FEFEFE" d="M128.519 766.587C128.353 766.572 128.187 766.558 128.021 766.54C124.843 766.196 122.332 764.725 120.371 762.179C117.642 758.637 116.774 753.674 117.542 749.331C118.27 745.213 120.792 741.032 124.241 738.636C127.671 736.253 132.257 735.643 136.292 736.526C140.562 737.461 144.125 740.344 146.357 744.052C148.679 747.91 149.66 753.168 148.348 757.535C147.194 761.375 144.208 764.001 140.73 765.78C139.363 766.48 137.902 766.963 136.446 767.441C133.67 766.703 131.361 766.525 128.519 766.587Z"/>
	<path fill="#FEFEFE" d="M92.7982 683.58C95.5176 683.398 97.8717 683.459 100.48 684.346C104.731 685.791 108.179 688.568 110.146 692.653Q110.503 693.381 110.784 694.142Q111.065 694.903 111.266 695.688Q111.468 696.474 111.588 697.276Q111.708 698.078 111.745 698.888Q111.783 699.698 111.737 700.508Q111.691 701.318 111.563 702.118Q111.435 702.919 111.225 703.703Q111.016 704.486 110.727 705.244C108.583 710.731 104.308 713.48 99.1456 715.672C95.2923 716.285 91.9128 716.032 88.381 714.257Q87.6626 713.895 86.9834 713.463Q86.3042 713.032 85.6708 712.535Q85.0375 712.039 84.4562 711.483Q83.8749 710.926 83.3513 710.315Q82.8277 709.704 82.367 709.044Q81.9062 708.385 81.5127 707.683Q81.1193 706.981 80.797 706.244Q80.4746 705.506 80.2266 704.741C78.9396 700.646 79.3714 695.899 81.386 692.106C83.9162 687.341 87.9035 685.216 92.7982 683.58Z"/>
	<path fill="#FEFEFE" d="M132.426 653.522C134.846 653.408 137.149 653.47 139.49 654.174C143.787 655.466 147.217 658.252 149.281 662.246C151.299 666.152 151.82 670.785 150.369 674.97C148.442 680.531 144.266 683.309 139.2 685.655C135.203 686.185 131.734 686.341 128.001 684.568Q127.289 684.228 126.616 683.817Q125.943 683.406 125.315 682.929Q124.687 682.451 124.112 681.911Q123.537 681.372 123.02 680.776Q122.503 680.18 122.049 679.535Q121.596 678.889 121.212 678.2Q120.827 677.512 120.515 676.787Q120.203 676.063 119.967 675.31C118.582 670.937 119.011 665.739 121.167 661.682C123.673 656.964 127.56 655.016 132.426 653.522Z"/>
	<path fill="#FEFEFE" d="M197.971 738.07C201.329 737.791 204.638 737.971 207.786 739.254Q208.539 739.553 209.258 739.928Q209.977 740.302 210.653 740.748Q211.33 741.194 211.958 741.706Q212.586 742.219 213.158 742.793Q213.73 743.367 214.241 743.996Q214.752 744.625 215.196 745.303Q215.64 745.981 216.012 746.701Q216.385 747.421 216.682 748.175C218.36 752.516 218.066 757.65 215.987 761.802C213.522 766.725 209.598 768.891 204.622 770.559C200.561 771.022 196.586 770.615 192.955 768.625Q192.22 768.216 191.529 767.736Q190.838 767.256 190.198 766.71Q189.558 766.163 188.976 765.556Q188.394 764.949 187.875 764.287Q187.356 763.625 186.905 762.914Q186.454 762.204 186.077 761.452Q185.699 760.701 185.398 759.915Q185.097 759.13 184.875 758.318C183.714 754.154 184.183 749.61 186.449 745.897C189.041 741.651 193.257 739.25 197.971 738.07Z"/>
	<path fill="#FEFEFE" d="M180.448 701.401C176.095 696.4 172.711 693.009 173.059 685.819C173.286 681.132 175.243 676.644 178.872 673.602Q179.497 673.073 180.172 672.609Q180.846 672.145 181.563 671.749Q182.28 671.354 183.033 671.031Q183.785 670.709 184.566 670.463Q185.347 670.216 186.148 670.048Q186.95 669.88 187.764 669.792Q188.578 669.705 189.397 669.698Q190.216 669.691 191.031 669.765Q191.854 669.85 192.665 670.017Q193.476 670.184 194.266 670.43Q195.057 670.676 195.819 671Q196.581 671.323 197.307 671.72Q198.033 672.118 198.716 672.585Q199.4 673.052 200.033 673.585Q200.667 674.118 201.244 674.711Q201.822 675.304 202.338 675.951C205.172 679.493 206.579 684.678 205.941 689.175C205.316 693.581 201.979 698.083 198.353 700.531C192.931 704.192 186.997 702.893 181.043 701.722L180.448 701.401Z"/>
	<path fill="#E16349" d="M186.866 503.661C193.459 503.284 199.404 504.076 205.028 507.884Q205.559 508.249 206.072 508.64Q206.585 509.031 207.078 509.447Q207.57 509.863 208.042 510.302Q208.514 510.742 208.963 511.204Q209.413 511.666 209.839 512.15Q210.265 512.634 210.666 513.139Q211.068 513.643 211.444 514.167Q211.821 514.69 212.171 515.232Q212.521 515.773 212.844 516.331Q213.166 516.889 213.461 517.463Q213.756 518.036 214.023 518.623Q214.289 519.21 214.526 519.81Q214.763 520.409 214.97 521.02Q215.178 521.63 215.354 522.25Q215.531 522.871 215.677 523.499Q215.823 524.127 215.938 524.761C217.348 532.436 215.488 541.154 210.811 547.435C206.332 553.451 200.291 556.161 193.107 557.345C186.486 558.088 179.6 556.608 174.127 552.741Q173.596 552.363 173.085 551.959Q172.573 551.555 172.082 551.126Q171.591 550.697 171.121 550.245Q170.652 549.792 170.205 549.317Q169.758 548.843 169.336 548.346Q168.913 547.85 168.515 547.334Q168.117 546.817 167.745 546.282Q167.373 545.746 167.028 545.193Q166.683 544.64 166.365 544.071Q166.047 543.502 165.758 542.918Q165.469 542.333 165.208 541.735Q164.948 541.138 164.718 540.528Q164.487 539.918 164.287 539.298Q164.087 538.677 163.917 538.048Q163.748 537.418 163.609 536.781Q163.471 536.144 163.364 535.501Q163.261 534.817 163.192 534.13Q163.122 533.442 163.086 532.751Q163.049 532.061 163.047 531.37Q163.044 530.678 163.074 529.988Q163.105 529.297 163.168 528.609Q163.232 527.92 163.329 527.236Q163.426 526.551 163.556 525.872Q163.686 525.193 163.849 524.521Q164.011 523.85 164.206 523.186Q164.401 522.523 164.628 521.87Q164.854 521.217 165.112 520.575Q165.37 519.934 165.659 519.306Q165.947 518.678 166.266 518.064Q166.585 517.451 166.933 516.853Q167.28 516.256 167.657 515.676Q168.033 515.096 168.437 514.535C172.882 508.466 179.483 504.678 186.866 503.661Z"/>
	<path fill="#3A7569" d="M452.014 484.733L506.973 484.63L506.698 494.316L499.966 494.057L500.016 550.625C493.679 548.12 486.999 546.506 480.757 543.744C472.759 540.205 467.298 534.201 458.329 532.44L458.203 494.045C456.165 493.93 454.113 493.862 452.08 493.681L452.014 484.733Z"/>
	<path fill="#3A7569" d="M455.163 613.821C466.755 616.949 478.932 618.145 490.819 619.7C487.793 627.775 484.316 636.015 482.168 644.377C486.608 647.039 491.684 648.502 496.026 651.245C495.794 662.105 496.02 672.995 496.076 683.859C496.106 689.734 496.728 696.444 495.528 702.206Q495.28 703.375 494.895 704.506Q494.509 705.638 493.991 706.715Q493.473 707.791 492.829 708.799Q492.186 709.806 491.427 710.729Q491.092 711.147 490.736 711.548Q490.38 711.949 490.004 712.33Q489.628 712.712 489.233 713.074Q488.838 713.437 488.425 713.778Q488.012 714.119 487.582 714.439Q487.152 714.759 486.706 715.056Q486.26 715.353 485.8 715.627Q485.339 715.901 484.865 716.151Q484.391 716.401 483.905 716.627Q483.419 716.852 482.922 717.053Q482.425 717.253 481.918 717.427Q481.411 717.602 480.896 717.75Q480.381 717.898 479.859 718.02Q479.338 718.142 478.81 718.237Q478.283 718.331 477.751 718.399Q477.219 718.467 476.685 718.507C471.37 718.887 465.73 717.371 461.776 713.689C458.651 710.778 456.949 706.987 456.09 702.857C454.407 694.764 455.516 685.138 455.503 676.817C455.469 655.863 455.913 634.754 455.163 613.821Z"/>
	<path d="M255.105 630.042C252.896 630.068 249.764 630.51 247.707 629.747C246.766 625.589 245.559 616.687 247.998 613.031C248.703 611.975 249.686 611.525 250.903 611.35C255.714 610.658 263.586 611.514 268.73 611.519C283.709 611.533 298.718 611.305 313.693 611.547C313.967 617.598 314.191 623.949 313.771 629.993L305.05 630.197C305.017 640.191 304.539 650.418 305.764 660.346C307.58 675.063 312.012 689.127 316.011 703.352L327.796 746.386C331.112 758.352 334.794 770.456 337.305 782.611L512.741 782.492C522.216 782.487 531.708 782.355 541.18 782.494Q541.406 792.772 541.289 803.052L535.592 803.234C508.288 804.072 480.721 803.26 453.391 803.17L310.967 803.04L160.417 803.351C135.14 803.391 109.671 804.075 84.4142 803.29C83.8579 802.879 83.387 802.384 82.8898 801.905C81.4881 795.997 82.4105 788.319 82.5272 782.203C88.7201 783.455 98.4594 782.513 105.116 782.508L157.726 782.448C148.683 775.548 138.601 771.541 128.519 766.587C131.361 766.525 133.67 766.703 136.446 767.441C139.817 769 143.212 770.572 146.394 772.495C152.373 776.109 158.131 781.342 165.236 782.419C168.965 782.985 173.122 782.601 176.896 782.522C170.564 766.883 135.532 700.093 135.006 690.188L135.528 690.319C138.441 693.767 150.114 721.021 152.971 727.249C158.8 722.479 164.078 717.108 169.37 711.764C172.702 708.4 176.429 703.886 180.448 701.401L181.043 701.722C180.193 706.078 158.558 725.383 154.104 729.386C162.58 747.182 170.739 765.064 179.9 782.526L216.266 782.519L238.946 713.068C244.362 696.489 251.143 679.373 253.889 662.117C255.559 651.619 255.103 640.646 255.105 630.042Z"/>
	<path fill="#FEFEFE" d="M324.361 747.16C327.65 758.909 331.193 770.671 333.905 782.563L220.024 782.474C223.289 770.784 228.483 759.281 231.183 747.512L324.361 747.16Z"/>
	<path fill="#FEFEFE" d="M250.459 615.345Q280.507 615.076 310.556 615.337L310.571 626.242C307.61 626.245 304.596 626.122 301.647 626.398C300.927 653.769 302.027 667.901 309.903 694.041C307.331 694.905 252.661 695.257 248.635 694.119C252.805 681.999 256.805 669.751 258.099 656.924C259.105 646.948 258.577 636.538 258.565 626.504L250.464 626.336L250.459 615.345Z"/>
	<path fill="#E16349" d="M309.903 694.041Q317.376 720.534 324.361 747.16L231.183 747.512C237.665 730.016 242.585 711.791 248.635 694.119C252.661 695.257 307.331 694.905 309.903 694.041Z"/>
	<path fill="#FEFEFE" d="M86.2543 786.035L537.613 786.048L537.816 799.354L317.792 799.3C240.603 799.394 163.349 800.219 86.1673 799.324Q86.0556 792.678 86.2543 786.035Z"/>
</svg>
